<svg xmlns="http://www.w3.org/2000/svg" xmlns:xlink="http://www.w3.org/1999/xlink" width="48" height="48" viewBox="0 0 48 48">
  <defs>
    <style>
      .cls-1 {
        fill: rgba(255,255,255,0);
      }

      .cls-2 {
        fill: url(#linear-gradient);
      }

      .cls-3 {
        fill: #fff;
      }
    </style>
    <linearGradient id="linear-gradient" x1="0.5" x2="0.893" y2="0.914" gradientUnits="objectBoundingBox">
      <stop offset="0" stop-color="#4992ff"/>
      <stop offset="1" stop-color="#a0c4fb"/>
    </linearGradient>
  </defs>
  <g id="doctor_Income" transform="translate(1231 -10354)">
    <rect id="矩形_1459" data-name="矩形 1459" class="cls-1" width="48" height="48" transform="translate(-1231 10354)"/>
    <g id="组_3376" data-name="组 3376" transform="translate(-1335.176 10275.843)">
      <path id="路径_3991" data-name="路径 3991" class="cls-2" d="M123.523,95.586h10.61A2.452,2.452,0,0,0,136,94.731a10.108,10.108,0,0,0,2.371-4.333c.466-2.876-.758-4.314-4.314-4.314s-2.351,2.332-3.75,2.526c-1.03.136-.991-1.224-2.623-2.526-1.166-.933-2.468,1.71-4,1.729-1.788.019-4.314-.486-4.314,2.584,0,1.244,1.088,2.915,2.273,4.294A2.436,2.436,0,0,0,123.523,95.586Zm13.233,2.72a2.978,2.978,0,0,0-2.235-1.01H123.192a3.042,3.042,0,0,0-2.176.913c-3.556,3.731-6.84,9.055-6.84,12.942,0,3.42,3.439,7.734,7.676,7.734h13.155c4.236,0,7.676-4.275,7.676-7.734C142.682,107.206,140.04,102.037,136.756,98.306Z"/>
      <path id="路径_3992" data-name="路径 3992" class="cls-3" d="M551.571,581.947a6.4,6.4,0,0,1-1.042-3.387,6.2,6.2,0,0,1-1.061,3.387,3.586,3.586,0,0,1-3.164,1.377,3.542,3.542,0,0,1,3.164,1.377,6.174,6.174,0,0,1,1.061,3.424,6.25,6.25,0,0,1,1.042-3.406,3.5,3.5,0,0,1,3.164-1.377A3.553,3.553,0,0,1,551.571,581.947Z" transform="translate(-415.216 -473.372)"/>
    </g>
  </g>
</svg>
