<svg xmlns="http://www.w3.org/2000/svg" xmlns:xlink="http://www.w3.org/1999/xlink" width="48" height="48" viewBox="0 0 48 48">
  <defs>
    <style>
      .cls-1 {
        fill: rgba(255,255,255,0);
      }

      .cls-2 {
        fill: url(#linear-gradient);
      }

      .cls-3 {
        fill: url(#linear-gradient-2);
      }

      .cls-4 {
        fill: #1adb70;
      }
    </style>
    <linearGradient id="linear-gradient" x1="0.262" y1="0.41" x2="0.694" y2="1" gradientUnits="objectBoundingBox">
      <stop offset="0" stop-color="#31db7c"/>
      <stop offset="1" stop-color="#40bc76"/>
    </linearGradient>
    <linearGradient id="linear-gradient-2" x1="0.312" y1="0.5" x2="0.694" y2="1" gradientUnits="objectBoundingBox">
      <stop offset="0" stop-color="#1adb70"/>
      <stop offset="1" stop-color="#34b16a"/>
    </linearGradient>
  </defs>
  <g id="doctor_BindingWeChat" transform="translate(1231 -10417)">
    <rect id="矩形_1460" data-name="矩形 1460" class="cls-1" width="48" height="48" transform="translate(-1231 10417)"/>
    <g id="组_3377" data-name="组 3377" transform="translate(-1234.1 10220.64)">
      <path id="路径_3993" data-name="路径 3993" class="cls-2" d="M502.188,414.76c0-4.518-4.519-8.232-9.686-8.232-5.324,0-9.686,3.713-9.686,8.232s4.183,8.232,9.686,8.232a12.026,12.026,0,0,0,3.378-.649l3.065,1.767-.805-2.908C500.42,419.435,502.188,417.176,502.188,414.76Zm-12.75-1.454a1.094,1.094,0,0,1-1.118-1.118,1.354,1.354,0,0,1,1.118-1.118,1.312,1.312,0,0,1,1.454,1.118A1.44,1.44,0,0,1,489.437,413.306Zm6.129,0a1.2,1.2,0,0,1-1.118-1.118,1.354,1.354,0,0,1,1.118-1.118,1.157,1.157,0,1,1,0,2.237Z" transform="translate(-456.845 -190.466)"/>
      <path id="路径_3994" data-name="路径 3994" class="cls-3" d="M199.2,207.36c-6.286,0-11.3,4.183-11.3,9.686,0,3.065,1.767,5.637,4.519,7.583l-1.118,3.378,4.026-1.946a17.99,17.99,0,0,0,4.026.649h1.118a12.767,12.767,0,0,1-.313-2.416c0-5.011,4.183-9.037,9.686-9.037h1.118C209.669,210.738,204.837,207.36,199.2,207.36Zm-3.557,7.583a1.482,1.482,0,1,1,0-2.908,1.361,1.361,0,0,1,1.454,1.454C196.941,214.451,196.449,214.943,195.644,214.943Zm7.9,0a1.482,1.482,0,1,1,0-2.908,1.454,1.454,0,1,1,0,2.908Zm10.245-.067a.625.625,0,0,0,.626.626l6.151.067a3.591,3.591,0,0,0,2.595-6.107,3.522,3.522,0,0,0-2.528-1.074l-6.151-.067a3.618,3.618,0,0,0-3.646,3.579.626.626,0,1,0,1.253,0,2.253,2.253,0,0,1,.716-1.655,2.3,2.3,0,0,1,1.655-.671l6.151.067a2.253,2.253,0,0,1,1.655.716,2.3,2.3,0,0,1,.671,1.655,2.253,2.253,0,0,1-.716,1.655,2.3,2.3,0,0,1-1.655.671l-6.151-.067A.606.606,0,0,0,213.785,214.876Z" transform="translate(-174.818 0)"/>
      <path id="路径_3995" data-name="路径 3995" class="cls-4" d="M6.241,420.945a4.007,4.007,0,0,0,2.8,1.208l6.8.067a3.938,3.938,0,0,0,2.818-1.141,4.007,4.007,0,0,0,1.208-2.8.693.693,0,0,0-1.387,0,2.5,2.5,0,0,1-.783,1.812,2.551,2.551,0,0,1-1.834.738l-6.8-.067a2.5,2.5,0,0,1-1.812-.783,2.462,2.462,0,0,1-.738-1.834,2.5,2.5,0,0,1,.783-1.812,2.551,2.551,0,0,1,1.834-.738l6.8.067a.693.693,0,0,0,0-1.387l-6.8-.089a3.938,3.938,0,0,0-2.818,1.141,4.048,4.048,0,0,0-1.208,2.8A3.813,3.813,0,0,0,6.241,420.945Z" transform="translate(0 -197.792)"/>
    </g>
  </g>
</svg>
