<svg xmlns="http://www.w3.org/2000/svg" xmlns:xlink="http://www.w3.org/1999/xlink" width="48" height="48" viewBox="0 0 48 48">
  <defs>
    <style>
      .cls-1 {
        fill: rgba(255,255,255,0);
      }

      .cls-2 {
        fill: url(#linear-gradient);
      }

      .cls-3 {
        fill: #fff;
      }
    </style>
    <linearGradient id="linear-gradient" x1="0.102" y1="0.166" x2="0.722" y2="0.923" gradientUnits="objectBoundingBox">
      <stop offset="0" stop-color="#f9d628"/>
      <stop offset="1" stop-color="#fe9800"/>
    </linearGradient>
  </defs>
  <g id="doctor_realName" transform="translate(1231 -10491)">
    <rect id="矩形_1461" data-name="矩形 1461" class="cls-1" width="48" height="48" transform="translate(-1231 10491)"/>
    <g id="组_3389" data-name="组 3389" transform="translate(-1259.377 10462.463)">
      <path id="路径_3999" data-name="路径 3999" class="cls-2" d="M305.71,239.461h-1.425a24.479,24.479,0,0,1-6.479-1.3,33.621,33.621,0,0,1-5.572-2.851l-.777-.648-.907.648a28.04,28.04,0,0,1-5.572,2.851,24.011,24.011,0,0,1-6.349,1.3h-1.3v14.253c0,7.127,9.329,14.642,14.253,14.642s14.253-7.515,14.253-14.642Z" transform="translate(-238.956 -199.13)"/>
      <path id="路径_4000" data-name="路径 4000" class="cls-3" d="M410.127,411.293v-5.96h-4.794V406.5H406.5v13.087l14.383-14.253h-4.794Z" transform="translate(-359.181 -359.43)"/>
    </g>
  </g>
</svg>
