<svg xmlns="http://www.w3.org/2000/svg" xmlns:xlink="http://www.w3.org/1999/xlink" width="57.013" height="88.49" viewBox="0 0 57.013 88.49">
  <defs>
    <linearGradient id="linear-gradient" x1="0.185" y1="1.086" x2="0.475" y2="0.478" gradientUnits="objectBoundingBox">
      <stop offset="0" stop-color="#fff" stop-opacity="0"/>
      <stop offset="1" stop-color="#006a42"/>
    </linearGradient>
  </defs>
  <g id="Illustration-Flowerpot" transform="translate(-198.882 -504.951)">
    <path id="Path_4803" data-name="Path 4803" d="M94.15,244l9.27-14.2L92,221.1l-22.31,9.83C77.8,236.75,85.52,239,94.15,244Z" transform="translate(132.949 349.441)" opacity="0.32" fill="url(#linear-gradient)"/>
    <path id="Path_4804" data-name="Path 4804" d="M77.88,204.75s-2.11,25,11.22,29.4,20-8.36,19.48-30.38" transform="translate(132.949 349.441)" fill="#06577a"/>
    <ellipse id="Ellipse_212" data-name="Ellipse 212" cx="15.36" cy="8.88" rx="15.36" ry="8.88" transform="matrix(0.999, -0.032, 0.032, 0.999, 210.535, 545.32)" fill="#f2696a"/>
    <path id="Path_4805" data-name="Path 4805" d="M96.54,184.39s-6.3-8.51-3.87-14.61c0,0,2-3.93,5.1-4.65,0,0,0,8.26,3,7.11s-.27-8.63-.27-8.63,3.09-4.47,6.62-4.45.25,7.71,2.66,6.38-.09-7.71,2.65-8.56a58.063,58.063,0,0,1,7.64-1.47s2.85,7.44.27,8.6-6.4,1.65-4.51,3.25,7.06-.47,7.06-.47.46,4.22-1.26,6.11-12.29-1.83-10.33,1.75,8.81,1.54,8.81,1.54-3.37,5.16-7.44,7.6S96.54,184.39,96.54,184.39Z" transform="translate(132.949 349.441)" fill="#8ccc00"/>
    <path id="Path_4806" data-name="Path 4806" d="M98.64,206.12s-4.49-4.16-3.75-7.88c0,0,.74-2.45,2.4-3.18,0,0,.86,4.69,2.46,3.72s-1.08-4.87-1.08-4.87,1.27-2.87,3.29-3.23,1,4.35,2.19,3.34-.87-4.37.59-5.14a33.537,33.537,0,0,1,4.18-1.65s2.41,3.92,1.07,4.85-3.46,1.62-2.21,2.32,4-1,4-1,.71,2.35-.06,3.6-7.17.27-5.68,2.1,5.17-.07,5.17-.07a16.35,16.35,0,0,1-3.42,5.11C105.69,205.93,98.64,206.12,98.64,206.12Z" transform="translate(132.949 349.441)" fill="#8ccc00"/>
    <path id="Path_4807" data-name="Path 4807" d="M82.34,197.35s-10.56.75-14.4-4.59c0,0-2.22-3.84-1.18-6.8,0,0,6.94,4.47,7.6,1.29s-7.43-4.41-7.43-4.41-2.11-5-.19-8,6.64,3.94,6.81,1.18S67,172,67.76,169.22A58.06,58.06,0,0,1,70.62,162s7.81,1.59,7.4,4.39-2.05,6.29.32,5.55,3.39-6.21,3.39-6.21,3.81,1.88,4.48,4.34-8.15,9.38-4.08,9.65,6-6.61,6-6.61,2.54,5.62,2.41,10.36S82.34,197.35,82.34,197.35Z" transform="translate(132.949 349.441)" fill="#8ccc00"/>
    <path id="Path_4808" data-name="Path 4808" d="M117.87,158.92q-1.64,1.48-3.29,3c.08-1.2.18-2.4.33-3.6.08-.63-.89-.87-1-.24q-.3,2.4-.42,4.82c-2.88,2.69-5.74,5.51-8.38,8.48a35.69,35.69,0,0,1-.38-6.1.5.5,0,0,0-1,0,36.711,36.711,0,0,0,.52,7,69.171,69.171,0,0,0-4.73,6.09,19.81,19.81,0,0,1-3.68-7.87c-.14-.63-1.09-.33-1,.3a20.49,20.49,0,0,0,4,8.34.51.51,0,0,0,.1.09c-4.2,6.37-7,13.45-7,21.56a.5.5,0,0,0,1,0c0-7.8,2.68-14.65,6.71-20.81a38.559,38.559,0,0,0,12.42.81c.64-.06.61-1.06,0-1a37.78,37.78,0,0,1-11.8-.71,72.529,72.529,0,0,1,6.7-8.31h.09c2.34.13,4.68.27,7,.28a8.55,8.55,0,0,0,4.33-.64c.57-.31,0-1.15-.53-.85-1.59.86-3.86.51-5.59.46-1.48,0-3-.12-4.45-.2,3.45-3.64,7.16-7,10.75-10.29C119.08,159.17,118.35,158.49,117.87,158.92Z" transform="translate(132.949 349.441)" fill="#06577a"/>
    <path id="Path_4809" data-name="Path 4809" d="M87.52,179.36a.514.514,0,0,0-1-.24,17.71,17.71,0,0,1-6.12,9.42q-1.85-4.66-3.41-9.43a29.87,29.87,0,0,0,5.6-8.46c.26-.59-.62-1.07-.88-.48A29.1,29.1,0,0,1,76.65,178q-1.74-5.46-3.1-11.05c-.15-.63-1.11-.33-1,.3q1.84,7.65,4.42,15.06a23.45,23.45,0,0,1-5.51-1.61c-.59-.25-1.07.62-.48.88a24.531,24.531,0,0,0,6.37,1.81h0c1.16,3.26,2.44,6.47,3.81,9.64a24.176,24.176,0,0,1-8.747-1.639c-.593-.231-1.083.649-.483.879A25.51,25.51,0,0,0,81.65,194q2.6,5.93,5.67,11.66c.31.57,1.15,0,.85-.53a156.06,156.06,0,0,1-7.35-15.64h0a18.81,18.81,0,0,0,6.7-10.13Z" transform="translate(132.949 349.441)" fill="#06577a"/>
    <path id="Path_4810" data-name="Path 4810" d="M106,191.71l-2.6,4.7a8.619,8.619,0,0,1-.92-1.41c-.3-.57-1.14,0-.85.53a9.53,9.53,0,0,0,1.21,1.78h0l-2.82,5.09a2,2,0,0,1-.65-1.18c-.1-.63-1.1-.6-1,0a3.15,3.15,0,0,0,1.16,2L96,209.59a.5.5,0,1,0,.88.48l4.65-8.4a7.47,7.47,0,0,0,2.42-.44c.6-.22.31-1.18-.3-1a6.651,6.651,0,0,1-1.54.34l4.71-8.51a.5.5,0,0,0-.82-.35Z" transform="translate(132.949 349.441)" fill="#06577a"/>
  </g>
</svg>
