<svg xmlns="http://www.w3.org/2000/svg" xmlns:xlink="http://www.w3.org/1999/xlink" width="257.042" height="178.689" viewBox="0 0 257.042 178.689">
  <defs>
    <linearGradient id="linear-gradient" x1="0.362" y1="0.915" x2="0.56" y2="0.299" gradientUnits="objectBoundingBox">
      <stop offset="0" stop-color="#fff" stop-opacity="0"/>
      <stop offset="1" stop-color="#d43500"/>
    </linearGradient>
    <linearGradient id="linear-gradient-2" x1="0.363" y1="0.781" x2="0.56" y2="0.318" xlink:href="#linear-gradient"/>
    <linearGradient id="linear-gradient-3" x1="0.364" y1="0.742" x2="0.612" y2="0.184" xlink:href="#linear-gradient"/>
  </defs>
  <g id="Illustration-presentation" transform="translate(-59.89 -63.756)" opacity="0.56">
    <ellipse id="Ellipse_204" data-name="Ellipse 204" cx="128.521" cy="58.239" rx="128.521" ry="58.239" transform="translate(59.89 125.966)" fill="#fff3e7"/>
    <path id="Path_4673" data-name="Path 4673" d="M191.986,192.29,142.32,211.277,164.1,220.4l33.367-15.3,6.349-4.466-9.415-5.894" transform="translate(-10.239 -15.966)" opacity="0.32" fill="url(#linear-gradient)"/>
    <path id="Path_4674" data-name="Path 4674" d="M200.594,78.24s-1.8,6.682-1.489,7.111,5.36,1.944,9.248-.254" transform="translate(-17.289 -1.799)" fill="#475ba2"/>
    <path id="Path_4675" data-name="Path 4675" d="M134.494,188.991,89.82,217.813l-25.59-17.1,39.778-25.319" transform="translate(-0.539 -13.867)" opacity="0.32" fill="url(#linear-gradient-2)"/>
    <path id="Path_4676" data-name="Path 4676" d="M301.05,141.81l7.006,36.581s-1.235,2.925-3.5,1.944L298.3,144.866" transform="translate(-29.615 -9.696)" fill="#475ba2"/>
    <path id="Path_4677" data-name="Path 4677" d="M286.15,178.921c.079.814,3.757,41.827,3.757,41.827a2.627,2.627,0,0,1-3.608,0L282.34,174.77" transform="translate(-27.633 -13.79)" fill="#475ba2"/>
    <path id="Path_4678" data-name="Path 4678" d="M254.118,162.7,238.529,193.99s-.245,1.673,2.855,1.147l16.981-33.928" transform="translate(-22.19 -12.106)" fill="#475ba2"/>
    <path id="Path_4679" data-name="Path 4679" d="M265.391,64.171l36.284,20.537a3.24,3.24,0,0,1,1.6,3.31L291.34,165.674a3.24,3.24,0,0,1-4.747,2.347l-37.2-20.309a3.24,3.24,0,0,1-1.646-3.372l12.865-77.883a3.24,3.24,0,0,1,4.782-2.286Z" transform="translate(-23.33)" fill="#475ba2"/>
    <path id="Path_4680" data-name="Path 4680" d="M262.331,65.441l36.284,20.581a3.24,3.24,0,0,1,1.6,3.31L288.28,166.944a3.24,3.24,0,0,1-4.747,2.347l-37.2-20.309a3.24,3.24,0,0,1-1.646-3.372l12.865-77.883a3.24,3.24,0,0,1,4.782-2.286Z" transform="translate(-22.95 -0.158)" fill="#68e1fd"/>
    <path id="Path_4681" data-name="Path 4681" d="M119.683,132.457l-8.337,40.286s-1.7,1.752-2.146-.412l7.006-40.531" transform="translate(-6.125 -8.452)" fill="#d87f1e"/>
    <path id="Path_4682" data-name="Path 4682" d="M89.313,152.767l-8.337,40.286s-1.7,1.752-2.146-.412l7.006-40.531" transform="translate(-2.353 -10.975)" fill="#d87f1e"/>
    <path id="Path_4683" data-name="Path 4683" d="M132.006,145c.079.175,10.79,39.174,10.79,39.174s.42,1.068-2.268,1.3l-11.3-37.755" transform="translate(-8.613 -10.092)" fill="#d87f1e"/>
    <path id="Path_4684" data-name="Path 4684" d="M100.393,160.516c-.263.455.6,41.678.6,41.678s1.1,1.892,2.251,0l.6-43.684" transform="translate(-5.025 -11.77)" fill="#d87f1e"/>
    <path id="Path_4685" data-name="Path 4685" d="M87.208,148.328A44.664,44.664,0,0,1,97.507,155a294.43,294.43,0,0,1,31.476-9c.534-.123.762.6.228.727a294.46,294.46,0,0,0-31.318,8.994.455.455,0,0,1-.517.184l-.806.289.727,4.23c.079.473-.744.683-.823.2l-.771-4.186-1.69.6a.385.385,0,1,1-.228-.727l2.829-1.007a43.982,43.982,0,0,0-9.844-6.332C86.288,148.748,86.718,148.1,87.208,148.328Z" transform="translate(-3.313 -10.214)" fill="#659ac6"/>
    <path id="Path_4686" data-name="Path 4686" d="M85.63,150.212l4.379,4.861c.333.377-.263.876-.6.534l-4.379-4.861C84.684,150.369,85.288,149.835,85.63,150.212Z" transform="translate(-3.11 -10.723)" fill="#659ac6"/>
    <path id="Path_4687" data-name="Path 4687" d="M132.98,141.15v5.561l-34.9,17.726-19.25-9.809v-4.545" transform="translate(-2.353 -9.614)" fill="#ff9b0d"/>
    <path id="Path_4688" data-name="Path 4688" d="M98.067,157.99,78.8,148.6l34.217-18.882s19.67,10.177,19.933,10.019Z" transform="translate(-2.349 -8.194)" fill="#ffc358"/>
    <path id="Path_4689" data-name="Path 4689" d="M115.85,131.21s1.463,12.576-5.193,15.011-10.22-3.9-10.317-15.011" transform="translate(-5.025 -8.379)" fill="#68e1fd"/>
    <ellipse id="Ellipse_205" data-name="Ellipse 205" cx="7.759" cy="4.484" rx="7.759" ry="4.484" transform="translate(95.315 118.347)" fill="#06577a"/>
    <path id="Path_4690" data-name="Path 4690" d="M109.2,127.732s0-17.428,8.311-24.522c0,0,4.431,2.829,3.319,7.173s-5.885,1.112-6.708,3.389,1.638,2.943,0,5.255S109.2,123.248,109.2,127.732Z" transform="translate(-6.125 -4.901)" fill="#8ccc00"/>
    <path id="Path_4691" data-name="Path 4691" d="M105.971,125.512s.683-20.2-3.5-26.2-6.936,2.242-5.053,5.912,5.176,2.759,4,5.912-3.232,4.808-.876,6.13S106.146,122.937,105.971,125.512Z" transform="translate(-4.586 -4.153)" fill="#8ccc00"/>
    <path id="Path_4692" data-name="Path 4692" d="M188.21,88.409V84.521s1.48-3.678.972-4.037-1.892,2.295-1.892,2.295-2.251-4.9-2.864-4.948-2.706,2.759-2.706,3.932,1.752,3.713,2.2,4.379a35.035,35.035,0,0,1,1.55,4.615" transform="translate(-15.134 -1.748)" fill="#fdba45"/>
    <path id="Path_4693" data-name="Path 4693" d="M200.424,87.14S194.487,98.4,193.418,98.1s-4.572-9.493-4.572-9.493a53.956,53.956,0,0,0-4.966,2.925c-.587.578,2.82,17.025,10.685,16.395s10.194-7.882,10.194-7.882" transform="translate(-15.394 -2.905)" fill="#ea8518"/>
    <path id="Path_4694" data-name="Path 4694" d="M202.986,119.781c-.639-.368-1.3-.718-1.935-1.051-2.68,4.826-4.177,10.019-5.509,15.335-.2,1.839-.377,3.687-.525,5.526-.876,11.2.955,28.2,1.244,39.41.044,1.83,1.051,1.594,3.906,0C207.313,151.37,198.879,152.868,202.986,119.781Z" transform="translate(-16.756 -6.829)" fill="#fdba45"/>
    <path id="Path_4695" data-name="Path 4695" d="M195.13,181.61s.412,6.866-.271,7.952a39.28,39.28,0,0,1-5.92,5.439c-.832.473-1.752,1.541-1.428,2.172s3.354,2.268,5.763,2.049,3.039-3.249,4.379-3.547,2.566-.271,3.074-1.638-1.752-7.812-.806-11.228S195.13,181.61,195.13,181.61Z" transform="translate(-15.845 -14.552)" fill="#fdba45"/>
    <path id="Path_4696" data-name="Path 4696" d="M194.21,195.736c-1.217.4-3.293.657-4.16-.3a10.841,10.841,0,0,1-1.112.876c-.832.473-1.752,1.541-1.428,2.172s3.354,2.268,5.763,2.049,3.039-3.249,4.379-3.547,2.566-.271,3.074-1.638c.219-.587-.07-2.119-.4-3.941a14.687,14.687,0,0,1-6.113,4.326Z" transform="translate(-15.845 -15.857)" fill="#475ba2"/>
    <path id="Path_4697" data-name="Path 4697" d="M213.2,124.895c-2.487-1.428-5.4-2.715-5.4-2.715-1.27,3.223-.876,7.444-1.322,10.807-.482,3.906-.937,7.812-1.244,11.727-.876,11.2.955,28.2,1.244,39.41.044,1.83,1.051,1.594,3.906,0C217.523,156.449,209.1,157.982,213.2,124.895Z" transform="translate(-18.024 -7.257)" fill="#fdba45"/>
    <path id="Path_4698" data-name="Path 4698" d="M224.355,97.975a35.829,35.829,0,0,0-4.335,6.008s-1.874-5.824-2.881-9.38-9.2-9.423-9.2-9.423a47.521,47.521,0,0,0-5.885,1.752c-1.445.561-2.049,2.435-2.575,3.74-.876,2.207-2.566,4.475-2.513,7.006a39.3,39.3,0,0,0,.6,5.43c.438,2.741.981,5.465,1.594,8.18,0,0,7.777.613,11.157.131l.718-7.129s4.449,9.31,7.7,10.177c2.75.736,7.584-7.724,9.169-11.07a11.315,11.315,0,0,0-3.556-5.421Z" transform="translate(-17.028 -2.661)" fill="#ff9a22"/>
    <line id="Line_316" data-name="Line 316" x1="11.902" y1="6.017" transform="translate(179.163 99.01)" fill="#ff9a22"/>
    <line id="Line_317" data-name="Line 317" y1="1.051" x2="1.086" transform="translate(158.766 100.63)" fill="#fff7f0"/>
    <path id="Path_4699" data-name="Path 4699" d="M200.9,74.417s-.876,8.8,2.706,10.054,5.824-3.083,5.824-3.083,1.217-5.894.14-7.234S203.007,72.114,200.9,74.417Z" transform="translate(-17.504 -1.138)" fill="#fdba45"/>
    <path id="Path_4700" data-name="Path 4700" d="M203.16,74.638a6.192,6.192,0,0,1-2.627,1.279c-1.226.114-1.9-1.629-2.076-2.627s.736-4.134,6.358-4.3,8.933,4.58,8.933,7.444-.342,9.966-.342,9.966a53.65,53.65,0,0,1-7.33-.8s1.874-6.455,1.48-8.46S203.16,74.638,203.16,74.638Z" transform="translate(-17.21 -0.65)" fill="#475ba2"/>
    <path id="Path_4701" data-name="Path 4701" d="M201.533,177.184c3.17.35,7.225,1.559,10.29.7.429-8,2.146-48.641,2.006-51.093-.315-5.675-4.309-12.436-4.309-12.436l-11.1-1.086s-3.932,7.462-4.379,12.138c-.193,1.883-2.014,41.407-2,48.343a22.77,22.77,0,0,0,9.493,3.433Z" transform="translate(-16.416 -6.151)" fill="#e5c6b4"/>
    <path id="Path_4702" data-name="Path 4702" d="M205.35,186.97s.412,6.866-.271,7.952a39.279,39.279,0,0,1-5.92,5.439c-.832.473-1.752,1.541-1.428,2.172s3.354,2.268,5.763,2.049,3.039-3.249,4.379-3.547,2.566-.271,3.074-1.638-1.752-7.812-.806-11.228S205.35,186.97,205.35,186.97Z" transform="translate(-17.114 -15.218)" fill="#fdba45"/>
    <path id="Path_4703" data-name="Path 4703" d="M204.43,201.1c-1.217.4-3.293.657-4.16-.3a10.841,10.841,0,0,1-1.112.876c-.832.473-1.752,1.541-1.428,2.172s3.354,2.268,5.763,2.049,3.039-3.249,4.379-3.547,2.566-.271,3.074-1.638c.219-.587-.07-2.119-.4-3.941A14.687,14.687,0,0,1,204.43,201.1Z" transform="translate(-17.114 -16.523)" fill="#475ba2"/>
    <path id="Path_4704" data-name="Path 4704" d="M228.85,99.574s2.811-4.44,2.881-4.72,1.664-3.976,2.627-3.775,3.179-.175,3.442.806-2.382.963-2.382.963.438,2.96-.5,3.757-4.773,4.913-4.773,4.913" transform="translate(-20.988 -3.393)" fill="#fdba45"/>
    <path id="Path_4705" data-name="Path 4705" d="M239.992,79.929l-12.182,25.9,1.244.245L243.7,74.149l-.955-.5Z" transform="translate(-20.859 -1.229)" fill="#1b6333"/>
    <path id="Path_4706" data-name="Path 4706" d="M254.26,136.693l6.06-33.963,6.227,3.3-5.693,34.409Z" transform="translate(-24.145 -4.841)" fill="#fff"/>
    <path id="Path_4707" data-name="Path 4707" d="M265.1,144.679l4.055-22.709,6.314,3.652-3.783,22.814Z" transform="translate(-25.491 -7.231)" fill="#fff"/>
    <path id="Path_4708" data-name="Path 4708" d="M276.85,153.166l2.242-12.576,5.78,3.459-1.436,12.874Z" transform="translate(-26.951 -9.544)" fill="#fff"/>
    <ellipse id="Ellipse_206" data-name="Ellipse 206" cx="6.577" cy="8.443" rx="6.577" ry="8.443" transform="translate(255.531 92.091)" fill="#fff"/>
    <line id="Line_318" data-name="Line 318" x2="13.443" y2="7.392" transform="translate(239.609 79.734)" fill="#fff" stroke="#f2f2f2" stroke-miterlimit="10" stroke-width="1"/>
    <line id="Line_319" data-name="Line 319" x2="13.443" y2="7.4" transform="translate(238.733 83.43)" fill="#fff" stroke="#f2f2f2" stroke-miterlimit="10" stroke-width="1"/>
    <line id="Line_320" data-name="Line 320" x2="13.443" y2="7.4" transform="translate(237.875 87.125)" fill="#fff" stroke="#f2f2f2" stroke-miterlimit="10" stroke-width="1"/>
    <path id="Path_4709" data-name="Path 4709" d="M279.3,221.843l-41.7,24.11L196.96,222.6l39.261-24.68,59.247-14.337Z" transform="translate(-17.027 -14.884)" opacity="0.32" fill="url(#linear-gradient-3)"/>
  </g>
</svg>
