<svg xmlns="http://www.w3.org/2000/svg" xmlns:xlink="http://www.w3.org/1999/xlink" width="219.062" height="174.155" viewBox="0 0 219.062 174.155">
  <defs>
    <style>
      .cls-1, .cls-12 {
        fill: #f18bab;
      }

      .cls-1, .cls-13, .cls-14, .cls-15, .cls-16, .cls-25, .cls-26, .cls-7 {
        opacity: 0.1;
      }

      .cls-16, .cls-2 {
        fill: #6c63ff;
      }

      .cls-13, .cls-3 {
        fill: #f082a5;
      }

      .cls-4 {
        fill: #444053;
      }

      .cls-5 {
        fill: #d5d6db;
      }

      .cls-6 {
        fill: #fb98b4;
      }

      .cls-15, .cls-8 {
        fill: #fe7fa7;
      }

      .cls-11, .cls-22, .cls-9 {
        fill: #fff;
      }

      .cls-9 {
        opacity: 0.3;
      }

      .cls-10 {
        fill: #3a3768;
      }

      .cls-11 {
        opacity: 0.45;
      }

      .cls-14 {
        fill: #feefef;
      }

      .cls-17 {
        fill: url(#linear-gradient);
      }

      .cls-18 {
        fill: #ffd4d5;
      }

      .cls-19 {
        fill: #3e373a;
      }

      .cls-20 {
        fill: #4b4b5b;
      }

      .cls-21 {
        opacity: 0.02;
      }

      .cls-23 {
        fill: #e7c7ca;
      }

      .cls-24 {
        fill: #c3c7d9;
      }

      .cls-26 {
        fill: none;
        stroke: #000;
        stroke-miterlimit: 10;
      }

      .cls-27 {
        fill: #ff75a1;
      }

      .cls-28 {
        fill: #ffd037;
      }

      .cls-29 {
        fill: #65617d;
      }

      .cls-30 {
        fill: #9d9cb5;
      }
    </style>
    <linearGradient id="linear-gradient" x1="0.5" y1="1" x2="0.5" gradientUnits="objectBoundingBox">
      <stop offset="0" stop-color="gray" stop-opacity="0.251"/>
      <stop offset="0.54" stop-color="gray" stop-opacity="0.122"/>
      <stop offset="1" stop-color="gray" stop-opacity="0.102"/>
    </linearGradient>
  </defs>
  <g id="healthManual_top_Illustration" transform="translate(0 -0.008)">
    <path id="路径_3679" data-name="路径 3679" class="cls-1" d="M227.508,93.3c-13.861-.482-27.065-4.956-39.671-9.852s-25.092-10.321-38.621-12.914c-8.7-1.668-18.654-1.9-25.664,2.761-6.749,4.5-8.929,12.24-10.1,19.432-.882,5.41-1.4,11.1,1.017,16.168,1.677,3.517,4.656,6.472,6.714,9.852,7.168,11.719,2.1,26.172-5.665,37.615-3.641,5.369-7.871,10.494-10.681,16.2s-4.112,12.261-1.653,18.091c2.439,5.783,8.25,10.117,14.542,13.169,12.784,6.2,27.842,7.974,42.536,8.978,32.517,2.225,65.206,1.261,97.809.3,12.066-.358,24.184-.72,36.053-2.585,6.592-1.037,13.4-2.679,18.183-6.65,6.074-5.039,7.579-13.574,3.51-19.892-6.83-10.6-25.7-13.231-30.481-24.608-2.626-6.26.073-13.234,3.889-19.042,8.19-12.456,21.916-23.385,22.64-37.623.5-9.781-6.1-19.573-16.307-24.2-10.694-4.868-25.527-4.251-33.413,3.778C254.023,90.547,239.746,93.721,227.508,93.3Z" transform="translate(-99.036 -63.86)"/>
    <path id="路径_3680" data-name="路径 3680" class="cls-2" d="M139.75,460.708l-73.306-.358L59.16,443.266l25.756-1.87-4.489-18.731,50.943-6.6L82.588,399.1,86.9,398.08l78.44,12.8-4.32,29.232-6.175,16.065Z" transform="translate(-46.49 -312.817)"/>
    <path id="路径_3681" data-name="路径 3681" class="cls-2" d="M187,698.583s4.5-.72,7.2,2.459c0,0-1.979,1.559-6.237-.6Z" transform="translate(-165.921 -558.206)"/>
    <path id="路径_3682" data-name="路径 3682" class="cls-2" d="M178.02,698.51s-2.87,3.532-1.456,7.464c0,0,2.339-.936,2.594-5.7Z" transform="translate(-157.413 -558.203)"/>
    <path id="路径_3683" data-name="路径 3683" class="cls-2" d="M172.76,667.209s1.8-3.3,9,1.319a4.039,4.039,0,0,1-4.138,2.039C174.439,670.388,173.6,668.948,172.76,667.209Z" transform="translate(-154.731 -532.709)"/>
    <path id="路径_3684" data-name="路径 3684" class="cls-2" d="M155.565,670.277s-3.733-.428-4.095,8.117a4.041,4.041,0,0,0,4.048-2.212C157.2,673.479,156.509,671.962,155.565,670.277Z" transform="translate(-138.001 -536.014)"/>
    <path id="路径_3685" data-name="路径 3685" class="cls-3" d="M160.44,626.847s2.1-5.817,9.715-1.679c0,0-1.739,5.337-8.935,3.658Z" transform="translate(-145.05 -499.401)"/>
    <path id="路径_3686" data-name="路径 3686" class="cls-3" d="M149.52,587.793s3.958-5.877,10.974-.428c0,0-2.459,5.517-10.374,2.519Z" transform="translate(-136.468 -469.043)"/>
    <path id="路径_3687" data-name="路径 3687" class="cls-3" d="M145.6,550.415s4.618-5.4,11.565,0c0,0-4.378,4.737-11.565,1.379Z" transform="translate(-133.388 -439.94)"/>
    <path id="路径_3688" data-name="路径 3688" class="cls-3" d="M142.24,512.163s4.677-5.637,11.334-.3c0,0-5.277,4.977-11.334,1.619Z" transform="translate(-130.748 -409.726)"/>
    <path id="路径_3689" data-name="路径 3689" class="cls-3" d="M144.2,473.517s4.926-7.256,11.154-2.339c0,0-5.277,6.237-11.154,3.718Z" transform="translate(-132.288 -378.216)"/>
    <path id="路径_3690" data-name="路径 3690" class="cls-3" d="M149.52,435.652s5.217-7.2,11.274-1.679c0,0-6.177,6.237-11.274,3Z" transform="translate(-136.468 -348.687)"/>
    <path id="路径_3691" data-name="路径 3691" class="cls-3" d="M156.65,397.4s6.177-6.763,11.565-4.069c0,0-6.436,7.183-11.835,5.864Z" transform="translate(-141.859 -317.888)"/>
    <path id="路径_3692" data-name="路径 3692" class="cls-3" d="M165.865,359.362s7.128-8.284,11.274-5.517c0,0-5.251,6.425-11.779,7.068Z" transform="translate(-148.916 -286.91)"/>
    <path id="路径_3693" data-name="路径 3693" class="cls-3" d="M179.2,323.792s6.239-6.763,10.8-5.084c0,0-5.337,7.016-11.634,7.2Z" transform="translate(-159.132 -259.532)"/>
    <path id="路径_3694" data-name="路径 3694" class="cls-3" d="M194.34,287.574s6.9-6.477,9.895-5.337c0,0-4.977,7.2-10.195,6.776Z" transform="translate(-171.454 -230.978)"/>
    <path id="路径_3695" data-name="路径 3695" class="cls-3" d="M208.32,248.3s5.937-7.738,9.177-7.138c0,0-3.6,6.9-9.177,7.924Z" transform="translate(-182.675 -198.777)"/>
    <path id="路径_3696" data-name="路径 3696" class="cls-3" d="M221.506,208.347s5.247-5.93,8.083-5.918c0,0-4.142,7.924-8.3,7.852Z" transform="translate(-192.867 -168.369)"/>
    <path id="路径_3697" data-name="路径 3697" class="cls-3" d="M228.215,155.073l5.069-12.353s.253,11.167-5.714,14.645Z" transform="translate(-197.802 -121.447)"/>
    <path id="路径_3698" data-name="路径 3698" class="cls-3" d="M240.064,95.856s.84-10.317.3-11.156c0,0,3.624,8.578-.334,15.714Z" transform="translate(-207.594 -75.853)"/>
    <path id="路径_3699" data-name="路径 3699" class="cls-3" d="M127.749,635.4s-5.256-3.258-8.659,4.712c0,0,4.677,3.106,9.278-2.679Z" transform="translate(-112.556 -508.093)"/>
    <path id="路径_3700" data-name="路径 3700" class="cls-3" d="M113.6,594.46s-6.447-2.94-9.573,5.38c0,0,4.979,3.427,10.16-3.277Z" transform="translate(-100.721 -476.041)"/>
    <path id="路径_3701" data-name="路径 3701" class="cls-3" d="M101.765,552.725s-4.618-5.4-11.565,0c0,0,4.378,4.738,11.565,1.379Z" transform="translate(-89.853 -441.756)"/>
    <path id="路径_3702" data-name="路径 3702" class="cls-3" d="M99.914,512.163s-4.677-5.637-11.334-.3c0,0,5.277,4.977,11.334,1.619Z" transform="translate(-88.58 -409.726)"/>
    <path id="路径_3703" data-name="路径 3703" class="cls-3" d="M105.993,469.129S102.712,461,95.58,464.5c0,0,3.855,7.207,10.122,5.982Z" transform="translate(-94.081 -373.622)"/>
    <path id="路径_3704" data-name="路径 3704" class="cls-3" d="M112.944,429.264s-3.262-8.269-10.494-4.435c0,0,4.429,7.579,10.173,5.712Z" transform="translate(-99.479 -342.339)"/>
    <path id="路径_3705" data-name="路径 3705" class="cls-3" d="M134.172,378.608s-1.285-9.066-7.282-9.878c0,0,1.272,9.561,6.474,11.512Z" transform="translate(-118.685 -299.052)"/>
    <path id="路径_3706" data-name="路径 3706" class="cls-3" d="M148.4,340.284s-.5-10.923-5.459-11.3c0,0,.167,8.291,4.9,12.85Z" transform="translate(-131.298 -267.816)"/>
    <path id="路径_3707" data-name="路径 3707" class="cls-3" d="M161.881,304.6s-1.478-9.083-6.211-10.192c0,0,.587,8.8,5.742,12.422Z" transform="translate(-141.301 -240.649)"/>
    <path id="路径_3708" data-name="路径 3708" class="cls-3" d="M185.76,268.182s-.049-9.462-2.941-10.852c0,0-1.793,8.567,2.1,12.06Z" transform="translate(-162.313 -211.511)"/>
    <path id="路径_3709" data-name="路径 3709" class="cls-3" d="M196.445,233.325s-.4-9.743-3.4-11.115c0,0-1.024,7.71,2.951,11.754Z" transform="translate(-170.579 -183.913)"/>
    <path id="路径_3710" data-name="路径 3710" class="cls-3" d="M213.783,197.793s-.017-7.924-2.155-9.783c0,0-2.125,8.68,1.039,11.377Z" transform="translate(-184.726 -157.037)"/>
    <path id="路径_3711" data-name="路径 3711" class="cls-3" d="M218.864,150.189,216.785,137s-2.825,10.807,2.178,15.57Z" transform="translate(-188.702 -116.952)"/>
    <path id="路径_3712" data-name="路径 3712" class="cls-3" d="M212.112,101.222s-5.337-8.867-5.228-9.852c0,0,.568,9.293,7.282,13.921Z" transform="translate(-181.545 -81.095)"/>
    <path id="路径_3713" data-name="路径 3713" class="cls-3" d="M207.376,75.193S202.339,62.6,200.06,61.58A15.962,15.962,0,0,1,207.8,74.833Z" transform="translate(-176.184 -57.685)"/>
    <path id="路径_3714" data-name="路径 3714" class="cls-4" d="M219.9,146.665l-.345-.1c4.251-13.863,5.311-22.7,2.988-24.919l.246-.261C225.259,123.719,224.259,132.461,219.9,146.665Z" transform="translate(-191.508 -104.677)"/>
    <path id="路径_3715" data-name="路径 3715" class="cls-4" d="M164.64,268.183l-.51-.182c.452-1.27.938-2.559,1.448-3.829,4.438-11.06,8.216-21.348,10.638-29.247l.443-.214c-2.427,7.914-6.138,18.6-10.58,29.671C165.571,265.628,165.087,266.91,164.64,268.183Z" transform="translate(-147.949 -193.735)"/>
    <path id="路径_3716" data-name="路径 3716" class="cls-4" d="M156.282,462.888c-.069-.075-6.958-7.834-11.762-21.081a78,78,0,0,1-4.641-24.154c-.33-10.308,1.833-21.818,5.538-32.273l.4.471c-8.318,23.467-5.014,43.575-.63,55.684a69.4,69.4,0,0,0,11.632,20.877Z" transform="translate(-128.866 -312.136)"/>
    <path id="路径_3717" data-name="路径 3717" class="cls-5" d="M553.469,670.36s-4.855,5.926-1,14.885L513.7,702.057l-3.72.78-1.713-7.5,1.146-9.46v-5.17Z" transform="translate(-418.385 -536.082)"/>
    <path id="路径_3718" data-name="路径 3718" class="cls-2" d="M59.16,573.171l53.654-9.781,71.094,11.325-44.158,15.9Z" transform="translate(-46.49 -442.723)"/>
    <path id="路径_3719" data-name="路径 3719" class="cls-3" d="M59.16,573.171l53.654-9.781,71.094,11.325-44.158,15.9Z" transform="translate(-46.49 -442.723)"/>
    <path id="路径_3720" data-name="路径 3720" class="cls-6" d="M140.329,652.47s-5.018,9.507.765,18.288L220.658,688s-4.939-7.573.255-18.085Z" transform="translate(-127.659 -522.024)"/>
    <path id="路径_3722" data-name="路径 3722" class="cls-7" d="M154.133,667.86s-2.868,6.956,0,11.458" transform="translate(-139.092 -534.118)"/>
    <path id="路径_3723" data-name="路径 3723" class="cls-8" d="M230.874,748.814l44.419-18.954s2.484.536.878,2.356-44.44,18.419-44.44,18.419L151.31,731.573Z" transform="translate(-137.875 -582.839)"/>
    <path id="路径_3725" data-name="路径 3725" class="cls-7" d="M498.825,742.86s-4.283,5.14,0,12.85" transform="translate(-409.467 -593.055)"/>
    <rect id="矩形_1151" data-name="矩形 1151" class="cls-7" width="20.254" height="0.214" transform="translate(90.883 156.128) rotate(-18.45)"/>
    <rect id="矩形_1152" data-name="矩形 1152" class="cls-7" width="24.679" height="0.214" transform="translate(90.876 157.852) rotate(-20.82)"/>
    <rect id="矩形_1153" data-name="矩形 1153" class="cls-7" width="28.605" height="0.214" transform="translate(91.005 159.885) rotate(-22.26)"/>
    <rect id="矩形_1154" data-name="矩形 1154" class="cls-7" width="32.927" height="0.214" transform="translate(91.314 161.677) rotate(-24.31)"/>
    <rect id="矩形_1155" data-name="矩形 1155" class="cls-7" width="36.013" height="0.214" transform="matrix(0.916, -0.401, 0.401, 0.916, 91.552, 162.549)"/>
    <rect id="矩形_1156" data-name="矩形 1156" class="cls-7" width="43.095" height="0.214" transform="translate(92.05 164.014) rotate(-23.36)"/>
    <path id="路径_3726" data-name="路径 3726" class="cls-9" d="M152.23,584.864l37.694-7.924,22.963,4.39L182,591.289Z" transform="translate(-119.627 -453.371)"/>
    <path id="路径_3727" data-name="路径 3727" class="cls-8" d="M568.164,659.69s1.949.786.805,2S524,675.588,524,675.588Z" transform="translate(-430.746 -527.697)"/>
    <path id="路径_3728" data-name="路径 3728" class="cls-5" d="M652.766,574.18s-4.853,5.924-1,14.885L613,605.877l-3.72.784-1.713-7.5,1.163-9.458v-5.176Z" transform="translate(-496.418 -460.501)"/>
    <path id="路径_3729" data-name="路径 3729" class="cls-10" d="M158.46,476.989l53.652-9.779,71.1,11.325-44.158,15.9Z" transform="translate(-124.523 -367.142)"/>
    <path id="路径_3730" data-name="路径 3730" class="cls-10" d="M239.583,556.29s-5.02,9.507.762,18.288l79.564,17.241s-4.937-7.579.263-18.087Z" transform="translate(-205.654 -446.443)"/>
    <path id="路径_3731" data-name="路径 3731" class="cls-7" d="M239.583,556.29s-5.02,9.507.762,18.288l79.564,17.241s-4.937-7.579.263-18.087l-25.161-5.446Z" transform="translate(-205.654 -446.443)"/>
    <path id="路径_3732" data-name="路径 3732" class="cls-7" d="M253.427,571.68s-2.866,6.954,0,11.458" transform="translate(-217.121 -458.536)"/>
    <path id="路径_3733" data-name="路径 3733" class="cls-10" d="M330.164,652.634l44.421-18.954s2.482.535.876,2.356-44.44,18.419-44.44,18.419L250.6,635.393Z" transform="translate(-215.9 -507.258)"/>
    <path id="路径_3734" data-name="路径 3734" class="cls-7" d="M330.164,652.634l44.421-18.954s2.482.535.876,2.356-44.44,18.419-44.44,18.419L250.6,635.393Z" transform="translate(-215.9 -507.258)"/>
    <path id="路径_3735" data-name="路径 3735" class="cls-7" d="M598.115,646.68s-4.283,5.14,0,12.85" transform="translate(-487.492 -517.474)"/>
    <rect id="矩形_1157" data-name="矩形 1157" class="cls-7" width="20.254" height="0.214" transform="translate(112.15 135.531) rotate(-18.45)"/>
    <rect id="矩形_1158" data-name="矩形 1158" class="cls-7" width="24.679" height="0.214" transform="translate(112.145 137.255) rotate(-20.82)"/>
    <rect id="矩形_1159" data-name="矩形 1159" class="cls-7" width="28.605" height="0.214" transform="translate(112.271 139.284) rotate(-22.26)"/>
    <rect id="矩形_1160" data-name="矩形 1160" class="cls-7" width="32.927" height="0.214" transform="translate(112.582 141.077) rotate(-24.31)"/>
    <rect id="矩形_1161" data-name="矩形 1161" class="cls-7" width="36.013" height="0.214" transform="matrix(0.916, -0.401, 0.401, 0.916, 112.817, 141.946)"/>
    <rect id="矩形_1162" data-name="矩形 1162" class="cls-7" width="43.095" height="0.214" transform="translate(113.317 143.411) rotate(-23.36)"/>
    <path id="路径_3736" data-name="路径 3736" class="cls-11" d="M251.53,488.684l37.694-7.924,22.963,4.391L281.3,495.109Z" transform="translate(-197.66 -377.79)"/>
    <path id="路径_3737" data-name="路径 3737" class="cls-10" d="M667.488,563.51s1.947.786.805,2-44.963,13.9-44.963,13.9Z" transform="translate(-508.802 -452.116)"/>
    <path id="路径_3738" data-name="路径 3738" class="cls-5" d="M662.19,464.15s-4.855,10.638-1,19.6l-38.765,12.1-3.712.786-1.713-7.5,1.146-9.46V474.5Z" transform="translate(-503.828 -374.036)"/>
    <path id="路径_3739" data-name="路径 3739" class="cls-3" d="M167.89,366.961l53.654-9.781,71.1,11.325-44.16,15.9Z" transform="translate(-131.933 -280.677)"/>
    <path id="路径_3740" data-name="路径 3740" class="cls-12" d="M249.037,446.26s-5.027,9.507.756,18.288l79.564,17.241s-4.939-7.579.261-18.085Z" transform="translate(-213.08 -359.978)"/>
    <path id="路径_3741" data-name="路径 3741" class="cls-13" d="M326.347,481.134s-4.939-7.579.261-18.085Z" transform="translate(-210.07 -359.323)"/>
    <path id="路径_3742" data-name="路径 3742" class="cls-7" d="M262.863,461.65s-2.868,6.956,0,11.458" transform="translate(-224.536 -372.072)"/>
    <path id="路径_3743" data-name="路径 3743" class="cls-8" d="M339.6,548.891l44.419-14.242s2.484.535.878,2.356-44.44,13.707-44.44,13.707L260.04,531.65Z" transform="translate(-223.318 -427.08)"/>
    <path id="路径_3744" data-name="路径 3744" class="cls-14" d="M384.9,537c-1.606,1.82-44.44,13.707-44.44,13.707L260.04,531.65S386.508,535.184,384.9,537Z" transform="translate(-223.318 -427.08)"/>
    <path id="路径_3745" data-name="路径 3745" class="cls-7" d="M607.555,536.65s-4.283,5.14,0,12.85" transform="translate(-494.91 -431.009)"/>
    <rect id="矩形_1163" data-name="矩形 1163" class="cls-7" width="20.254" height="0.214" transform="translate(114.172 111.966) rotate(-18.45)"/>
    <rect id="矩形_1164" data-name="矩形 1164" class="cls-7" width="24.679" height="0.214" transform="translate(114.166 113.69) rotate(-20.82)"/>
    <rect id="矩形_1165" data-name="矩形 1165" class="cls-7" width="28.605" height="0.214" transform="translate(114.29 115.721) rotate(-22.26)"/>
    <rect id="矩形_1166" data-name="矩形 1166" class="cls-7" width="32.927" height="0.214" transform="translate(114.604 117.512) rotate(-24.31)"/>
    <rect id="矩形_1167" data-name="矩形 1167" class="cls-7" width="36.013" height="0.214" transform="matrix(0.916, -0.401, 0.401, 0.916, 114.84, 118.383)"/>
    <rect id="矩形_1168" data-name="矩形 1168" class="cls-7" width="43.095" height="0.214" transform="translate(115.339 119.849) rotate(-23.36)"/>
    <path id="路径_3746" data-name="路径 3746" class="cls-9" d="M260.96,378.654l37.694-7.924,22.963,4.391-30.888,9.959Z" transform="translate(-205.07 -291.325)"/>
    <path id="路径_3747" data-name="路径 3747" class="cls-3" d="M676.918,453.48s1.949.786.805,2-44.963,13.9-44.963,13.9Z" transform="translate(-516.213 -365.651)"/>
    <path id="路径_3748" data-name="路径 3748" class="cls-12" d="M372.344,149.881s-8.138-.49-7.188,5.219a1.393,1.393,0,0,0,.724,1.467s.015-.428.835-.281a3.652,3.652,0,0,0,.887.043,1.846,1.846,0,0,0,1.082-.445h0s2.289-.947,3.18-4.69c0,0,.66-.816.643-1.026l-1.379.587a2.471,2.471,0,0,1,.1,1.816s-.045-1.78-.311-1.739c-.054,0-.713.345-.713.345a4.064,4.064,0,0,1,.2,2.983s.231-2.129-.45-2.859l-.968.565a4.273,4.273,0,0,1,.3,3.24s.165-2.234-.508-3.1l-.878.685s.889,1.758.347,2.966c0,0-.071-2.6-.535-2.8a5.292,5.292,0,0,0-.884.955s.608,1.285.229,1.951c0,0-.229-1.733-.428-1.741a5.765,5.765,0,0,0-.844,1.928,4.168,4.168,0,0,1,.658-2.043,2.294,2.294,0,0,0-1.169.606s.118-.812,1.36-.882a5.265,5.265,0,0,1,.8-.923,5.014,5.014,0,0,0-1.983.227,2.247,2.247,0,0,1,2.208-.428l.857-.707a7.39,7.39,0,0,0-2.313.024,2.818,2.818,0,0,1,2.546-.184l.944-.563a8.582,8.582,0,0,0-2.21-.191,3.393,3.393,0,0,1,2.487.039l.673-.3s-1.013-.2-1.311-.231-.313-.114-.313-.114a3.536,3.536,0,0,1,1.906.214A8.5,8.5,0,0,0,372.344,149.881Z" transform="translate(-305.861 -127.066)"/>
    <path id="路径_3749" data-name="路径 3749" class="cls-15" d="M906.944,259.461s-8.138-.49-7.187,5.219a1.393,1.393,0,0,0,.724,1.467s.015-.428.835-.281a3.772,3.772,0,0,0,.887.043,1.84,1.84,0,0,0,1.071-.445h0s2.292-.947,3.18-4.69c0,0,.66-.816.642-1.026l-1.375.587a2.471,2.471,0,0,1,.1,1.816s-.045-1.78-.308-1.739c-.054,0-.715.345-.715.345a4.072,4.072,0,0,1,.2,2.983s.231-2.129-.452-2.859l-.968.565a4.272,4.272,0,0,1,.3,3.24s.165-2.234-.508-3.1l-.876.685s.887,1.758.345,2.966c0,0-.071-2.6-.535-2.8a5.37,5.37,0,0,0-.885.955s.608,1.285.231,1.951c0,0-.231-1.733-.428-1.741a5.764,5.764,0,0,0-.844,1.928,4.154,4.154,0,0,1,.66-2.043,2.3,2.3,0,0,0-1.171.606s.12-.812,1.36-.882a5.348,5.348,0,0,1,.8-.925,5.034,5.034,0,0,0-1.983.229,2.247,2.247,0,0,1,2.208-.428l.857-.707a7.391,7.391,0,0,0-2.313.024,2.816,2.816,0,0,1,2.547-.184l.942-.563a8.583,8.583,0,0,0-2.21-.191,3.392,3.392,0,0,1,2.486.039l.675-.3s-1.015-.2-1.313-.231-.313-.113-.313-.113a3.51,3.51,0,0,1,1.906.214A8.64,8.64,0,0,0,906.944,259.461Z" transform="translate(-725.966 -213.178)"/>
    <path id="路径_3750" data-name="路径 3750" class="cls-15" d="M430.013,297.255s-3.547-7.353-8.061-3.729a1.391,1.391,0,0,0-.927,1.347s.375-.195.642.593a3.8,3.8,0,0,0,.394.792,1.848,1.848,0,0,0,.919.728h0s1.943,1.538,5.646.488a3.664,3.664,0,0,0,1.2.054l-1.182-.914a2.486,2.486,0,0,1-1.538.972s1.533-.906,1.369-1.116c-.034-.043-.642-.456-.642-.456a4.067,4.067,0,0,1-2.508,1.628s1.97-.835,2.275-1.788l-.964-.57a4.274,4.274,0,0,1-2.681,1.846s2.03-.944,2.461-1.955l-1.024-.428s-1.1,1.632-2.422,1.75c0,0,2.236-1.33,2.18-1.833a5.426,5.426,0,0,0-1.266-.306s-.818,1.154-1.589,1.154c0,0,1.4-1.047,1.313-1.216a5.649,5.649,0,0,0-2.1.214,4.17,4.17,0,0,1,2.105-.428,2.307,2.307,0,0,0-1.1-.726s.767-.291,1.433.756a5.284,5.284,0,0,1,1.2.248,5.028,5.028,0,0,0-1.165-1.617s.989.2,1.441,1.713l1.039.411a7.144,7.144,0,0,0-1.148-2.007s.977.362,1.4,2.142l.951.548a8.474,8.474,0,0,0-.91-2.022,3.394,3.394,0,0,1,1.178,2.189l.593.441s-.321-.983-.428-1.257-.054-.33-.054-.33a3.514,3.514,0,0,1,.745,1.767A7.994,7.994,0,0,0,430.013,297.255Z" transform="translate(-349.823 -239.166)"/>
    <path id="路径_3751" data-name="路径 3751" class="cls-15" d="M813.793,193.635s-3.545-7.352-8.061-3.729a1.394,1.394,0,0,0-.927,1.347s.377-.193.643.593a3.714,3.714,0,0,0,.4.795,1.837,1.837,0,0,0,.917.726h0s1.945,1.538,5.646.49a3.681,3.681,0,0,0,1.206.051l-1.176-.917a2.485,2.485,0,0,1-1.536.974s1.531-.908,1.366-1.118c-.034-.043-.643-.456-.643-.456a4.06,4.06,0,0,1-2.508,1.628s1.972-.835,2.277-1.786l-.979-.565a4.275,4.275,0,0,1-2.681,1.846s2.03-.947,2.463-1.958l-1.026-.428s-1.1,1.634-2.42,1.75c0,0,2.234-1.33,2.178-1.831a5.3,5.3,0,0,0-1.264-.306s-.818,1.152-1.591,1.152c0,0,1.4-1.047,1.315-1.217a5.663,5.663,0,0,0-2.1.214,4.168,4.168,0,0,1,2.105-.428,2.294,2.294,0,0,0-1.1-.726s.767-.291,1.433.756a5.3,5.3,0,0,1,1.2.251,5.011,5.011,0,0,0-1.167-1.619s.99.2,1.441,1.724l1.041.411a7.145,7.145,0,0,0-1.148-2.009s.977.362,1.4,2.142l.953.548a8.552,8.552,0,0,0-.912-2.022,3.383,3.383,0,0,1,1.178,2.189l.593.441s-.319-.983-.428-1.257-.054-.328-.054-.328a3.524,3.524,0,0,1,.743,1.767A8.225,8.225,0,0,0,813.793,193.635Z" transform="translate(-651.409 -157.739)"/>
    <path id="路径_3752" data-name="路径 3752" class="cls-15" d="M866.66,363.438s-3.544-7.355-8.068-3.731a1.394,1.394,0,0,0-.927,1.347s.377-.193.643.593a3.707,3.707,0,0,0,.394.795,1.838,1.838,0,0,0,.917.726h0s1.945,1.54,5.648.49c0,0,1.032.178,1.2.051l-1.182-.915a2.485,2.485,0,0,1-1.538.974s1.531-.908,1.366-1.118c-.034-.043-.643-.456-.643-.456a4.068,4.068,0,0,1-2.508,1.63s1.973-.837,2.277-1.788l-.966-.57a4.266,4.266,0,0,1-2.681,1.846s2.03-.947,2.463-1.958l-1.026-.428s-1.1,1.632-2.42,1.75c0,0,2.236-1.33,2.18-1.833a5.318,5.318,0,0,0-1.266-.306s-.818,1.152-1.591,1.152c0,0,1.4-1.047,1.315-1.216a5.663,5.663,0,0,0-2.1.214,4.182,4.182,0,0,1,2.108-.428,2.29,2.29,0,0,0-1.1-.726s.767-.293,1.433.756a5.285,5.285,0,0,1,1.2.248,5.052,5.052,0,0,0-1.165-1.619s.989.2,1.441,1.724l1.039.411a7.114,7.114,0,0,0-1.148-2.007s.977.36,1.4,2.142l.953.546a8.552,8.552,0,0,0-.912-2.022,3.391,3.391,0,0,1,1.18,2.191l.593.428s-.321-.983-.428-1.257-.053-.328-.053-.328a3.5,3.5,0,0,1,.743,1.767A8.669,8.669,0,0,0,866.66,363.438Z" transform="translate(-692.948 -291.174)"/>
    <ellipse id="椭圆_126" data-name="椭圆 126" class="cls-16" cx="4.924" cy="0.55" rx="4.924" ry="0.55" transform="translate(38.328 166.849)"/>
    <ellipse id="椭圆_127" data-name="椭圆 127" class="cls-16" cx="4.924" cy="0.55" rx="4.924" ry="0.55" transform="translate(6.05 157.494)"/>
    <ellipse id="椭圆_128" data-name="椭圆 128" class="cls-16" cx="4.924" cy="0.55" rx="4.924" ry="0.55" transform="translate(62.932 173.062)"/>
    <ellipse id="椭圆_129" data-name="椭圆 129" class="cls-16" cx="4.924" cy="0.55" rx="4.924" ry="0.55" transform="translate(189.014 159.529)"/>
    <ellipse id="椭圆_130" data-name="椭圆 130" class="cls-16" cx="4.924" cy="0.55" rx="4.924" ry="0.55" transform="translate(148.041 156.858)"/>
    <ellipse id="椭圆_131" data-name="椭圆 131" class="cls-16" cx="5.823" cy="1" rx="5.823" ry="1" transform="translate(120.636 168.984)"/>
    <path id="路径_3753" data-name="路径 3753" class="cls-12" d="M672.38,790.14s-8.108,4.189-3.919,9.124a1.567,1.567,0,0,0,1.533,1s-.227-.416.643-.747a4.181,4.181,0,0,0,.876-.465A2.059,2.059,0,0,0,672.3,798h0s1.658-2.219.373-6.325a4.069,4.069,0,0,0,.021-1.349l-.985,1.351a2.759,2.759,0,0,1,1.135,1.688s-1.071-1.686-1.285-1.5c-.047.039-.488.739-.488.739a4.536,4.536,0,0,1,1.9,2.752s-.994-2.178-2.067-2.489l-.615,1.1a4.764,4.764,0,0,1,2.142,2.938s-1.12-2.238-2.264-2.69l-.452,1.159s1.859,1.182,2.03,2.651c0,0-1.555-2.457-2.114-2.379a5.941,5.941,0,0,0-.3,1.424s1.313.878,1.336,1.741c0,0-1.212-1.531-1.4-1.431a6.453,6.453,0,0,0,.3,2.341,4.621,4.621,0,0,1-.538-2.341,2.569,2.569,0,0,0-.777,1.251s-.349-.846.8-1.626a5.923,5.923,0,0,1,.242-1.345,5.645,5.645,0,0,0-1.773,1.354s.195-1.112,1.883-1.664l.428-1.174a7.981,7.981,0,0,0-2.208,1.345s.375-1.1,2.341-1.632l.583-1.071a9.829,9.829,0,0,0-2.232,1.071,3.793,3.793,0,0,1,2.411-1.386l.473-.675s-1.088.388-1.392.527-.364.071-.364.071a3.938,3.938,0,0,1,1.951-.887A9.544,9.544,0,0,0,672.38,790.14Z" transform="translate(-543.323 -630.209)"/>
    <path id="路径_3754" data-name="路径 3754" class="cls-17" d="M537.008,124.23c-1.4-3.806-9.111-4.163-12.456-3.193a100,100,0,0,1-10.066,1.863l-.174-.165c.347-.1.356-.356.313-.73a11.438,11.438,0,0,1,.021-1.482,3.649,3.649,0,0,0,3.1-.7h0c1.927-.857,1.409-4.523,1.778-5.526a63.53,63.53,0,0,0,.707-7.367h.028l.015-.739c.019-.319.028-.505.028-.505a50.645,50.645,0,0,1,.557-6.474,56.637,56.637,0,0,0,.664-6.853v-.1l-.028-.467c.019-.341.028-.72.026-1.118,0-1.831-.191-4.138-.214-4.51v-.195c.015-.782-.084-4.7-3.414-6.177-1.227-.548-2.7-1.2-4.131-1.838-.368-3.18-1.21-6.344-1.137-9.548,0-.482.043-.964.09-1.444,0,.139-.015.281-.017.428v.934c.126-4.007,1.641-8.036,1.5-11.957-.013.383-.041.769-.077,1.154a12.449,12.449,0,0,0-.411-3.939,2.331,2.331,0,0,0-.672-1.221,2.769,2.769,0,0,0-1.174-.465,23.6,23.6,0,0,0-3.082-.574,4.757,4.757,0,0,0-.694-1.347c-2.172-2.981-5.388-5.783-9.192-6.425-1.908-.321-4.1-.054-5.4,1.311a4.052,4.052,0,0,0-.381.386c-.7.833-1,1.928-1.713,2.759-.047.056-.1.107-.152.161-1.4,1.253-3.583,1.514-5.14,2.639a6.17,6.17,0,0,0-.769.67,13.032,13.032,0,0,0-1.679,2.041,8.465,8.465,0,0,0-1.643,3.187c-.448,2.356,1.156,4.59,1.454,6.961.664,5.3-5.207,10.012-4.095,15.247a6.982,6.982,0,0,0,1.889,3.39c-2.289,2.073-4.238,4.084-4.238,4.084v.12h-.362l.036.428h-.036l.2,2.324-.2,3.384v.319h.013a54.113,54.113,0,0,0,.642,6.639,50.568,50.568,0,0,1,.555,6.474s.407,7.609.78,8.616-.156,4.662,1.778,5.526h0a4.069,4.069,0,0,0,1.943.805c-.1.8-.036,1.381.283,1.563a.934.934,0,0,0,.45.128,4.774,4.774,0,0,0-.349.61,9.071,9.071,0,0,1-2.244-.529c-2.078-.857-8.972-2.784-10.974-1.429s-6.821,2.585-4.6,8.042S468.2,135,468.2,135a7.925,7.925,0,0,1,1.78,1.788c.668,1,6.894,3.3,8.451,3.3a15.25,15.25,0,0,1,1.981.1s-1.69,1.482-1.465,2.343-.514,7.753-.514,7.753,1.713,1.726,2.446-.538l.026.034c.137.186.878,1.028,2.272-.034a12.739,12.739,0,0,1,1.812-1.148l6.751-.955a19.1,19.1,0,0,1,2.114-.015,4.417,4.417,0,0,0,2.784-1.037c1.4.531,2.971,1.112,3.718,1.324,1.516.428,8.485,2.3,10.115,1.713a2.264,2.264,0,0,0,.878-.625l1.555.049-.728.146s1.418.024,3.345.049l-.081.047,2.418-.021c3.538.032,7.513.043,8.036-.075a56.456,56.456,0,0,1,6.322,0h.349s4.671-.932,2.744-5.671c-1.482-3.641-6.037-4.7-8.059-4.99.57-.114,1.06-.2,1.386-.253,1.411-.214,4.153-1.5,4.376-1.938s2.521-1.713,3.114-2.439S538.416,128.036,537.008,124.23Zm-38.69,10.651-.229.075-.154.051-.3.291c-.236-.158-.488-.326-.752-.5C497.353,134.83,497.83,134.857,498.319,134.881Zm20.413,6.035Z" transform="translate(-383.885 -43.42)"/>
    <path id="路径_3755" data-name="路径 3755" class="cls-18" d="M686.65,268.084s3.277,8.567,5.14,7.71,1.358-4.5,1.713-5.5.75-8.567.75-8.567a51.777,51.777,0,0,1,.535-6.438,59,59,0,0,0,.642-6.808v-.1l-.353-6.211-2-.5-4.639,1.713-.643,3.669-.25,1.433-.107.61Z" transform="translate(-558.561 -199.205)"/>
    <path id="路径_3756" data-name="路径 3756" class="cls-7" d="M691.69,358.3s3.127,2.559,4.069,2.784,1.521,2.221,1.521,2.221" transform="translate(-562.522 -290.856)"/>
    <path id="路径_3757" data-name="路径 3757" class="cls-18" d="M534.781,269.834s-3.277,8.567-5.14,7.71-1.358-4.5-1.713-5.5-.75-8.567-.75-8.567a51.776,51.776,0,0,0-.535-6.438,59,59,0,0,1-.642-6.809v-.1l.355-6.211,2-.5,4.639,1.713.643,3.669.251,1.433.107.61Z" transform="translate(-432.318 -200.58)"/>
    <rect id="矩形_1169" data-name="矩形 1169" class="cls-19" width="7.314" height="11.4" transform="translate(116.487 23.408)"/>
    <rect id="矩形_1170" data-name="矩形 1170" class="cls-7" width="7.314" height="11.4" transform="translate(116.487 23.408)"/>
    <path id="路径_3758" data-name="路径 3758" class="cls-20" d="M554.475,404.089s-2.5,2.748-1.572,3.247,6.926,9.852,6.926,9.852,19.7,2.427,23.42-1.214,3.641-10.145,3.641-10.145-2.986.642-3.311.293-2.114-2.032-2.114-2.032S556.188,402.556,554.475,404.089Z" transform="translate(-453.297 -326.303)"/>
    <path id="路径_3759" data-name="路径 3759" class="cls-21" d="M554.475,404.089s-2.5,2.748-1.572,3.247,6.926,9.852,6.926,9.852,19.7,2.427,23.42-1.214,3.641-10.145,3.641-10.145-2.986.642-3.311.293-2.114-2.032-2.114-2.032S556.188,402.556,554.475,404.089Z" transform="translate(-453.297 -326.303)"/>
    <path id="路径_3760" data-name="路径 3760" class="cls-18" d="M570.271,172.094l-6.425,5.14-1.943.141-.713.051-11.979.878L536.79,177.4l-1.848-.135-2.356-.171-4.926-4.712a84.36,84.36,0,0,1,6.541-6.256A13.42,13.42,0,0,1,537.37,164l.141-.049a3.526,3.526,0,0,0,1.358-.947c2.411-2.487,4.641-8.623,4.641-8.623s10.638-5.5,9.353,1.713,4.782,5.427,4.782,5.427l2,.912.79.362,2.015.923L567,165.81C570.567,167.453,570.271,172.094,570.271,172.094Z" transform="translate(-433.622 -129.039)"/>
    <circle id="椭圆_132" data-name="椭圆 132" class="cls-7" cx="9.567" cy="9.567" r="9.567" transform="translate(105.524 12.083)"/>
    <path id="路径_3761" data-name="路径 3761" class="cls-7" d="M568.982,221.326H526v-.1l.355-6.211a84.352,84.352,0,0,1,6.541-6.256l26.985-1.071,1.255-1.324,4.547,2.086c3.57,1.641,3.283,6.282,3.283,6.282S569.455,220.105,568.982,221.326Z" transform="translate(-432.318 -171.457)"/>
    <path id="路径_3762" data-name="路径 3762" class="cls-22" d="M568.982,220.326H526v-.1l.355-6.211a84.354,84.354,0,0,1,6.541-6.256l26.985-1.071,1.255-1.324,4.547,2.086c3.57,1.641,3.283,6.282,3.283,6.282S569.455,219.105,568.982,220.326Z" transform="translate(-432.318 -170.671)"/>
    <path id="路径_3763" data-name="路径 3763" class="cls-7" d="M583.967,187.054s6.781,8.64,15.812-.178,1,19.667,1,19.667l-19.49,2.313Z" transform="translate(-475.766 -154.815)"/>
    <path id="路径_3764" data-name="路径 3764" class="cls-23" d="M600.78,207.742l-19.49,2.313Z" transform="translate(-475.766 -155.586)"/>
    <path id="路径_3765" data-name="路径 3765" class="cls-7" d="M579.19,201.7l.718,10.942.769,3.641.587,2.784s1.5,21.417,1.071,22.488.214,1.928.3,2.5-.09,2-.019,2.643,0,.927-1.641.7-3.928-.628-3.928-.628-5.783.428-7.781-.285a22.83,22.83,0,0,0-5.783-.715s-5.712.143-7.567-.071-2.857,2.285-4.069,1.57,1.427-7.637,2.283-9.638-1.141-7.068-1.141-7.068l2.57-14.257.572-3.232v-10.16l.141-.049a3.525,3.525,0,0,0,1.358-.947l.643,10.224,20.132.715V201.35" transform="translate(-452.386 -167.52)"/>
    <path id="路径_3766" data-name="路径 3766" class="cls-22" d="M579.19,199.7l.718,10.942.769,3.641.587,2.784s1.5,21.417,1.071,22.488.214,1.928.3,2.5-.09,2-.019,2.643,0,.927-1.641.7-3.928-.628-3.928-.628-5.783.428-7.781-.285a22.831,22.831,0,0,0-5.783-.715s-5.712.143-7.567-.071-2.857,2.285-4.069,1.57,1.427-7.637,2.283-9.638-1.141-7.068-1.141-7.068l2.57-14.257.572-3.232v-10.16l.141-.049a3.525,3.525,0,0,0,1.358-.947l.643,10.224,20.132.715V199.35" transform="translate(-452.386 -165.949)"/>
    <path id="路径_3767" data-name="路径 3767" class="cls-7" d="M570.513,57.351a2.36,2.36,0,0,0-.643-1.212,2.63,2.63,0,0,0-1.131-.463,22.344,22.344,0,0,0-2.973-.57,4.756,4.756,0,0,0-.642-1.334c-2.1-2.964-5.2-5.759-8.858-6.391-1.912-.332-4.129-.034-5.354,1.473-.672.829-.962,1.928-1.641,2.741-1.309,1.581-3.671,1.775-5.32,3a9.859,9.859,0,0,0-2.142,2.478,8.5,8.5,0,0,0-1.583,3.168c-.428,2.337,1.116,4.564,1.4,6.922.643,5.275-5.012,9.955-3.943,15.159.623,3.035,3.427,5.172,6.327,6.256,1.022.383,2.189.765,2.666,1.745.214.428.251.923.452,1.356.677,1.444,2.9,1.5,4.1.448a6.383,6.383,0,0,0,1.713-4.339c.574-6.931-2.2-13.778-1.878-20.725.1-2.1.688-4.485,2.57-5.436,2.534-1.285,5.581.857,8.37.448a16.6,16.6,0,0,1,.8,10.132c-.443,1.848-1.21,3.641-1.266,5.547-.083,2.9,1.482,5.553,2.836,8.119a4.318,4.318,0,0,1,.572,1.566,3.772,3.772,0,0,1-.306,1.638c-.765,2.058-2.084,3.969-2.234,6.16a1,1,0,0,0,.161.732.92.92,0,0,0,.553.248c2.313.4,4.313-1.653,5.442-3.712a17.4,17.4,0,0,0,2.146-7.393c.233-4.361-1.33-8.65-1.234-13.015C569.584,67.135,571.826,62.138,570.513,57.351Z" transform="translate(-441.394 -46.431)"/>
    <path id="路径_3768" data-name="路径 3768" class="cls-19" d="M571.513,56.351a2.36,2.36,0,0,0-.642-1.212,2.63,2.63,0,0,0-1.131-.463,22.344,22.344,0,0,0-2.973-.57,4.758,4.758,0,0,0-.643-1.334c-2.1-2.964-5.2-5.759-8.858-6.391-1.913-.332-4.129-.034-5.354,1.473-.672.829-.962,1.928-1.641,2.741-1.309,1.581-3.671,1.775-5.32,3a9.856,9.856,0,0,0-2.142,2.478,8.5,8.5,0,0,0-1.583,3.168c-.428,2.337,1.116,4.564,1.4,6.922.643,5.275-5.012,9.955-3.943,15.159.623,3.035,3.427,5.172,6.327,6.256,1.022.383,2.189.765,2.666,1.745.214.428.251.923.452,1.356.677,1.444,2.9,1.5,4.1.448a6.384,6.384,0,0,0,1.713-4.339c.574-6.931-2.2-13.778-1.878-20.725.1-2.1.688-4.485,2.57-5.436,2.534-1.285,5.581.857,8.37.448a16.6,16.6,0,0,1,.8,10.132c-.443,1.848-1.21,3.641-1.266,5.547-.083,2.9,1.482,5.553,2.836,8.119a4.319,4.319,0,0,1,.572,1.566,3.772,3.772,0,0,1-.306,1.638c-.765,2.058-2.084,3.969-2.234,6.16a1,1,0,0,0,.161.732.921.921,0,0,0,.553.248c2.313.4,4.313-1.653,5.442-3.712a17.4,17.4,0,0,0,2.146-7.393c.233-4.361-1.33-8.65-1.234-13.015C570.584,66.135,572.826,61.138,571.513,56.351Z" transform="translate(-442.18 -45.645)"/>
    <path id="路径_3769" data-name="路径 3769" class="cls-24" d="M581.79,470.609l8.5.272-1.219-6.3-6.509.619Z" transform="translate(-457.188 -365.075)"/>
    <path id="路径_3770" data-name="路径 3770" class="cls-20" d="M648.438,417.71c-.572.713-2.784,2-3,2.427s-2.855,1.713-4.213,1.928a35.083,35.083,0,0,0-6.425,1.643,62.626,62.626,0,0,1-8.055,2.131,22.871,22.871,0,0,1-2.439.439c-1.285.071-15.347-4.712-15.347-4.712l2.711-2.784.15-.051c.767-.259,4.309-1.456,6.275-2.026,2.215-.643,4.785-3.283,4.785-3.283s3.782-1.285,4.283-1.429-1.285-5-1.285-5,8.209-1.139,11.422-2.105,10.638-.608,11.994,3.176S649.018,417,648.438,417.71Z" transform="translate(-497.51 -327.11)"/>
    <path id="路径_3771" data-name="路径 3771" class="cls-23" d="M552.092,494.987s-1.641,1.713-3.283,1.572-7.387.428-7.387.428a11.518,11.518,0,0,0-2.893,1.677c-1.343,1.058-2.056.214-2.189.034l-.023-.034c-.715,2.251-2.356.535-2.356.535s.713-6.853.495-7.71,1.411-2.328,1.411-2.328l1.927-.49,4.883-1.251,7,2.427Z" transform="translate(-438.573 -392.323)"/>
    <path id="路径_3772" data-name="路径 3772" class="cls-7" d="M537.785,493.26l-1.446,10.027-.023-.034c-.715,2.251-2.356.535-2.356.535s.713-6.853.495-7.71,1.411-2.328,1.411-2.328Z" transform="translate(-438.573 -396.912)"/>
    <path id="路径_3773" data-name="路径 3773" class="cls-7" d="M599,360.08a11.689,11.689,0,0,0,7.068,0" transform="translate(-489.683 -292.255)"/>
    <path id="路径_3774" data-name="路径 3774" class="cls-7" d="M659.29,371.42a3.124,3.124,0,0,0,2.784,0" transform="translate(-537.061 -301.166)"/>
    <path id="路径_3775" data-name="路径 3775" class="cls-7" d="M659.29,378.78s2.641.353,3.142-.36" transform="translate(-537.061 -306.667)"/>
    <path id="路径_3776" data-name="路径 3776" class="cls-7" d="M655.29,393.249s4.96-.642,6.192-1.5" transform="translate(-533.918 -317.142)"/>
    <path id="路径_3777" data-name="路径 3777" class="cls-7" d="M584.62,391.75s2.784,1.57,4.855,1.5" transform="translate(-478.383 -317.142)"/>
    <path id="路径_3778" data-name="路径 3778" class="cls-7" d="M626.737,478.288a22.854,22.854,0,0,1-2.439.439c-1.285.071-15.347-4.712-15.347-4.712l2.711-2.784.15-.051c.428.3.78.561,1.03.758,1.18.929,2.32-.285,2.748-.285s4.14,3.069,4.14,3.069,3.427.786,4,1.5,2.57.572,2.925,1.071A1.909,1.909,0,0,1,626.737,478.288Z" transform="translate(-497.502 -379.561)"/>
    <path id="路径_3779" data-name="路径 3779" class="cls-20" d="M491.718,408.45a15.524,15.524,0,0,1-5.463-.643c-2-.842-8.637-2.784-10.565-1.42s-6.569,2.57-4.427,8,3.142,5.568,3.142,5.568a7.733,7.733,0,0,1,1.713,1.778c.642,1,6.639,3.283,8.138,3.283a12.445,12.445,0,0,1,7.851,2.57,16.136,16.136,0,0,0,7.068,2.857s4.712,1.928,6.179,2.356,8.171,2.283,9.743,1.713,2.57-4.142,2.57-4.142.713-3.213.355-3.712-2.356-.358-2.926-1.071-4-1.5-4-1.5-3.7-3.071-4.131-3.071-1.568,1.212-2.748.285a62.679,62.679,0,0,0-7.391-4.712C494.116,415.16,491.718,408.45,491.718,408.45Z" transform="translate(-388.869 -328.274)"/>
    <path id="路径_3780" data-name="路径 3780" class="cls-7" d="M536.27,427.116a4.09,4.09,0,0,1,3.51.927c1.713,1.428,7.479,4.3,7.479,4.3" transform="translate(-440.388 -344.869)"/>
    <path id="路径_3781" data-name="路径 3781" class="cls-7" d="M703.026,427s-7.64,1.156-9.066,2.726" transform="translate(-564.306 -344.843)"/>
    <path id="路径_3782" data-name="路径 3782" class="cls-23" d="M705.253,498.129h-.336a57.588,57.588,0,0,0-6.089,0c-.927.214-13.208,0-13.208,0l2.4-.5s-.891-3.123-.326-3.382c0,0-3.213-2.116-.79-3.544a7.514,7.514,0,0,1,5.033-.827l6.08-2.06,1.167-.4s6.853.358,8.708,5.069S705.253,498.129,705.253,498.129Z" transform="translate(-557.752 -392.323)"/>
    <path id="路径_3783" data-name="路径 3783" class="cls-7" d="M750.745,498.168h-.336c1.994-1.645,6.5-6.652-6.9-10.3l1.167-.4s6.853.358,8.708,5.069S750.745,498.168,750.745,498.168Z" transform="translate(-603.243 -392.362)"/>
    <circle id="椭圆_133" data-name="椭圆 133" class="cls-20" cx="0.375" cy="0.375" r="0.375" transform="translate(134.527 99.505)"/>
    <circle id="椭圆_134" data-name="椭圆 134" class="cls-20" cx="0.375" cy="0.375" r="0.375" transform="translate(132.349 100.124)"/>
    <g id="组_3195" data-name="组 3195" class="cls-25" transform="translate(96.429 13.475)">
      <path id="路径_3784" data-name="路径 3784" d="M614,114.408a16.618,16.618,0,0,0-1.229-6.883c-2.784.415-5.834-1.733-8.37-.448-1.876.951-2.465,3.335-2.57,5.436-.026.555-.03,1.109-.019,1.664,0-.2,0-.4.019-.593.1-2.1.688-4.485,2.57-5.436,2.536-1.285,5.581.857,8.37.448A16.571,16.571,0,0,1,614,114.408Z" transform="translate(-588.316 -106.587)"/>
      <path id="路径_3785" data-name="路径 3785" d="M552.5,115.594a7.138,7.138,0,0,0-.028-1.4c-.227-1.885-1.257-3.686-1.443-5.523-.24,2.217,1.171,4.346,1.443,6.594A1.339,1.339,0,0,1,552.5,115.594Z" transform="translate(-548.394 -108.165)"/>
      <path id="路径_3786" data-name="路径 3786" d="M554.215,207.629a6.3,6.3,0,0,1-1.713,4.341c-1.206,1.054-3.427,1-4.1-.448-.214-.428-.246-.927-.454-1.356-.475-.981-1.645-1.362-2.666-1.745-2.9-1.086-5.7-3.213-6.325-6.256a6.58,6.58,0,0,1-.114-.835,6.752,6.752,0,0,0,.114,1.906c.623,3.035,3.427,5.17,6.325,6.256,1.022.383,2.191.765,2.666,1.745.214.428.251.923.454,1.356.675,1.444,2.9,1.5,4.1.448a6.385,6.385,0,0,0,1.713-4.341,24.477,24.477,0,0,0,.066-2.514C554.281,206.671,554.253,207.151,554.215,207.629Z" transform="translate(-538.823 -180.98)"/>
      <path id="路径_3787" data-name="路径 3787" d="M687.93,117.271v.927c.12-3.984,1.581-7.989,1.437-11.889C689.256,109.917,688.011,113.6,687.93,117.271Z" transform="translate(-655.996 -106.31)"/>
      <path id="路径_3788" data-name="路径 3788" d="M654.144,197.061a2.758,2.758,0,0,0,.049-.773,4.284,4.284,0,0,0-.572-1.566c-1.238-2.356-2.649-4.767-2.816-7.382,0,.111-.015.214-.017.334-.086,2.9,1.48,5.553,2.833,8.119a5.142,5.142,0,0,1,.523,1.268Z" transform="translate(-626.805 -169.986)"/>
      <path id="路径_3789" data-name="路径 3789" d="M663.1,216.688a17.427,17.427,0,0,1-2.161,7.393c-1.131,2.058-3.129,4.108-5.444,3.712a.91.91,0,0,1-.553-.251.538.538,0,0,1-.1-.167c-.026.167-.047.336-.06.508a.987.987,0,0,0,.161.73.91.91,0,0,0,.553.251c2.315.4,4.313-1.653,5.444-3.712a17.427,17.427,0,0,0,2.161-7.393c.026-.5.028-1,.013-1.5C663.113,216.4,663.113,216.545,663.1,216.688Z" transform="translate(-629.939 -192.712)"/>
    </g>
    <path id="路径_3790" data-name="路径 3790" class="cls-26" d="M695.31,509.178a7.578,7.578,0,0,0,9-2.759" transform="translate(-565.366 -407.253)"/>
    <path id="路径_3791" data-name="路径 3791" class="cls-26" d="M700.29,533.062a10.568,10.568,0,0,1,10.066-.094" transform="translate(-569.28 -427.161)"/>
    <path id="路径_3792" data-name="路径 3792" class="cls-26" d="M561.93,526.745s1.859-4.193,6.823-1" transform="translate(-460.552 -421.498)"/>
    <path id="路径_3793" data-name="路径 3793" class="cls-7" d="M533.79,229.875l3.791-3.427s14.7-.964,15.307,4.033c0,0,5.211-5.924,16.17-4.6l4.637,3.692-12.816,5.624-12.454,4.32-9.173-4.106Z" transform="translate(-438.439 -186.643)"/>
    <path id="路径_3794" data-name="路径 3794" class="cls-5" d="M533.79,230.875l3.791-3.427s14.7-.964,15.307,4.033c0,0,5.211-5.924,16.17-4.6l4.637,3.692-12.816,5.624-12.454,4.32-9.173-4.106Z" transform="translate(-438.439 -187.429)"/>
    <path id="路径_3795" data-name="路径 3795" class="cls-7" d="M437.38,204.83l1.677,20.061,17.776.893-.771-19.976-.015-.336Z" transform="translate(-343.706 -160.956)"/>
    <path id="路径_3796" data-name="路径 3796" class="cls-12" d="M437.38,202.83l1.677,20.061,17.776.893-.771-19.976-.015-.336Z" transform="translate(-343.706 -159.384)"/>
    <path id="路径_3797" data-name="路径 3797" class="cls-7" d="M568.047,202.83l-18.337,2.75v20.151l17.92-2.589Z" transform="translate(-431.978 -159.384)"/>
    <path id="路径_3798" data-name="路径 3798" class="cls-12" d="M568.047,200.83l-18.337,2.75v20.151l17.92-2.589Z" transform="translate(-431.978 -157.812)"/>
    <path id="路径_3799" data-name="路径 3799" class="cls-9" d="M578.8,223.79l-9.905,1.1.216,3.375,9.683-1.058Z" transform="translate(-447.051 -175.855)"/>
    <path id="路径_3800" data-name="路径 3800" class="cls-18" d="M536.711,324.526l1.009,2.714a3.37,3.37,0,0,0,3.14.642c1.641-.642,3.071-.962,3.784-1.587s1.713-3.767,1.713-3.767,1-3.427,2-4.283,3.641-12.66,0-11.505S541.93,318.6,541.93,318.6a2.539,2.539,0,0,1-1.57.857c-.927.073-2.784-.143-3.142.643S535.64,322.956,536.711,324.526Z" transform="translate(-440.396 -250.275)"/>
    <path id="路径_3801" data-name="路径 3801" class="cls-7" d="M618.558,254.161a6.168,6.168,0,0,1-5.378-1.341l.773,19.973a5.451,5.451,0,0,0,4.6,1.521Z" transform="translate(-500.826 -207.967)"/>
    <path id="路径_3802" data-name="路径 3802" class="cls-27" d="M618.558,252.161a6.168,6.168,0,0,1-5.378-1.341l.773,19.974a5.451,5.451,0,0,0,4.6,1.521Z" transform="translate(-500.826 -206.395)"/>
    <path id="路径_3804" data-name="路径 3804" class="cls-7" d="M640.29,239.266s7.46-2.281,9.4-1.96" transform="translate(-522.13 -195.751)"/>
    <path id="路径_3805" data-name="路径 3805" class="cls-7" d="M570.368,237.1s-7.23-1.713-8.438-1.227" transform="translate(-460.552 -194.58)"/>
    <path id="路径_3806" data-name="路径 3806" class="cls-7" d="M662.25,243.519s4.988-1.829,6.791-.959" transform="translate(-539.387 -199.72)"/>
    <path id="路径_3807" data-name="路径 3807" class="cls-7" d="M650.52,448.362a16.4,16.4,0,0,1,2.459-1.527,40.112,40.112,0,0,0,3.641-2.225" transform="translate(-530.169 -358.681)"/>
    <path id="路径_3808" data-name="路径 3808" class="cls-7" d="M541.42,360.08s-3.129,2.559-4.069,2.784-1.521,2.221-1.521,2.221" transform="translate(-440.042 -292.255)"/>
    <path id="路径_3809" data-name="路径 3809" class="cls-18" d="M665.786,322.769l-1,2.72a3.373,3.373,0,0,1-3.142.643c-1.643-.643-3.069-.962-3.784-1.587s-1.713-3.767-1.713-3.767-1-3.427-2-4.283-3.641-12.66,0-11.505,6.425,11.863,6.425,11.863a2.539,2.539,0,0,0,1.57.857c.927.073,2.784-.143,3.142.643S666.857,321.206,665.786,322.769Z" transform="translate(-531.557 -248.9)"/>
    <path id="路径_3810" data-name="路径 3810" class="cls-7" d="M707.15,364.94s2.045,1.315,2.037,2.887" transform="translate(-574.671 -296.074)"/>
    <path id="路径_3825" data-name="路径 3825" class="cls-18" d="M9.567,0A9.567,9.567,0,1,1,0,9.567,9.567,9.567,0,0,1,9.567,0Z" transform="translate(105.558 11.614)"/>
    <path id="路径_3811" data-name="路径 3811" class="cls-19" d="M580.688,93.291a19.61,19.61,0,0,0,3.288-1.244c2.482-.872,5.228-.274,7.74.512a10.038,10.038,0,0,0,2.953.643,2.989,2.989,0,0,0,2.6-1.285,2.905,2.905,0,0,0-.017-2.684,7.559,7.559,0,0,0-1.748-2.157c-2.227-2.1-4.99-4.069-8.046-3.855a11.075,11.075,0,0,0-3.536,1.013,39,39,0,0,0-4.151,2.09c-1.03.6-2.938,1.4-3.532,2.489C574.891,91.274,578.589,93.621,580.688,93.291Z" transform="translate(-471.571 -74.678)"/>
    <path id="路径_3812" data-name="路径 3812" class="cls-7" d="M597.266,113.456a2.989,2.989,0,0,1-2.6,1.285,10.046,10.046,0,0,1-2.956-.63c-2.512-.786-5.256-1.386-7.74-.512a18.652,18.652,0,0,1-3.288,1.242c-1.692.266-4.416-1.208-4.712-3.082-.332,2.165,2.827,4.02,4.712,3.724a19.719,19.719,0,0,0,3.288-1.242c2.484-.874,5.228-.274,7.74.512a9.638,9.638,0,0,0,2.956.63,3.012,3.012,0,0,0,2.6-1.285,2.508,2.508,0,0,0,.3-1.566,2.308,2.308,0,0,1-.3.923Z" transform="translate(-471.567 -97.118)"/>
    <path id="路径_3813" data-name="路径 3813" class="cls-12" d="M1025.176,661.63s1.27,1.66-.587,4.168-3.386,4.624-2.769,6.187c0,0,2.8-4.656,5.08-4.722S1027.68,664.429,1025.176,661.63Z" transform="translate(-821.839 -529.222)"/>
    <path id="路径_3814" data-name="路径 3814" class="cls-7" d="M1025.443,661.63a2.05,2.05,0,0,1,.259.521c2.223,2.613,3.41,5.052,1.27,5.112-1.992.058-4.38,3.619-4.952,4.517a2.082,2.082,0,0,0,.066.214s2.8-4.656,5.08-4.722S1027.946,664.429,1025.443,661.63Z" transform="translate(-822.105 -529.222)"/>
    <path id="路径_3815" data-name="路径 3815" class="cls-28" d="M1047.923,670.139c0,.585-.066,1.058-.146,1.058s-.148-.473-.148-1.058.081-.308.163-.308S1047.923,669.555,1047.923,670.139Z" transform="translate(-842.23 -535.615)"/>
    <path id="路径_3816" data-name="路径 3816" class="cls-28" d="M1049.118,673.258c-.512.278-.96.448-1,.377s.345-.356.857-.643.311-.077.349,0S1049.632,672.978,1049.118,673.258Z" transform="translate(-842.613 -538.036)"/>
    <path id="路径_3817" data-name="路径 3817" class="cls-8" d="M996.208,661.63s-1.27,1.66.587,4.168,3.386,4.624,2.767,6.187c0,0-2.8-4.656-5.08-4.722S993.711,664.429,996.208,661.63Z" transform="translate(-799.583 -529.222)"/>
    <path id="路径_3818" data-name="路径 3818" class="cls-7" d="M996.208,661.63a2.054,2.054,0,0,0-.259.521c-2.223,2.613-3.41,5.052-1.27,5.112,1.99.058,4.38,3.619,4.952,4.517a1.687,1.687,0,0,1-.069.214s-2.8-4.656-5.08-4.722S993.711,664.429,996.208,661.63Z" transform="translate(-799.583 -529.222)"/>
    <path id="路径_3819" data-name="路径 3819" class="cls-28" d="M995.64,670.139c0,.585.064,1.058.146,1.058s.148-.473.148-1.058-.083-.308-.163-.308S995.64,669.555,995.64,670.139Z" transform="translate(-801.375 -535.615)"/>
    <path id="路径_3820" data-name="路径 3820" class="cls-28" d="M990.716,673.258c.512.278.959.448,1,.377s-.345-.356-.857-.643-.311-.077-.349,0S990.2,672.978,990.716,673.258Z" transform="translate(-797.261 -538.036)"/>
    <ellipse id="椭圆_136" data-name="椭圆 136" class="cls-16" cx="13.279" cy="2.037" rx="13.279" ry="2.037" transform="translate(186.703 151.394)"/>
    <path id="路径_3821" data-name="路径 3821" class="cls-29" d="M1004.071,696.685l-.064.518-.09.732-.036.306-.09.733-.039.306-.088.73-1.017,8.331c-.09.743-1.3,1.324-2.771,1.324H994.6c-1.467,0-2.679-.58-2.771-1.324l-1.017-8.331-.09-.73-.036-.306-.09-.733-.039-.306-.088-.732-.064-.518c-.049-.428.606-.775,1.437-.775h10.8C1003.465,695.91,1004.122,696.263,1004.071,696.685Z" transform="translate(-797.255 -556.16)"/>
    <path id="路径_3822" data-name="路径 3822" class="cls-30" d="M915.672,658.53l-.088.732H902.22l-.09-.732Z" transform="translate(-708.921 -517.487)"/>
    <path id="路径_3823" data-name="路径 3823" class="cls-30" d="M916.009,663.38l-.088.732H902.81l-.09-.732Z" transform="translate(-709.384 -521.298)"/>
    <path id="路径_3824" data-name="路径 3824" class="cls-30" d="M916.354,668.23l-.09.732H903.408l-.088-.732Z" transform="translate(-709.856 -525.109)"/>
  </g>
</svg>
