<svg xmlns="http://www.w3.org/2000/svg" xmlns:xlink="http://www.w3.org/1999/xlink" width="218.818" height="163.087" viewBox="0 0 218.818 163.087">
  <defs>
    <style>
      .cls-1 {
        opacity: 0.6;
      }

      .cls-10, .cls-2 {
        fill: #f18bab;
      }

      .cls-17, .cls-2, .cls-7 {
        opacity: 0.1;
      }

      .cls-3 {
        fill: #65617d;
      }

      .cls-4 {
        fill: url(#linear-gradient);
      }

      .cls-5 {
        fill: #f6d9d9;
      }

      .cls-6 {
        fill: #dfe5ee;
      }

      .cls-8 {
        fill: #d48a9b;
      }

      .cls-9 {
        fill: #efc6cd;
      }

      .cls-11, .cls-17 {
        fill: #fff;
      }

      .cls-12 {
        fill: #ffd037;
      }

      .cls-13 {
        fill: #9d9cb5;
      }

      .cls-14 {
        fill: #ee8e9e;
      }

      .cls-15 {
        fill: #44213c;
      }

      .cls-16 {
        fill: #5c5c8e;
      }

      .cls-18 {
        fill: #efc8c4;
      }

      .cls-19 {
        fill: #727a9c;
      }
    </style>
    <linearGradient id="linear-gradient" x1="0.5" y1="1" x2="0.5" gradientUnits="objectBoundingBox">
      <stop offset="0" stop-color="gray" stop-opacity="0.251"/>
      <stop offset="0.54" stop-color="gray" stop-opacity="0.122"/>
      <stop offset="1" stop-color="gray" stop-opacity="0.102"/>
    </linearGradient>
  </defs>
  <g id="Group_3285" data-name="Group 3285" class="cls-1">
    <path id="Path_4211" data-name="Path 4211" class="cls-2" d="M285.685,174.61c-.039.231-.079.463-.122.694a85.179,85.179,0,0,1-7.089,22.452q-.167.347-.341.694a64.165,64.165,0,0,1-7.987,12.318,25.56,25.56,0,0,1-5.737,5.384c-3.078,1.963-6.677,2.76-10.215,3.413-3.676.68-7.4,1.24-11.113,1.859q-1.975.322-3.926.676c-3.589.649-7.151,1.4-10.628,2.392a55.245,55.245,0,0,0-12.4,5.1q-.471.269-.932.552c-.308.186-.62.376-.919.57s-.6.386-.9.583l-.459.31c-.151.1-.3.207-.448.306-.442.3-.878.62-1.314.926l-.017.012-.857.62c-1.609,1.192-3.184,2.44-4.752,3.692l-.99.791-1.533,1.213c-.3.238-.6.473-.9.709-.219.171-.436.343-.659.512-1.118.862-2.25,1.7-3.4,2.51-.275.192-.554.384-.826.572a43.572,43.572,0,0,1-7.343,4.045l-.033.014a29.129,29.129,0,0,1-3.9,1.345,23.335,23.335,0,0,1-2.3.5,20.3,20.3,0,0,1-6.229.107c-4.068-.576-7.88-2.479-11.938-3.116-8.372-1.3-16.5,2.892-24.379,6.184q-2.892,1.211-5.849,2.273-1.959.707-3.936,1.345a123.918,123.918,0,0,1-24.7,5.283,57.065,57.065,0,0,1-10.485.283,35.411,35.411,0,0,1-3.926-.51,22.658,22.658,0,0,1-11.857-5.785,27.774,27.774,0,0,1-6.188-9.626q-.895-2.155-1.576-4.409a49.17,49.17,0,0,1-1.605-7.2c-.081-.55-.153-1.1-.207-1.653q-.161-1.419-.24-2.851A49.378,49.378,0,0,1,72,214.619c1.407-5.452,3.754-10.673,4.787-16.177.043-.231.083-.463.122-.694q.207-1.24.314-2.525c.521-6.731-1.494-13.32-3.085-19.919-.056-.231-.112-.463-.165-.694q-.258-1.1-.49-2.2A55.544,55.544,0,0,1,72.917,151c.041-.231.089-.465.136-.694a34.635,34.635,0,0,1,4.826-12.072,41.835,41.835,0,0,1,9.091-9.618q2.51-2,5.192-3.75,1.928-1.252,3.926-2.37a65.427,65.427,0,0,1,35.181-8.264q.965.05,1.926.132,1.008.087,2.01.207c7.816.9,15.421,3.14,22.981,5.589q3.8,1.24,7.587,2.479,1.686.55,3.37,1.085c5.506,1.738,11.1,3.306,16.752,4.487q1.965.413,3.925.754a92.783,92.783,0,0,0,13.758,1.417q2.686.066,5.372-.056,1.357-.062,2.717-.182c9.361-.8,18.388-3.49,27.452-6.014,1.31-.366,2.622-.729,3.925-1.081,1.723-.463,3.448-.911,5.18-1.324,10.781-2.589,20.388-1.1,30.41,4.237a14.878,14.878,0,0,1,5.95,4.94c1.4,2.264,1.746,5.068,2.006,7.766.368,3.839.62,7.731.7,11.64,0,.231,0,.463.014.694A123.847,123.847,0,0,1,285.685,174.61Z" transform="translate(-70.452 -101.996)"/>
    <path id="Path_4212" data-name="Path 4212" class="cls-2" d="M223.613,198.071h-.7v.694h.8Zm-7.985,0a.045.045,0,0,0,0,.017l-.062.574v.1h6.116v-.041l.436-.653Zm-16.353,0V175.619H206.3c-.074-.062-.151-.124-.229-.182l-.1-.078c-.043-.035-.087-.068-.132-.1s-.153-.11-.233-.163-.13-.089-.207-.132l-.048-.031h-6.072V173.7l-.163.079-.174.1h-.012l-.037.023-.107.07c-.037.023-.074.045-.11.07-.107.072-.207.151-.32.231l-.1.083c-.07.054-.136.11-.207.165-.275.225-.545.461-.826.678l-.207.161a5.345,5.345,0,0,1-.467.306,2.217,2.217,0,0,1-.207.114l-.116.054-.105.045h0a4.39,4.39,0,0,1-.769.244v21.948H184.808a.318.318,0,0,0,.021.072c.058.207.116.413.171.62h10.347V222.83h.161l.184.012.335.025.541.054.244.029.269.033h.039c.155.021.312.045.471.07l.1.017.227.037.326.058h0l.783-.041h0l.107.023a.627.627,0,0,1,.132.027V198.765h16.283v-.1l.062-.574a.046.046,0,0,1,0-.017Zm24.338,0h-.7v.694h.8Zm-8.425,0-.07.694h6.8l.463-.694Zm-15.909,0V175.619H206.3c-.074-.062-.151-.124-.229-.182l-.1-.078c-.043-.035-.087-.068-.132-.1s-.153-.11-.233-.163-.13-.089-.207-.132l-.048-.031h-6.076V173.7l-.163.079-.174.1h-.012l-.037.023-.107.07c-.037.023-.074.045-.11.07-.107.072-.207.151-.32.231l-.1.083c-.07.054-.136.11-.207.165-.275.225-.545.461-.826.678l-.207.161a5.345,5.345,0,0,1-.467.306,2.217,2.217,0,0,1-.207.114l-.116.054-.105.045h0a4.39,4.39,0,0,1-.769.244v21.948H184.808a.318.318,0,0,0,.021.072c.058.207.118.413.174.62h10.345v24.065l.161.01.184.012.335.025.541.054.244.029.269.033h.039c.155.021.312.045.471.07l.1.017.227.037.326.058h0l.783-.041h0l.107.023a.625.625,0,0,1,.132.027V198.765h15.849l.074-.694Zm53.234-46.755h44.261c0-.231,0-.463-.014-.694H252.513v-27.26c-1.314.351-2.626.715-3.926,1.081v26.179H200.448l-.122-.132.184-.207h0l17.9-19.65q-2.686.124-5.372.056l-13.768,15.1V129.277q-1.971-.341-3.926-.754v16.508l-20.13-22.08c-2.527-.826-5.054-1.667-7.587-2.479l27.361,30.018-.122.132h-50.22V114.879q-1-.114-2.01-.207-.961-.085-1.926-.132v36.082H105.536V122.812q-2,1.116-3.925,2.37v25.439H82.476c-.048.229-.1.463-.136.694h19.254v23.609H83.406c.054.231.11.463.165.694H101.6v22.452H86.336c-.039.231-.079.463-.122.694H101.6v62.777a35.416,35.416,0,0,0,3.925.51V198.765h35.189v57.721q1.979-.643,3.936-1.345V198.765h50.689V249.2a29.134,29.134,0,0,0,3.9-1.345l.033-.014V198.765h49.3v23.65q1.961-.353,3.926-.676V198.765h35.055q.174-.347.341-.694H252.513V175.619H295c.043-.231.083-.463.122-.694H252.513Zm-146.975,0h35.179v23.609H105.536Zm0,46.755V175.619h35.179v22.452Zm39.117-46.755h50.687v23.609H144.652Zm0,46.755V175.619h50.687v22.452Zm103.923,0h-49.3V175.619h49.3Zm0-23.14h-49.3V151.948l.692-.632h48.608Zm-32.947,23.14a.045.045,0,0,0,0,.017l-.062.574v.1h6.116v-.041l.436-.653Zm7.985,0h-.7v.694h.8Zm-24.338,0V175.619H206.3c-.074-.062-.151-.124-.229-.182l-.1-.078c-.043-.035-.087-.068-.132-.1s-.153-.11-.233-.163-.13-.089-.207-.132l-.048-.031h-6.074V173.7l-.163.079-.174.1h-.012l-.037.023-.107.07c-.037.023-.074.045-.11.07-.107.072-.207.151-.32.231l-.1.083c-.07.054-.136.11-.207.165-.275.225-.545.461-.826.678l-.207.161a5.345,5.345,0,0,1-.467.306,2.217,2.217,0,0,1-.207.114l-.116.054-.105.045h0a4.39,4.39,0,0,1-.769.244v21.948H184.808a.318.318,0,0,0,.021.072c.058.207.116.413.171.62h10.347V222.83h.161l.184.012.335.025.541.054.244.029.269.033h.039c.155.021.312.045.471.07l.1.017.227.037.326.058h0l.783-.041h0l.107.023a.627.627,0,0,1,.132.027V198.765h16.283v-.1l.062-.574a.046.046,0,0,1,0-.017Z" transform="translate(-79.884 -102.31)"/>
    <path id="Path_4213" data-name="Path 4213" class="cls-2" d="M271.482,208.2h.314a.752.752,0,0,1-.374-.605h0c0-.479.587-.87,1.3-.87h9.122c.717,0,1.3.391,1.3.87h0c0,.477-.587.87-1.3.87h-.3a.754.754,0,0,1,.372.605c0,.413-.426.752-1,.845h2.626c.715,0,1.3.39,1.3.87s-.587.868-1.3.868h-9.132c-.715,0-1.3-.39-1.3-.868,0-.413.426-.752,1-.845h-2.626c-.715,0-1.3-.39-1.3-.87S270.763,208.2,271.482,208.2Z" transform="translate(-228.915 -175.445)"/>
    <path id="Path_4214" data-name="Path 4214" class="cls-2" d="M750,248.265h.306a.754.754,0,0,1-.374-.607h0c0-.477.587-.868,1.3-.868h9.122c.717,0,1.3.391,1.3.868h0c0,.479-.587.87-1.3.87h-.3a.756.756,0,0,1,.372.607c0,.413-.426.75-1,.843h2.626c.715,0,1.3.393,1.3.87s-.587.87-1.3.87h-9.12c-.715,0-1.3-.391-1.3-.87,0-.413.426-.752,1-.843H750c-.715,0-1.3-.393-1.3-.87S749.291,248.265,750,248.265Z" transform="translate(-608.57 -207.237)"/>
    <path id="Path_4215" data-name="Path 4215" class="cls-2" d="M203.752,419.727h.306a.756.756,0,0,1-.372-.607h0c0-.477.585-.87,1.3-.87h9.122c.717,0,1.3.393,1.3.87h0c0,.479-.587.87-1.3.87h-.3a.756.756,0,0,1,.372.607c0,.413-.426.75-1,.843h2.626c.717,0,1.3.39,1.3.87s-.585.87-1.3.87h-9.124c-.715,0-1.3-.393-1.3-.87,0-.413.428-.752,1-.845h-2.626c-.715,0-1.3-.39-1.3-.868S203.037,419.727,203.752,419.727Z" transform="translate(-175.179 -343.272)"/>
    <path id="Path_4216" data-name="Path 4216" class="cls-3" d="M662.894,713.44l-1.533,1.213c-.3.238-.6.473-.9.709-.219.171-.436.343-.659.512-1.118.862-2.25,1.7-3.4,2.51-.275.192-.554.384-.826.572A43.577,43.577,0,0,1,648.223,723l-.033.014V713.44Z" transform="translate(-528.826 -577.474)"/>
    <path id="Path_4217" data-name="Path 4217" class="cls-4" d="M468.3,337.943l.231-7.138c-.138-.107-.279-.207-.413-.306a38.044,38.044,0,0,0-.364-6.366c-.934-7.138-7-7.293-8.708-5.82a4.136,4.136,0,0,1-.738.508c.155-1.019.347-2.039.486-3.047.748-5.438-.413-11.555-4.632-15.07-1.766-1.469-3.925-2.372-5.866-3.6-3.475-2.192-6.221-5.43-9.735-7.564s-8.45-2.934-11.516-.19c-1.188,1.062-1.954,2.535-3.173,3.56-2.273,1.909-5.816,2.035-7.8,4.167h0c-.1.107-.194.217-.285.333-1.653,2.12-1.2,5.126-.674,7.756.634,3.165.372,5.7,3.087,6.611.01.126.019.252.033.376a13.411,13.411,0,0,0,5.9,9.653l-.44.157c-1.174.413-2.229.814-2.9,1.089-2.479,1.01-7.7,2.326-7.7,2.326s-.124,1.488-.1,3.682c-1.74,1.89-4.642,5.213-5.5,7.182-1.24,2.872-8.244,11.1-10.109,12.338s-3.888,2.715-3.888,2.715a18.244,18.244,0,0,1-4.353,1.785,23.446,23.446,0,0,1-3.967-.467s-11.973-14.669-11.2-3.413,10.341,11.638,10.341,11.638l9.642-.155s5.211.7,7.543-1.24c1.992-1.653,12.314-10.721,15.63-14.834.076.085.153.167.233.248,0,0,1.32-1.707,1.477,0s-.857,2.479-.312,3.1,2.178,2.793,2.254,3.647-2.176,4.339,1.632,6.983c.06.041.124.081.194.12a9.753,9.753,0,0,0,2.841,3.062l11.663-.155,22.006,1.707s.655-.576,1.541-1.519a4.816,4.816,0,0,0,4.678,1.446s2.645-3.18,2.723-5.275c0,0-1.711-4.423-2.479-5.742s.545-4.19.545-4.19.932-2.793,1.477-2.793.155-1.859.155-1.859a2.26,2.26,0,0,1-.233-2.1A20.051,20.051,0,0,0,468.3,337.943Z" transform="translate(-311.242 -239.612)"/>
    <path id="Path_4218" data-name="Path 4218" class="cls-5" d="M675.788,446.152l-.826.967h0l-3.339,3.888-4.362.264-6.981.43s-9.413-11.343-7.644-13.812a4.52,4.52,0,0,0,.62-3.176c-.017-.153-.039-.306-.066-.457a13.2,13.2,0,0,0-1.1-3.388l.231-.105.149-.068,8.231-3.756,2.037-.93a5.5,5.5,0,0,0,.558,1.607c.039.079.083.157.128.231,2.808,4.649,11.812,1.709,11.812,1.709Z" transform="translate(-531.921 -349.429)"/>
    <path id="Path_4219" data-name="Path 4219" class="cls-5" d="M770.662,447.6a13.574,13.574,0,0,1-.521,4.029l-11.651,1.775-.436-3.025-1.725-11.944,1.62-1.62a4.324,4.324,0,0,0,3.7-.926c1.7-1.467,7.715-1.312,8.64,5.785A39.305,39.305,0,0,1,770.662,447.6Z" transform="translate(-614.624 -356.684)"/>
    <path id="Path_4220" data-name="Path 4220" class="cls-6" d="M787.16,608.384s2.622-3.163,2.7-5.246l-2.624-4.4-2.314-2.479L780.6,604.6S783.455,609.541,787.16,608.384Z" transform="translate(-633.88 -484.504)"/>
    <path id="Path_4221" data-name="Path 4221" class="cls-7" d="M787.16,608.384s2.622-3.163,2.7-5.246l-2.624-4.4-2.314-2.479L780.6,604.6S783.455,609.541,787.16,608.384Z" transform="translate(-633.88 -484.504)"/>
    <path id="Path_4222" data-name="Path 4222" class="cls-8" d="M203.31,694.59c-.219.171-.436.343-.659.512-1.118.862-2.25,1.7-3.4,2.51-.275.192-.554.384-.826.572H132.513l-19.5-.7-15.681-.132-3.926-.207L73.82,696.115a49.174,49.174,0,0,1-1.614-7.2c-.081-.55-.153-1.1-.207-1.653l21.4,1.186,3.925.221L132.5,690.63l3.936.219,50.689,2.831,3.9.219h.033Z" transform="translate(-71.68 -556.703)"/>
    <path id="Path_4223" data-name="Path 4223" class="cls-9" d="M228.823,628.717a55.245,55.245,0,0,0-12.4,5.1c-.312.18-.62.364-.932.552s-.62.376-.919.57-.6.386-.9.583l-.459.31-.448.306c-.442.3-.878.62-1.314.926l-.017.012q-.431.31-.857.62c-1.609,1.192-3.184,2.44-4.752,3.692q-.5.4-.994.791l-1.529,1.213c-.3.238-.6.473-.9.709-.219.172-.436.343-.659.512l-11.57-.552h-.033l-3.9-.182-50.711-2.4-3.936-.188-35.181-1.671-3.926-.188-21.2-1c-.081-.55-.153-1.1-.207-1.653q-.161-1.419-.24-2.851l21.644-7.644,3.925-1.39,3.566-1.26,6.5.339,15.018.771h0l10.107.531,3.936.207,2.514.132h0l.6.033h0l21.161,1.105h0l.223.015h0l9.442.492h.169l.944.047h0l3.219.169,4.025.207h0l1.326.07h0l.25.015,1.876.1h0l.535.027h0l1.791.095h0l.713.039h.171l1.676.089,2.595.136h.012l.806.041h.087l.481.027,1.182.062h0l1.033.054h.01l1.159.06h.019l.878.047h0l.674.035,2.39.126h0l.43.023h.149l.207.012h0l.7.037h0l.314.016h0l2.438.126h.223l3.6-.031h.025l13.683-.111h1.353l4.4-.035h.657Z" transform="translate(-70.76 -506.22)"/>
    <path id="Path_4224" data-name="Path 4224" class="cls-10" d="M387.217,640.734l1.273,6.771,34.6-.521s2.6.752,2.545-1.331c0,0,5.266-4.977,31.941.81l-10.241-8.043-28,1.5-32.462-.868Z" transform="translate(-321.504 -517.954)"/>
    <path id="Path_4225" data-name="Path 4225" class="cls-11" d="M391.59,640.346,392.8,647.7s29.751-.868,34.429-.058l-3.535-6.713S405.709,639.247,391.59,640.346Z" transform="translate(-325.241 -519.186)"/>
    <path id="Path_4226" data-name="Path 4226" class="cls-7" d="M391.59,640.346,392.8,647.7s29.751-.868,34.429-.058l-3.535-6.713S405.709,639.247,391.59,640.346Z" transform="translate(-325.241 -519.186)"/>
    <path id="Path_4227" data-name="Path 4227" class="cls-11" d="M393.74,640.317l1.2,6.835s29.373-.806,34-.054l-3.485-6.242S407.682,639.294,393.74,640.317Z" transform="translate(-326.947 -519.183)"/>
    <path id="Path_4228" data-name="Path 4228" class="cls-7" d="M396.35,641.408l1.167,6.392s28.728-.754,33.263-.05l-3.409-5.841S409.988,640.443,396.35,641.408Z" transform="translate(-329.018 -520.064)"/>
    <path id="Path_4229" data-name="Path 4229" class="cls-11" d="M397.47,640.295l1.174,6.4s28.728-.754,33.263-.049L428.49,640.8S411.108,639.338,397.47,640.295Z" transform="translate(-329.906 -519.184)"/>
    <path id="Path_4230" data-name="Path 4230" class="cls-10" d="M283.213,557.41s1.5,1.965-.692,4.934-4.01,5.473-3.277,7.324c0,0,3.306-5.512,6.012-5.578S286.182,560.724,283.213,557.41Z" transform="translate(-235.975 -453.681)"/>
    <path id="Path_4231" data-name="Path 4231" class="cls-7" d="M283.54,557.41a2.388,2.388,0,0,1,.308.62c2.632,3.1,4.035,5.992,1.5,6.054-2.357.066-5.184,4.281-5.861,5.347q.035.12.081.242s3.306-5.512,6.012-5.578S286.508,560.724,283.54,557.41Z" transform="translate(-236.302 -453.681)"/>
    <path id="Path_4232" data-name="Path 4232" class="cls-12" d="M311.287,567.836c0,.69-.078,1.252-.174,1.252s-.174-.562-.174-1.252.1-.368.192-.368S311.287,567.144,311.287,567.836Z" transform="translate(-261.254 -461.601)"/>
    <path id="Path_4233" data-name="Path 4233" class="cls-12" d="M312.71,571.7c-.607.333-1.136.533-1.182.448s.413-.413,1.017-.752.368-.091.413,0S313.317,571.369,312.71,571.7Z" transform="translate(-261.718 -464.64)"/>
    <path id="Path_4234" data-name="Path 4234" class="cls-10" d="M247.7,557.41s-1.5,1.965.694,4.934,4.008,5.473,3.277,7.324c0,0-3.316-5.512-6.014-5.578S244.734,560.724,247.7,557.41Z" transform="translate(-208.405 -453.681)"/>
    <path id="Path_4235" data-name="Path 4235" class="cls-7" d="M247.7,557.41a2.481,2.481,0,0,0-.308.62c-2.632,3.1-4.035,5.992-1.5,6.054,2.357.066,5.186,4.281,5.863,5.347a2.493,2.493,0,0,1-.081.242s-3.316-5.512-6.014-5.578S244.734,560.724,247.7,557.41Z" transform="translate(-208.405 -453.681)"/>
    <path id="Path_4236" data-name="Path 4236" class="cls-12" d="M247.13,567.836c0,.69.079,1.252.174,1.252s.174-.562.174-1.252-.1-.368-.192-.368S247.13,567.144,247.13,567.836Z" transform="translate(-210.627 -461.601)"/>
    <path id="Path_4237" data-name="Path 4237" class="cls-12" d="M241.075,571.7c.607.333,1.138.533,1.184.448s-.413-.413-1.017-.752-.368-.091-.413,0S240.468,571.369,241.075,571.7Z" transform="translate(-205.531 -464.64)"/>
    <path id="Path_4238" data-name="Path 4238" class="cls-3" d="M256.881,600.387l-.074.62-.105.866-.043.362-.105.868-.045.362-.107.868-1.2,9.859c-.107.88-1.545,1.566-3.281,1.566h-6.244c-1.735,0-3.171-.686-3.279-1.566l-1.2-9.859-.105-.868-.043-.362-.107-.868-.043-.362-.105-.866-.076-.62c-.06-.5.717-.917,1.7-.917h12.781C256.17,599.47,256.949,599.889,256.881,600.387Z" transform="translate(-205.529 -487.051)"/>
    <path id="Path_4239" data-name="Path 4239" class="cls-13" d="M186.678,551.59l-.105.868H170.755l-.105-.868Z" transform="translate(-135.395 -437.64)"/>
    <path id="Path_4240" data-name="Path 4240" class="cls-13" d="M187.1,557.54l-.105.868H171.477l-.107-.868Z" transform="translate(-135.967 -442.361)"/>
    <path id="Path_4241" data-name="Path 4241" class="cls-13" d="M187.529,563.49l-.105.866H172.205l-.105-.866Z" transform="translate(-136.546 -447.082)"/>
    <path id="Path_4242" data-name="Path 4242" class="cls-14" d="M396.46,594.609s-4.012-3.857-3.857,1.157S396.46,594.609,396.46,594.609Z" transform="translate(-326.042 -482.07)"/>
    <path id="Path_4243" data-name="Path 4243" class="cls-5" d="M417.254,498.88a5.851,5.851,0,0,1-1.194,1.841c-3.479,4.19-13.378,12.9-15.318,14.514-2.314,1.93-7.483,1.24-7.483,1.24l-9.566.155s-9.489-.386-10.262-11.57,11.109,3.395,11.109,3.395a23.2,23.2,0,0,0,3.936.463,18.05,18.05,0,0,0,4.32-1.773s2.006-1.467,3.857-2.7,8.8-9.413,10.031-12.268c.783-1.812,3.306-4.775,5.047-6.7,1-1.105,1.742-1.859,1.742-1.859S417.794,496.487,417.254,498.88Z" transform="translate(-310.806 -395.136)"/>
    <path id="Path_4244" data-name="Path 4244" class="cls-7" d="M564.473,498.848a5.851,5.851,0,0,1-1.194,1.841c-3.512-3.576-4.246-10.713-4.328-15.25,1-1.105,1.742-1.859,1.742-1.859S565.012,496.456,564.473,498.848Z" transform="translate(-458.024 -395.105)"/>
    <path id="Path_4245" data-name="Path 4245" class="cls-7" d="M674.959,465.113h0L671.622,469l-4.362.264-6.981.43s-9.413-11.343-7.644-13.812a4.52,4.52,0,0,0,.62-3.175c-.017-.153-.039-.306-.066-.457a13.2,13.2,0,0,0-1.1-3.388l.231-.105.149-.068a14.818,14.818,0,0,1,.756,3.163c.023.147.043.3.064.457.072.558.138,1.178.207,1.859.537,6.244,4.465,8.593,6.237,9.341a17.983,17.983,0,0,1,1.669.808,8.907,8.907,0,0,0,5.6,1.012,16.933,16.933,0,0,0,7.944-3.754l.019,3.13Z" transform="translate(-531.921 -367.423)"/>
    <path id="Path_4246" data-name="Path 4246" class="cls-10" d="M602.741,485.614s-28.7-.079-32.483-2.7-1.541-6.095-1.62-6.944-1.7-3.008-2.235-3.628.463-1.388.308-3.085-1.465,0-1.465,0c-5.4-5.479-4.246-19.365-4.246-19.365s5.165-1.31,7.644-2.316c.671-.273,1.717-.661,2.892-1.081l.436-.157c3.031-1.085,6.634-2.31,6.634-2.31s.692-.49,1.388.975a12.876,12.876,0,0,1,.895,3.492c.023.147.043.3.064.457.072.558.138,1.178.207,1.859.537,6.244,4.465,8.593,6.237,9.341a17.983,17.983,0,0,1,1.669.808,8.907,8.907,0,0,0,5.6,1.012,16.932,16.932,0,0,0,7.944-3.754l.019,3.13.054,9.4Z" transform="translate(-459.568 -363.662)"/>
    <path id="Path_4247" data-name="Path 4247" class="cls-5" d="M637.419,582.526l-.463,2.932s-11.419,2.853-15.892,3.7-14.119-.231-14.814,1.62,2.932,4.4,2.932,4.4l11.57-.155,21.834,1.7s8.332-7.33,5.632-12.423S637.419,582.526,637.419,582.526Z" transform="translate(-495.482 -472.764)"/>
    <path id="Path_4248" data-name="Path 4248" class="cls-7" d="M626.773,474.58s-5.248,4.32-4.244,6.4S626.773,474.58,626.773,474.58Z" transform="translate(-508.366 -387.964)"/>
    <path id="Path_4249" data-name="Path 4249" class="cls-7" d="M592.884,512.29s-5.324,9.182-5.014,9.876,1.775,3.163,1.7,1.312S592.884,512.29,592.884,512.29Z" transform="translate(-480.958 -417.883)"/>
    <path id="Path_4250" data-name="Path 4250" class="cls-7" d="M612.208,520.14s-1.24,5.709-2.469,8.1S612.208,520.14,612.208,520.14Z" transform="translate(-498.121 -424.111)"/>
    <path id="Path_4251" data-name="Path 4251" class="cls-7" d="M631.882,427.879a13.347,13.347,0,0,1-10.144,6.863h-.025a13.324,13.324,0,0,1-9.392-2.459c3.1-1.12,7.07-2.467,7.07-2.467s.692-.49,1.388.975L631.2,426.04A5.523,5.523,0,0,0,631.882,427.879Z" transform="translate(-500.367 -349.453)"/>
    <path id="Path_4252" data-name="Path 4252" class="cls-5" d="M612.373,350.538a13.287,13.287,0,0,1-1.756,6.624,13.442,13.442,0,0,1-1.99,2.649,13.291,13.291,0,0,1-8.091,4h-.027a13.031,13.031,0,0,1-1.483.085,13.347,13.347,0,0,1-13.262-11.843,12.958,12.958,0,0,1-.085-1.506,13.347,13.347,0,1,1,26.693,0Z" transform="translate(-479.231 -278.968)"/>
    <path id="Path_4253" data-name="Path 4253" class="cls-7" d="M753.187,498.98l1.24-1.859s6.789-8.1,13.429-2.932l-.231,7.1a18.824,18.824,0,0,1-.773,3.306,2.258,2.258,0,0,0,.231,2.085s.386,1.859-.153,1.859-1.467,2.777-1.467,2.777-1.312,2.855-.539,4.167,2.469,5.708,2.469,5.708a8.506,8.506,0,0,1-3.473-4.32s-6.558-5.093-11.65-1.859Z" transform="translate(-611.403 -402.153)"/>
    <path id="Path_4254" data-name="Path 4254" class="cls-7" d="M777.287,489.933a13.574,13.574,0,0,1-.521,4.029l-11.651,1.775-.436-3.025C766.2,491.121,771.75,486.063,777.287,489.933Z" transform="translate(-621.249 -399.013)"/>
    <path id="Path_4255" data-name="Path 4255" class="cls-10" d="M753.187,496.98l1.24-1.859s6.789-8.1,13.429-2.932l-.231,7.1a18.824,18.824,0,0,1-.773,3.306,2.258,2.258,0,0,0,.231,2.085s.386,1.859-.153,1.859-1.467,2.777-1.467,2.777-1.312,2.855-.539,4.167,2.469,5.709,2.469,5.709a8.506,8.506,0,0,1-3.473-4.32s-6.558-5.093-11.65-1.859Z" transform="translate(-611.403 -400.566)"/>
    <path id="Path_4256" data-name="Path 4256" class="cls-7" d="M768.774,496.61s-11.186,6.868-10.646,12.89C758.127,509.5,764.377,498.461,768.774,496.61Z" transform="translate(-616.035 -405.443)"/>
    <path id="Path_4257" data-name="Path 4257" class="cls-7" d="M622.18,376.633l.054,9.4a7.734,7.734,0,0,1-5.686-1.55,6.823,6.823,0,0,1-2.066-3.7,13.1,13.1,0,0,1-.269-3.5.187.187,0,0,1,0-.035c.13-2.6.727-5.194.413-7.775s-1.878-5.3-4.432-5.847a2.675,2.675,0,0,1-1.43-.519,2.074,2.074,0,0,1-.335-1.628l.074-.965c.019-.248.027-.494.027-.74a9.469,9.469,0,0,0-7.644-9.285l-.083-.014a5.22,5.22,0,0,0-2.186-.122c-1.368.316-2.252,1.643-3.512,2.273-2.417,1.207-6.448-.114-8.979-.529-.165-.027-.322-.058-.473-.093a12.95,12.95,0,0,1-.085-1.506,13.347,13.347,0,1,1,24.937,6.624c.039.078.083.157.128.231,2.808,4.649,11.812,1.709,11.812,1.709l.541,16.588Z" transform="translate(-479.144 -278.941)"/>
    <path id="Path_4258" data-name="Path 4258" class="cls-15" d="M582.337,315.706c1.252-.632,2.136-1.959,3.512-2.273a5.269,5.269,0,0,1,2.188.12l.083.017a9.477,9.477,0,0,1,7.609,10.027l-.074.965a2.043,2.043,0,0,0,.337,1.626,2.612,2.612,0,0,0,1.428.517c2.554.545,4.118,3.254,4.432,5.849s-.293,5.2-.413,7.808.359,5.485,2.331,7.2c3.1,2.686,7.81,1.157,11.911.911-1.814,0-3.173-1.872-3.273-3.682a11.034,11.034,0,0,1,1.477-5.165,10.249,10.249,0,0,0,1.372-5.194c-.235-2.479-2.19-4.465-2.938-6.851-.872-2.777-.031-5.758.364-8.644.742-5.4-.413-11.489-4.6-14.983-1.752-1.461-3.895-2.359-5.82-3.583-3.45-2.188-6.171-5.4-9.659-7.525s-8.384-2.917-11.427-.19c-1.178,1.056-1.938,2.521-3.149,3.539-2.366,1.994-6.126,2.031-8.022,4.477-1.632,2.105-1.19,5.095-.667,7.708.7,3.485.3,6.2,4.029,6.818C575.889,315.595,579.918,316.915,582.337,315.706Z" transform="translate(-465.889 -242.241)"/>
    <path id="Path_4259" data-name="Path 4259" class="cls-7" d="M612.927,382.936c-2.985.366-5.944.554-8.117-1.331-1.971-1.713-2.457-4.589-2.331-7.2s.729-5.217.413-7.81-1.878-5.3-4.432-5.847a2.65,2.65,0,0,1-1.428-.517,2.059,2.059,0,0,1-.337-1.628l.074-.965a9.475,9.475,0,0,0-7.609-10.024l-.083-.017a5.27,5.27,0,0,0-2.188-.12c-1.368.316-2.252,1.653-3.512,2.273-2.419,1.209-6.446-.112-8.981-.527-3.719-.609-3.33-3.326-4.029-6.818a13.112,13.112,0,0,1-.207-5.959,3.262,3.262,0,0,0-.285.333c-1.632,2.105-1.19,5.095-.667,7.708.7,3.485.3,6.2,4.029,6.818,2.533.413,6.562,1.735,8.981.527,1.252-.632,2.136-1.959,3.512-2.273a5.27,5.27,0,0,1,2.188.12l.083.017a9.477,9.477,0,0,1,7.609,10.027l-.074.965a2.043,2.043,0,0,0,.337,1.626,2.612,2.612,0,0,0,1.428.517c2.554.545,4.118,3.254,4.432,5.849s-.291,5.2-.413,7.808.359,5.485,2.331,7.2c3.1,2.686,7.81,1.157,11.911.911A3.142,3.142,0,0,1,612.927,382.936Z" transform="translate(-465.785 -278.373)"/>
    <path id="Path_4260" data-name="Path 4260" class="cls-16" d="M369.572,576.266l12.737-4.752a1.213,1.213,0,0,1,1.56.711h0a1.213,1.213,0,0,1-.711,1.56l-12.737,4.752-2.731-.273Z" transform="translate(-306.279 -464.81)"/>
    <path id="Path_4261" data-name="Path 4261" class="cls-17" d="M383.453,572.569h0a1.213,1.213,0,0,1-.713,1.56L369.995,578.9l-2.05-.207-.3.314,2.731.273,12.737-4.752a1.213,1.213,0,0,0,.711-1.56h0a1.213,1.213,0,0,0-.5-.605A1.4,1.4,0,0,1,383.453,572.569Z" transform="translate(-306.247 -465.542)"/>
    <path id="Path_4262" data-name="Path 4262" class="cls-18" d="M299.142,539.52l.847,2.271-2.24-.225-.49-.05.669-.711Z" transform="translate(-235.847 -428.064)"/>
    <path id="Path_4263" data-name="Path 4263" class="cls-19" d="M368.383,601a.541.541,0,0,1,.132.143.207.207,0,0,1,0,.221.439.439,0,0,1-.122.089.413.413,0,0,0-.182.306l-.492-.048Z" transform="translate(-306.303 -488.265)"/>
    <path id="Path_4264" data-name="Path 4264" class="cls-11" d="M569.465,636.573s11.033-2.316,29.544.62l-7.252-5.322-13.194-2.7-9.334,2.479Z" transform="translate(-466.18 -510.615)"/>
    <path id="Path_4265" data-name="Path 4265" class="cls-7" d="M569.465,636.573s11.033-2.316,29.544.62l-7.252-5.322-13.194-2.7-9.334,2.479Z" transform="translate(-466.18 -510.615)"/>
    <path id="Path_4266" data-name="Path 4266" class="cls-11" d="M550.59,641.515s5.556-15.029,34.09.048l-10.241-6.591s-24.534-6.779-27.369,1.033Z" transform="translate(-448.598 -513.053)"/>
    <path id="Path_4267" data-name="Path 4267" class="cls-7" d="M550.535,637.313s5.556-16.068,34.09.289l-10.241-7.149s-24.543-8.107-27.384.378Z" transform="translate(-448.543 -508.861)"/>
    <path id="Path_4268" data-name="Path 4268" class="cls-11" d="M550.59,637.083s5.556-16.305,34.09.052l-10.241-7.149s-24.534-7.876-27.369.62Z" transform="translate(-448.598 -508.626)"/>
    <path id="Path_4269" data-name="Path 4269" class="cls-7" d="M550.559,634.543s5.556-18.121,34.09.279l-10.25-8.043s-24.534-8.264-27.369,1.273Z" transform="translate(-448.567 -506.081)"/>
    <path id="Path_4270" data-name="Path 4270" class="cls-11" d="M550.559,633.644s5.556-18.342,34.09.058l-10.25-8.043s-24.534-8.264-27.369,1.273Z" transform="translate(-448.567 -505.193)"/>
    <path id="Path_4271" data-name="Path 4271" class="cls-2" d="M965.942,668.71s-6.849,7.337-.684,10.9a1.71,1.71,0,0,0,1.957.463s-.389-.345.39-1.01a4.618,4.618,0,0,0,.733-.806,2.272,2.272,0,0,0,.426-1.376h0s.9-2.911-1.952-6.69c0,0-.258-1.264-.477-1.4l-.521,1.762a3.035,3.035,0,0,1,1.8,1.328s-1.723-1.353-1.89-1.07c-.033.058-.234.948-.234.948s2.273.587,2.983,2.149c0,0-1.837-1.886-3.062-1.812l-.223,1.36s2.432.5,3.306,2.252c0,0-1.988-1.907-3.339-1.95l-.039,1.366s2.362.537,3.083,2c0,0-2.519-1.969-3.07-1.682a6.755,6.755,0,0,0,.207,1.587s1.686.413,2.029,1.31c0,0-1.822-1.138-1.979-.965a7.109,7.109,0,0,0,1.172,2.316,5.14,5.14,0,0,1-1.421-2.227,2.834,2.834,0,0,0-.343,1.585s-.676-.748.229-1.979a6.535,6.535,0,0,1-.248-1.484,6.171,6.171,0,0,0-1.337,2.066,2.746,2.746,0,0,1,1.335-2.419v-1.376a8.774,8.774,0,0,0-1.789,2.211s-.021-1.281,1.82-2.556l.207-1.337a10.457,10.457,0,0,0-1.911,1.946,4.157,4.157,0,0,1,1.983-2.326l.242-.876s-.983.806-1.24,1.062-.353.207-.353.207a4.338,4.338,0,0,1,1.694-1.641A9.876,9.876,0,0,0,965.942,668.71Z" transform="translate(-778.345 -541.986)"/>
    <path id="Path_4272" data-name="Path 4272" class="cls-2" d="M1103.628,90.91s-9.151,4.132-4.837,9.791a1.712,1.712,0,0,0,1.626,1.184s-.225-.469.75-.783a4.529,4.529,0,0,0,.988-.461,2.274,2.274,0,0,0,.924-1.105h0s1.95-2.339.779-6.923c0,0,.25-1.266.1-1.479l-1.161,1.426a3.032,3.032,0,0,1,1.149,1.919s-1.066-1.913-1.33-1.715c-.054.039-.581.783-.581.783s1.859,1.417,1.923,3.134c0,0-.967-2.45-2.128-2.855l-.729,1.169s2.049,1.4,2.186,3.353c0,0-1.1-2.525-2.328-3.087l-.564,1.24s1.973,1.407,2.066,3.031c0,0-1.564-2.789-2.184-2.735a6.421,6.421,0,0,0-.413,1.543s1.393,1.033,1.368,1.992c0,0-1.24-1.752-1.446-1.653a7.074,7.074,0,0,0,.188,2.589,5.128,5.128,0,0,1-.453-2.6,2.827,2.827,0,0,0-.928,1.331s-.335-.952.975-1.74a6.477,6.477,0,0,1,.343-1.463,6.168,6.168,0,0,0-2.027,1.382s.279-1.209,2.165-1.717l.537-1.264a8.782,8.782,0,0,0-2.5,1.347s.475-1.19,2.665-1.653l.7-1.153a10.556,10.556,0,0,0-2.515,1.058,4.176,4.176,0,0,1,2.729-1.38l.56-.715s-1.219.364-1.56.5-.413.056-.413.056a4.338,4.338,0,0,1,2.209-.859A10.852,10.852,0,0,0,1103.628,90.91Z" transform="translate(-885.414 -83.562)"/>
    <path id="Path_4273" data-name="Path 4273" class="cls-2" d="M672.106,103.29s-13.748,3.925-7.064,9.768a2.652,2.652,0,0,0,2.5,1.24s-.355-.479,1.116-.771a8.738,8.738,0,0,0,1.483-.438A2.646,2.646,0,0,0,671.5,112h0s2.892-2.314.994-6.979c0,0,.345-1.273.114-1.492l-1.719,1.409s1.653.849,1.791,1.971c0,0-1.667-1.961-2.066-1.769-.081.039-.859.775-.859.775s2.868,1.483,3,3.221c0,0-1.529-2.5-3.306-2.942l-1.074,1.161s3.14,1.473,3.4,3.448c0,0-1.731-2.581-3.607-3.182l-.826,1.24s3.025,1.475,3.223,3.12c0,0-2.444-2.861-3.382-2.826a4.845,4.845,0,0,0-.589,1.552s2.136,1.091,2.126,2.05c0,0-1.93-1.806-2.248-1.711a4.924,4.924,0,0,0,.355,2.622,3.927,3.927,0,0,1-.756-2.642,3.106,3.106,0,0,0-1.368,1.318s-.533-.969,1.43-1.729c0,0,.25-1.318.479-1.471a10.107,10.107,0,0,0-3.031,1.343s.388-1.215,3.231-1.678l.781-1.264a15.831,15.831,0,0,0-3.756,1.3s.688-1.19,3.994-1.6l1.033-1.147a20.33,20.33,0,0,0-3.781,1s1-1,4.095-1.322l.826-.707s-1.837.335-2.349.463-.62.045-.62.045a8.138,8.138,0,0,1,3.306-.81S672.226,103.377,672.106,103.29Z" transform="translate(-540.743 -93.385)"/>
    <path id="Path_4274" data-name="Path 4274" class="cls-2" d="M891.5,800.48s6.921-7.27.791-10.894a1.713,1.713,0,0,0-1.952-.484s.386.349-.4,1.008a4.661,4.661,0,0,0-.742.8,2.258,2.258,0,0,0-.438,1.372h0s-.928,2.9,1.886,6.708c0,0,.246,1.267.463,1.409l.539-1.758a3.033,3.033,0,0,1-1.787-1.345s1.709,1.368,1.878,1.087c.035-.058.244-.944.244-.944s-2.273-.62-2.963-2.178c0,0,1.818,1.9,3.045,1.841l.236-1.357s-2.425-.527-3.287-2.273c0,0,1.969,1.926,3.32,1.983l.052-1.368s-2.357-.57-3.072-2.037c0,0,2.5,2,3.054,1.713a6.153,6.153,0,0,0-.207-1.587s-1.682-.442-2.016-1.331c0,0,1.812,1.157,1.969.983a7.09,7.09,0,0,0-1.149-2.326,5.138,5.138,0,0,1,1.4,2.24,2.825,2.825,0,0,0,.357-1.581s.669.756-.248,1.977a6.531,6.531,0,0,1,.234,1.485,6.188,6.188,0,0,0,1.355-2.043,2.708,2.708,0,0,1-1.357,2.4l-.021,1.376a8.771,8.771,0,0,0,1.81-2.194s0,1.283-1.845,2.539l-.207,1.335a10.486,10.486,0,0,0,1.93-1.928,4.163,4.163,0,0,1-2.006,2.306l-.25.874s.992-.8,1.256-1.05.355-.207.355-.207a4.325,4.325,0,0,1-1.711,1.624A10.591,10.591,0,0,0,891.5,800.48Z" transform="translate(-719.575 -637.393)"/>
    <path id="Path_4275" data-name="Path 4275" class="cls-2" d="M575.85,55.591s1.18,9.967,7.882,7.562a1.714,1.714,0,0,0,1.618-1.2s-.516.074-.521-.95a4.63,4.63,0,0,0-.143-1.081,2.256,2.256,0,0,0-.775-1.213h0s-1.645-2.566-6.378-2.818c0,0-1.132-.62-1.38-.541l1.01,1.535a3.025,3.025,0,0,1,2.176-.517s-2.145.442-2.035.752c.021.064.57.789.57.789s1.932-1.364,3.585-.9c0,0-2.626.182-3.361,1.167l.882,1.05s1.954-1.533,3.857-1.076c0,0-2.74.289-3.647,1.291l1.029.913s1.934-1.459,3.512-1.066c0,0-3.132.653-3.268,1.258a6.607,6.607,0,0,0,1.349.864s1.413-1.014,2.31-.7c0,0-2.045.657-2.014.888a7.1,7.1,0,0,0,2.525.6,5.243,5.243,0,0,1-2.618-.351,2.833,2.833,0,0,0,.99,1.285s-1.008.031-1.366-1.446a6.583,6.583,0,0,1-1.291-.767,6.183,6.183,0,0,0,.709,2.347,2.72,2.72,0,0,1-.988-2.581l-1.033-.895a8.818,8.818,0,0,0,.531,2.8s-.992-.812-.777-3.041l-.886-1.019a10.5,10.5,0,0,0,.25,2.715,4.16,4.16,0,0,1-.494-3.016l-.514-.75s-.019,1.271,0,1.638-.07.4-.07.4a4.338,4.338,0,0,1-.161-2.361A10.55,10.55,0,0,0,575.85,55.591Z" transform="translate(-471.432 -55.347)"/>
    <path id="Path_4276" data-name="Path 4276" class="cls-2" d="M779.508,733.391s-9.673-2.686-9.983,4.43a1.714,1.714,0,0,0,.494,1.95s.126-.5,1.076-.122a4.615,4.615,0,0,0,1.054.279,2.257,2.257,0,0,0,1.417-.26h0s3-.55,5.029-4.822c0,0,1-.812,1.033-1.072l-1.8.353a3.033,3.033,0,0,1-.347,2.211s.413-2.153.076-2.169c-.068,0-.948.229-.948.229s.529,2.285-.527,3.638c0,0,.826-2.5.192-3.554l-1.31.432s.678,2.389-.467,3.975c0,0,.773-2.642.186-3.862l-1.227.6s.62,2.343-.345,3.657c0,0,.583-3.145.072-3.5a6.719,6.719,0,0,0-1.308.922s.413,1.692-.223,2.4c0,0,.165-2.142-.06-2.2a7.072,7.072,0,0,0-1.512,2.109,5.137,5.137,0,0,1,1.318-2.289,2.837,2.837,0,0,0-1.564.428s.351-.944,1.859-.711a6.48,6.48,0,0,1,1.2-.905,6.14,6.14,0,0,0-2.442-.235,2.733,2.733,0,0,1,2.762.066l1.223-.62a8.81,8.81,0,0,0-2.787-.566s1.126-.62,3.1.432l1.277-.436a10.512,10.512,0,0,0-2.607-.8,4.166,4.166,0,0,1,2.979.686l.888-.192s-1.169-.5-1.519-.62-.347-.207-.347-.207a4.338,4.338,0,0,1,2.238.744A10.69,10.69,0,0,0,779.508,733.391Z" transform="translate(-624.997 -592.909)"/>
  </g>
</svg>
