<svg id="mother_checklist" xmlns="http://www.w3.org/2000/svg" xmlns:xlink="http://www.w3.org/1999/xlink" width="161.673" height="123.519" viewBox="0 0 161.673 123.519">
  <defs>
    <style>
      .cls-1, .cls-8 {
        fill: #f18bab;
      }

      .cls-1 {
        opacity: 0.24;
      }

      .cls-2 {
        fill: url(#linear-gradient);
      }

      .cls-3 {
        fill: #f5c7c8;
      }

      .cls-4 {
        fill: #606161;
      }

      .cls-5 {
        fill: url(#linear-gradient-2);
      }

      .cls-6 {
        fill: #dbb4af;
      }

      .cls-7 {
        fill: url(#linear-gradient-3);
      }

      .cls-9 {
        fill: url(#linear-gradient-4);
      }

      .cls-10 {
        fill: url(#linear-gradient-5);
      }

      .cls-11 {
        fill: #4eae93;
      }

      .cls-12 {
        fill: url(#linear-gradient-6);
      }

      .cls-13 {
        fill: url(#linear-gradient-7);
      }

      .cls-14 {
        fill: url(#linear-gradient-8);
      }

      .cls-15 {
        fill: url(#linear-gradient-9);
      }

      .cls-16 {
        fill: url(#linear-gradient-10);
      }

      .cls-17 {
        fill: #fff;
      }

      .cls-18 {
        fill: url(#linear-gradient-11);
      }

      .cls-19 {
        fill: url(#linear-gradient-12);
      }

      .cls-20 {
        fill: url(#linear-gradient-13);
      }

      .cls-21 {
        fill: url(#linear-gradient-14);
      }

      .cls-22 {
        fill: url(#linear-gradient-15);
      }

      .cls-23 {
        fill: url(#linear-gradient-16);
      }

      .cls-24 {
        fill: url(#linear-gradient-17);
      }
    </style>
    <linearGradient id="linear-gradient" x1="0.492" y1="4.428" x2="0.544" y2="-20.996" gradientUnits="objectBoundingBox">
      <stop offset="0" stop-color="#010101" stop-opacity="0"/>
      <stop offset="0.95" stop-color="#010101"/>
    </linearGradient>
    <linearGradient id="linear-gradient-2" x1="0.83" y1="0.519" x2="-0.121" y2="0.478" xlink:href="#linear-gradient"/>
    <linearGradient id="linear-gradient-3" x1="0.65" y1="0.515" x2="-0.594" y2="0.44" xlink:href="#linear-gradient"/>
    <linearGradient id="linear-gradient-4" x1="-1.537" y1="0.733" x2="14.069" y2="-0.869" xlink:href="#linear-gradient"/>
    <linearGradient id="linear-gradient-5" x1="0.347" y1="0.736" x2="3.34" y2="-3.644" xlink:href="#linear-gradient"/>
    <linearGradient id="linear-gradient-6" x1="0.645" y1="1.762" x2="0.062" y2="-2.771" xlink:href="#linear-gradient"/>
    <linearGradient id="linear-gradient-7" x1="0.56" y1="1.117" x2="-0.022" y2="-3.414" xlink:href="#linear-gradient"/>
    <linearGradient id="linear-gradient-8" x1="0.798" y1="0.299" x2="0.116" y2="0.751" xlink:href="#linear-gradient"/>
    <linearGradient id="linear-gradient-9" x1="0.42" y1="-0.337" x2="0.577" y2="1.305" gradientUnits="objectBoundingBox">
      <stop offset="0" stop-color="#fff" stop-opacity="0"/>
      <stop offset="0.14" stop-color="#fff" stop-opacity="0.22"/>
      <stop offset="0.3" stop-color="#fff" stop-opacity="0.451"/>
      <stop offset="0.45" stop-color="#fff" stop-opacity="0.651"/>
      <stop offset="0.6" stop-color="#fff" stop-opacity="0.8"/>
      <stop offset="0.73" stop-color="#fff" stop-opacity="0.91"/>
      <stop offset="0.85" stop-color="#fff" stop-opacity="0.98"/>
      <stop offset="0.94" stop-color="#fff"/>
    </linearGradient>
    <linearGradient id="linear-gradient-10" x1="-0.219" y1="0.98" x2="2.366" y2="-0.737" xlink:href="#linear-gradient"/>
    <linearGradient id="linear-gradient-11" x1="8.054" y1="0.339" x2="-41.258" y2="1.424" xlink:href="#linear-gradient-9"/>
    <linearGradient id="linear-gradient-12" x1="2.024" y1="0.069" x2="-7.549" y2="2.642" xlink:href="#linear-gradient-9"/>
    <linearGradient id="linear-gradient-13" x1="0.537" y1="0.379" x2="0.447" y2="1.666" xlink:href="#linear-gradient-9"/>
    <linearGradient id="linear-gradient-14" x1="0.311" y1="1.316" x2="1.579" y2="-1.263" xlink:href="#linear-gradient"/>
    <linearGradient id="linear-gradient-15" x1="0.503" y1="1.146" x2="0.496" y2="-0.306" xlink:href="#linear-gradient-9"/>
    <linearGradient id="linear-gradient-16" x1="0.49" y1="-0.76" x2="0.558" y2="7.746" xlink:href="#linear-gradient"/>
    <linearGradient id="linear-gradient-17" x1="0.498" y1="0.858" x2="0.509" y2="-1.78" xlink:href="#linear-gradient"/>
  </defs>
  <path id="路径_4052" data-name="路径 4052" class="cls-1" d="M163.94,101.24c-.058,7.5-1.044,15.145-4.12,21.841a35.913,35.913,0,0,1-8.13,11.227c-8.012,7.578-19.132,11.681-29.885,12.968-15.2,1.819-30.581-.763-45.871.038-9.541.5-19.016,2.313-28.569,2.565s-19.479-1.217-27.589-6.725a35.91,35.91,0,0,1-8.1-7.665A43.947,43.947,0,0,1,4.84,122.812c-6.095-17.585-1.061-39.059,12.034-51.283C22.041,66.7,28.2,63.314,34.311,60.041c12.794-6.821,34.276-54.356,84.611-23.13,9.83,6.115,14.922,18.637,23.613,26.562,7.74,7.055,16.518,13.956,19.791,24.368A43.521,43.521,0,0,1,163.94,101.24Z" transform="translate(-2.27 -26.385)"/>
  <path id="路径_4053" data-name="路径 4053" class="cls-1" d="M174.829,392.987c-8.012,7.578-19.132,11.681-29.885,12.968-15.2,1.819-30.581-.763-45.871.038-9.541.5-19.016,2.313-28.569,2.565s-19.479-1.217-27.589-6.725a35.909,35.909,0,0,1-8.1-7.665,20.1,20.1,0,0,1,2.365-.454c16.035-2.168,32.264-2.429,48.444-2.68l44.17-.7a130.359,130.359,0,0,1,14.691.318c6.239.6,12.366,2.09,18.608,2.651C167.057,393.666,170.928,393.088,174.829,392.987Z" transform="translate(-25.409 -285.065)"/>
  <path id="路径_4054" data-name="路径 4054" class="cls-2" d="M165.787,399.8a825.753,825.753,0,0,0-89.654-.081c-5.045.269-10.18.6-14.893,2.429,2.313,2.114,5.754,2.281,8.888,2.333q34.45.555,68.906.306c1.347,0,3.209-.6,2.943-1.923-.081-.4-.373-.758-.35-1.156.043-.737.986-1,1.735-1.038a28.5,28.5,0,0,1,5.962.318,3.142,3.142,0,0,1,1.949.839,7.9,7.9,0,0,1,.763,1.5c.885,1.616,3.094,1.969,4.915,1.613s3.516-1.214,5.358-1.307a17.528,17.528,0,0,1,4.791.807c5.178,1.2,10.576.755,15.87.306,5.493-.465,5.609-4.262.133-4.565C177.355,399.871,171.546,400.117,165.787,399.8Z" transform="translate(-44.19 -290.937)"/>
  <path id="路径_4055" data-name="路径 4055" class="cls-3" d="M487.478,233.471,485,219.94h3.4s.781,10.825,1.157,13.76Z" transform="translate(-345.428 -163.977)"/>
  <path id="路径_4056" data-name="路径 4056" class="cls-3" d="M492.973,263.149a9.681,9.681,0,0,1,.2,3.287c-.28,1.177-1.446,2.547-2.1,2.628s-1.064-.243-1.015-.691,1.735-2.041,1.475-2.547-.925,1.032-1.156.659-.133-.951.448-1.683a1.719,1.719,0,0,0,0-1.752S492.563,262.276,492.973,263.149Z" transform="translate(-349.015 -194.398)"/>
  <path id="路径_4057" data-name="路径 4057" class="cls-4" d="M475.956,122.1a3.527,3.527,0,0,1,2.862-.058,3.635,3.635,0,0,1,2.131,2.4,4.336,4.336,0,0,1,.11,1.541,4.107,4.107,0,0,1-1.515,2.961c-1.931,1.411-3.123.1-3.7-1.66a6.54,6.54,0,0,1-.341-3.117c.1-.8-.26-1.423.356-1.992Z" transform="translate(-338.639 -94.187)"/>
  <path id="路径_4058" data-name="路径 4058" class="cls-5" d="M475.956,122.1a3.527,3.527,0,0,1,2.862-.058,3.635,3.635,0,0,1,2.131,2.4,4.336,4.336,0,0,1,.11,1.541,4.107,4.107,0,0,1-1.515,2.961c-1.931,1.411-3.123.1-3.7-1.66a6.54,6.54,0,0,1-.341-3.117c.1-.8-.26-1.423.356-1.992Z" transform="translate(-338.639 -94.187)"/>
  <ellipse id="椭圆_159" data-name="椭圆 159" class="cls-4" cx="5.355" cy="6.679" rx="5.355" ry="6.679" transform="translate(127.914 24.473)"/>
  <path id="路径_4059" data-name="路径 4059" class="cls-3" d="M391.1,190.914a9.835,9.835,0,0,0-1.408-1.992c-.425-.257-1.18-.971-1.4-.81-.4.289,1.31,1.8-.211,1.691a3.249,3.249,0,0,0-2.05.552,1.13,1.13,0,0,0,.055,1.689,6.29,6.29,0,0,0,2.51.376,4.268,4.268,0,0,1,2.111.387" transform="translate(-274.826 -141.335)"/>
  <path id="路径_4060" data-name="路径 4060" class="cls-3" d="M413.543,172.4a19.375,19.375,0,0,0-.772,3.4,58.982,58.982,0,0,1-.818,6.456c-.188.246-9.186-2.813-9.186-2.813a2.631,2.631,0,0,0-.11,2.209s6.682,6.046,10.727,6.283,3.525-9.342,3.525-9.342" transform="translate(-286.774 -130.183)"/>
  <path id="路径_4061" data-name="路径 4061" class="cls-3" d="M460.974,352.271l-.743,1.68c.439-.15,2.544,1.541,3.493,1.544a3.013,3.013,0,0,0,1.717-.627l-.6-3.045-1.061-15.072-5.7.827Z" transform="translate(-326.291 -247.014)"/>
  <path id="路径_4062" data-name="路径 4062" class="cls-3" d="M427.366,355.985l-1.1,1.026c.463-.035,2.079,2.128,3,2.368a3.021,3.021,0,0,0,1.821-.179l.179-3.1,1.157-13.951-5.624.552Z" transform="translate(-303.679 -250.853)"/>
  <path id="路径_4063" data-name="路径 4063" class="cls-3" d="M459.578,149.54l.228,4.852a2.524,2.524,0,0,1-2.313,1.084c-2.342-.26-2.241-.954-2.241-.954s0-3.5-.092-4.285" transform="translate(-324.216 -113.932)"/>
  <path id="路径_4064" data-name="路径 4064" class="cls-6" d="M459.027,152.6l.541-.977-4.4.489c.035.289.058.995.069,1.735A3.5,3.5,0,0,0,459.027,152.6Z" transform="translate(-324.223 -115.411)"/>
  <path id="路径_4065" data-name="路径 4065" class="cls-4" d="M441.772,269.351s.705,13.346,1.645,24.148c0,0-12.907,1.859-18.178-.208,0,0,1.133-21.523,1.37-24.611Z" transform="translate(-302.946 -198.625)"/>
  <path id="路径_4066" data-name="路径 4066" class="cls-7" d="M441.772,269.351s.705,13.346,1.645,24.148c0,0-12.907,1.859-18.178-.208,0,0,1.133-21.523,1.37-24.611Z" transform="translate(-302.946 -198.625)"/>
  <path id="路径_4067" data-name="路径 4067" class="cls-8" d="M444.488,168.817s-.023-.954-3.328-.983a22.33,22.33,0,0,0-4.961.107c-3.123.6-3.47.789-3.947,1.194-1.13.974-3.047,27.178-3.047,27.178s-1.917,3.146,8.009,4.158c3.672.376,7.228-2.168,7.228-2.168Z" transform="translate(-305.659 -126.88)"/>
  <path id="路径_4068" data-name="路径 4068" class="cls-3" d="M453.222,115.806s-.194,6.213-2,8.339c-1.905,2.244-2.99,2.518-5.3,1.6-1.966-.784-2.2-6.164-2.267-7.714C443.481,114.011,449.645,110.547,453.222,115.806Z" transform="translate(-316.032 -88.054)"/>
  <path id="路径_4069" data-name="路径 4069" class="cls-9" d="M473.194,159.78,473.339,185l-2.281,1.316-.408-22.275Z" transform="translate(-334.568 -113.587)"/>
  <path id="路径_4070" data-name="路径 4070" class="cls-8" d="M456.229,163.138l.043,1.136a.474.474,0,0,1-.26.439,19.844,19.844,0,0,1-4.866.766l-2.267-.578a.471.471,0,0,1-.289-.408l-.032-.564a.477.477,0,0,1,.419-.5l6.711-.76a.477.477,0,0,1,.541.468Z" transform="translate(-319.522 -123.263)"/>
  <path id="路径_4071" data-name="路径 4071" class="cls-10" d="M456.229,163.138l.043,1.136a.474.474,0,0,1-.26.439,19.844,19.844,0,0,1-4.866.766l-2.267-.578a.471.471,0,0,1-.289-.408l-.032-.564a.477.477,0,0,1,.419-.5l6.711-.76a.477.477,0,0,1,.541.468Z" transform="translate(-319.522 -123.263)"/>
  <path id="路径_4072" data-name="路径 4072" class="cls-3" d="M473.47,134.443a.659.659,0,0,1,1.021-.532c.922.4.055,2.024-.3,2.478a1.141,1.141,0,0,1-1.047.309" transform="translate(-336.997 -102.75)"/>
  <path id="路径_4073" data-name="路径 4073" class="cls-11" d="M475.22,92.8l.367,1.469h-.6l-.506-2.241Z" transform="translate(-337.29 -65.426)"/>
  <path id="路径_4074" data-name="路径 4074" class="cls-8" d="M473.658,170.44s1.359,1.278,3.86,7.277a46.123,46.123,0,0,1,1.874,7.017s-3.487,1.79-5.543,1.79c-.919-5.334-3.128-7.4-3.539-9.862S472.415,169.966,473.658,170.44Z" transform="translate(-334.953 -128.763)"/>
  <path id="路径_4075" data-name="路径 4075" class="cls-8" d="M413.019,393.553a4.9,4.9,0,0,0-2.539,1.712,2.145,2.145,0,0,0-.448,1.13,1.13,1.13,0,0,0,.529,1.044,1.757,1.757,0,0,0,.775.15,62.131,62.131,0,0,0,7.41-.13.525.525,0,0,0,.627-.645l-.069-1.55a.8.8,0,0,0-.127-.492c-.275-.335-.81-.055-1.24-.078-.867-.046-1.087-1.125-1.8-1.422A5.666,5.666,0,0,0,413.019,393.553Z" transform="translate(-292.133 -287.097)"/>
  <path id="路径_4076" data-name="路径 4076" class="cls-8" d="M454.642,393.236a4.863,4.863,0,0,0-2.539,1.712,2.14,2.14,0,0,0-.451,1.13,1.128,1.128,0,0,0,.532,1.041,1.762,1.762,0,0,0,.775.153,61.548,61.548,0,0,0,7.41-.133A.526.526,0,0,0,461,396.5l-.069-1.553a.792.792,0,0,0-.127-.489c-.275-.335-.81-.055-1.243-.078-.867-.046-1.084-1.125-1.8-1.425A5.62,5.62,0,0,0,454.642,393.236Z" transform="translate(-321.72 -286.87)"/>
  <path id="路径_4077" data-name="路径 4077" class="cls-12" d="M413.019,393.553a4.9,4.9,0,0,0-2.539,1.712,2.145,2.145,0,0,0-.448,1.13,1.13,1.13,0,0,0,.529,1.044,1.757,1.757,0,0,0,.775.15,62.131,62.131,0,0,0,7.41-.13.525.525,0,0,0,.627-.645l-.069-1.55a.8.8,0,0,0-.127-.492c-.275-.335-.81-.055-1.24-.078-.867-.046-1.087-1.125-1.8-1.422A5.666,5.666,0,0,0,413.019,393.553Z" transform="translate(-292.133 -287.097)"/>
  <path id="路径_4078" data-name="路径 4078" class="cls-13" d="M454.642,393.236a4.863,4.863,0,0,0-2.539,1.712,2.14,2.14,0,0,0-.451,1.13,1.128,1.128,0,0,0,.532,1.041,1.762,1.762,0,0,0,.775.153,61.548,61.548,0,0,0,7.41-.133A.526.526,0,0,0,461,396.5l-.069-1.553a.792.792,0,0,0-.127-.489c-.275-.335-.81-.055-1.243-.078-.867-.046-1.084-1.125-1.8-1.425A5.62,5.62,0,0,0,454.642,393.236Z" transform="translate(-321.72 -286.87)"/>
  <path id="路径_4079" data-name="路径 4079" class="cls-4" d="M442.6,111.881c-.1.171-.185.35-.275.541a3.414,3.414,0,0,0-.338,1.619c0,.231.448,1.336.4,1.425a7.992,7.992,0,0,1,2.57-2.972,4.37,4.37,0,0,0,2.313,1.862,4.049,4.049,0,0,1,2.261,1.926c.246.653.153,1.446.578,2,1.05-.142,1.278-1.836,2.313-2.024.188-.035.385,0,.578-.052a1.156,1.156,0,0,0,.83-1.076c.162-2.189-2.492-4.221-4.265-4.953a6.65,6.65,0,0,0-5.187,0A3.643,3.643,0,0,0,442.6,111.881Z" transform="translate(-314.847 -85.575)"/>
  <path id="路径_4080" data-name="路径 4080" class="cls-14" d="M442.6,111.881c-.1.171-.185.35-.275.541a3.414,3.414,0,0,0-.338,1.619c0,.231.448,1.336.4,1.425a7.992,7.992,0,0,1,2.57-2.972,4.37,4.37,0,0,0,2.313,1.862,4.049,4.049,0,0,1,2.261,1.926c.246.653.153,1.446.578,2,1.05-.142,1.278-1.836,2.313-2.024.188-.035.385,0,.578-.052a1.156,1.156,0,0,0,.83-1.076c.162-2.189-2.492-4.221-4.265-4.953a6.65,6.65,0,0,0-5.187,0A3.643,3.643,0,0,0,442.6,111.881Z" transform="translate(-314.847 -85.575)"/>
  <rect id="矩形_1215" data-name="矩形 1215" class="cls-8" width="62.397" height="95.367" rx="15.98" transform="translate(24.16 15.984)"/>
  <rect id="矩形_1216" data-name="矩形 1216" class="cls-8" width="62.397" height="95.367" rx="15.98" transform="translate(25.932 15.984)"/>
  <rect id="矩形_1217" data-name="矩形 1217" class="cls-15" width="62.397" height="95.367" rx="15.98" transform="translate(25.932 15.984)"/>
  <path id="路径_4081" data-name="路径 4081" class="cls-16" d="M108.45,147.918l1.634-50.228,47.229,1s-6.176,52.136-1.816,65.592,5.086,18.5,5.086,18.5L109.54,184.23Z" transform="translate(-77.75 -77.074)"/>
  <path id="路径_4082" data-name="路径 4082" class="cls-17" d="M173.127,178.343l-51.633.546s-5.308-30.842-6.231-41.181c-.9-9.961-1.113-40.019-1.113-40.019h49.305s.124,29.13,1,38.781C165.419,147.12,173.127,178.343,173.127,178.343Z" transform="translate(-81.802 -77.074)"/>
  <path id="路径_4083" data-name="路径 4083" class="cls-8" d="M378.082,74.292l-3.513-7.974-.289-.677a.1.1,0,0,0-.049-.049.159.159,0,0,0-.26.049l-3.8,8.651a1.446,1.446,0,0,0-.116.578V158.4H378.2V74.873a1.446,1.446,0,0,0-.116-.581Zm.049,84.059H370.1v-1.772h8.035Z" transform="translate(-263.713 -54.222)"/>
  <path id="路径_4084" data-name="路径 4084" class="cls-18" d="M381.1,74.854v81.705h-4.993V74.842a2.2,2.2,0,0,1,.066-.578l2.333-8.651a.075.075,0,0,1,.017-.049c.049-.078.136-.058.165.049l.185.677,2.148,7.974a2.221,2.221,0,0,1,.078.59Z" transform="translate(-268.021 -54.203)"/>
  <path id="路径_4085" data-name="路径 4085" class="cls-19" d="M376.11,386.53H381.1v6.02c0,.792-.4,1.431-.882,1.431H376.98c-.486,0-.867-.639-.867-1.431Z" transform="translate(-268.021 -282.401)"/>
  <path id="路径_4086" data-name="路径 4086" class="cls-20" d="M378.2,75.14a9.293,9.293,0,0,1-8.148,0l2.4-5.245,1.819-3.976,1.567,3.686Z" transform="translate(-263.714 -54.489)"/>
  <path id="路径_4087" data-name="路径 4087" class="cls-8" d="M381.736,69.566a4.915,4.915,0,0,1-3.386.289l1.819-3.976Z" transform="translate(-269.614 -54.461)"/>
  <path id="路径_4088" data-name="路径 4088" class="cls-21" d="M381.259,68.728a5.534,5.534,0,0,1-3.579.249l1.827-4.276Z" transform="translate(-269.137 -53.622)"/>
  <rect id="矩形_1218" data-name="矩形 1218" class="cls-8" width="25.975" height="1.634" rx="0.817" transform="translate(37.15 30.788)"/>
  <rect id="矩形_1219" data-name="矩形 1219" class="cls-8" width="25.975" height="1.634" rx="0.817" transform="translate(37.15 33.604)"/>
  <rect id="矩形_1220" data-name="矩形 1220" class="cls-8" width="25.975" height="1.634" rx="0.817" transform="translate(37.15 36.42)"/>
  <rect id="矩形_1221" data-name="矩形 1221" class="cls-8" width="17.475" height="1.634" rx="0.817" transform="translate(45.651 39.236)"/>
  <rect id="矩形_1222" data-name="矩形 1222" class="cls-8" width="25.975" height="1.634" rx="0.817" transform="translate(37.422 48.636)"/>
  <rect id="矩形_1223" data-name="矩形 1223" class="cls-8" width="25.975" height="1.634" rx="0.817" transform="translate(37.422 51.452)"/>
  <rect id="矩形_1224" data-name="矩形 1224" class="cls-8" width="25.975" height="1.634" rx="0.817" transform="translate(37.422 54.265)"/>
  <rect id="矩形_1225" data-name="矩形 1225" class="cls-8" width="17.475" height="1.634" rx="0.817" transform="translate(45.923 57.081)"/>
  <path id="路径_4089" data-name="路径 4089" class="cls-8" d="M162.972,255.133H138.63a.966.966,0,0,1-.925-.818h0a.7.7,0,0,1,.708-.815h24.339a.963.963,0,0,1,.928.815h0a.7.7,0,0,1-.708.818Z" transform="translate(-98.539 -187.833)"/>
  <path id="路径_4090" data-name="路径 4090" class="cls-8" d="M164.252,264.825H139.91a.966.966,0,0,1-.934-.83h0a.7.7,0,0,1,.708-.815h24.342a.966.966,0,0,1,.925.815h0a.7.7,0,0,1-.7.83Z" transform="translate(-99.443 -194.715)"/>
  <path id="路径_4091" data-name="路径 4091" class="cls-8" d="M165.572,274.573H141.23a.966.966,0,0,1-.925-.815h0a.7.7,0,0,1,.708-.818h24.351a.966.966,0,0,1,.925.818h0a.7.7,0,0,1-.717.815Z" transform="translate(-100.388 -201.653)"/>
  <path id="路径_4092" data-name="路径 4092" class="cls-8" d="M187.876,284.308H171.743a.792.792,0,0,1-.76-.668l-.04-.289a.578.578,0,0,1,.578-.671h16.136a.792.792,0,0,1,.76.671l.038.289a.578.578,0,0,1-.578.668Z" transform="translate(-122.168 -208.577)"/>
  <path id="路径_4093" data-name="路径 4093" class="cls-8" d="M173.047,316.933H148.705a1.041,1.041,0,0,1-.974-.827h0a.665.665,0,0,1,.662-.827h24.342a1.041,1.041,0,0,1,.974.827h0a.662.662,0,0,1-.662.827Z" transform="translate(-105.659 -231.751)"/>
  <path id="路径_4094" data-name="路径 4094" class="cls-8" d="M174.9,326.746H150.553a1.041,1.041,0,0,1-.974-.83h0a.662.662,0,0,1,.659-.827H174.58a1.038,1.038,0,0,1,.974.827h0a.662.662,0,0,1-.653.83Z" transform="translate(-106.972 -238.725)"/>
  <path id="路径_4095" data-name="路径 4095" class="cls-8" d="M176.784,336.642H152.442a1.041,1.041,0,0,1-.974-.827h0a.665.665,0,0,1,.662-.815h24.345a1.044,1.044,0,0,1,.974.83h0a.665.665,0,0,1-.665.813Z" transform="translate(-108.318 -245.77)"/>
  <path id="路径_4096" data-name="路径 4096" class="cls-8" d="M199.626,346.494H183.493a.867.867,0,0,1-.8-.679l-.055-.289a.541.541,0,0,1,.544-.677h16.134a.867.867,0,0,1,.8.677l.058.289a.544.544,0,0,1-.544.679Z" transform="translate(-130.475 -252.771)"/>
  <path id="路径_4097" data-name="路径 4097" class="cls-8" d="M239.769,144.132h-4.852a3.51,3.51,0,0,1-3.507-3.507v-5.248a3.51,3.51,0,0,1,3.507-3.507h4.852a3.51,3.51,0,0,1,3.507,3.507v5.259A3.51,3.51,0,0,1,239.769,144.132Zm-4.852-11.308a2.544,2.544,0,0,0-2.541,2.541v5.259a2.544,2.544,0,0,0,2.541,2.541h4.852a2.541,2.541,0,0,0,2.539-2.541v-5.248a2.541,2.541,0,0,0-2.539-2.541Z" transform="translate(-165.159 -101.371)"/>
  <path id="路径_4098" data-name="路径 4098" class="cls-8" d="M243.644,206.817h-4.837a3.5,3.5,0,0,1-3.5-3.348l-.231-5.152a3.507,3.507,0,0,1,3.5-3.666h4.843A3.5,3.5,0,0,1,246.9,198l.234,5.149a3.507,3.507,0,0,1-3.5,3.666Zm-5.077-11.2a2.538,2.538,0,0,0-2.539,2.654l.234,5.152a2.533,2.533,0,0,0,2.536,2.423h4.846a2.539,2.539,0,0,0,2.539-2.654l-.234-5.149a2.539,2.539,0,0,0-2.539-2.426Z" transform="translate(-167.759 -146)"/>
  <path id="路径_4099" data-name="路径 4099" class="cls-8" d="M243.669,264.2a3.5,3.5,0,0,1-3.493-3.227l-.413-5.138a3.51,3.51,0,0,1,3.374-3.788l4.843-.168a3.536,3.536,0,0,1,3.62,3.215l.413,5.138a3.513,3.513,0,0,1-3.374,3.788l-4.843.168Zm4.438-11.354h-.093l-4.843.168a2.544,2.544,0,0,0-2.443,2.744l.413,5.138a2.55,2.55,0,0,0,2.62,2.336l4.843-.171a2.539,2.539,0,0,0,2.443-2.741l-.413-5.138A2.533,2.533,0,0,0,248.107,252.842Z" transform="translate(-171.088 -186.679)"/>
  <path id="路径_4100" data-name="路径 4100" class="cls-8" d="M255.817,323.407a3.516,3.516,0,0,1-3.47-2.946l-.81-5.008a3.507,3.507,0,0,1,3.339-4.068l4.8-.168a3.545,3.545,0,0,1,3.585,2.946l.81,5.008a3.51,3.51,0,0,1-3.339,4.068l-4.8.165Zm3.99-11.224h-.09l-4.8.168a2.541,2.541,0,0,0-2.411,2.946l.812,5.008a2.573,2.573,0,0,0,2.6,2.134l4.8-.168a2.536,2.536,0,0,0,2.417-2.943l-.81-5.011A2.544,2.544,0,0,0,259.807,312.183Z" transform="translate(-179.435 -228.863)"/>
  <rect id="矩形_1226" data-name="矩形 1226" class="cls-8" width="26.976" height="6.13" rx="3.065" transform="translate(44.46 18.708)"/>
  <rect id="矩形_1227" data-name="矩形 1227" class="cls-22" width="26.976" height="6.13" rx="3.065" transform="translate(44.46 18.708)"/>
  <path id="路径_4101" data-name="路径 4101" class="cls-8" d="M241.123,135.609l-4.239-4.23a1.452,1.452,0,0,1,2.053-2.053l2.024,2.024,6.792-7.856a1.452,1.452,0,1,1,2.2,1.9Z" transform="translate(-168.748 -95.06)"/>
  <path id="路径_4102" data-name="路径 4102" class="cls-8" d="M248.04,196.535,243.8,192.3a1.452,1.452,0,1,1,2.053-2.053l2.024,2.024,6.792-7.856a1.452,1.452,0,1,1,2.2,1.9Z" transform="translate(-173.667 -138.366)"/>
  <path id="路径_4103" data-name="路径 4103" class="cls-8" d="M253.063,254.625l-4.239-4.244a1.452,1.452,0,0,1,2.053-2.053l2.024,2.024,6.792-7.856a1.45,1.45,0,1,1,2.194,1.9Z" transform="translate(-177.236 -179.655)"/>
  <path id="路径_4104" data-name="路径 4104" class="cls-8" d="M266.093,313.082l-4.236-4.239a1.451,1.451,0,1,1,2.053-2.05l2.024,2.024,6.795-7.853a1.452,1.452,0,1,1,2.2,1.9Z" transform="translate(-186.501 -221.218)"/>
  <rect id="矩形_1228" data-name="矩形 1228" class="cls-8" width="8.032" height="1.772" transform="translate(106.386 102.356)"/>
  <rect id="矩形_1229" data-name="矩形 1229" class="cls-23" width="8.032" height="1.772" transform="translate(106.386 102.356)"/>
  <path id="路径_4105" data-name="路径 4105" class="cls-8" d="M378.2,386.7v5.971a1.428,1.428,0,0,1-1.446,1.431h-5.271a1.428,1.428,0,0,1-1.431-1.431V386.7Z" transform="translate(-263.713 -282.522)"/>
  <path id="路径_4106" data-name="路径 4106" class="cls-24" d="M378.2,386.7v5.971a1.428,1.428,0,0,1-1.446,1.431h-5.271a1.428,1.428,0,0,1-1.431-1.431V386.7Z" transform="translate(-263.713 -282.522)"/>
</svg>
