<svg id="mother_Illustration_readingBook" xmlns="http://www.w3.org/2000/svg" xmlns:xlink="http://www.w3.org/1999/xlink" width="152.929" height="129" viewBox="0 0 152.929 129">
  <defs>
    <style>
      .cls-1, .cls-19, .cls-20, .cls-3, .cls-5, .cls-7, .cls-8, .cls-9 {
        fill: #f18bab;
      }

      .cls-1 {
        opacity: 0.18;
      }

      .cls-2 {
        fill: url(#linear-gradient);
      }

      .cls-4 {
        fill: url(#linear-gradient-2);
      }

      .cls-5 {
        opacity: 0.23;
      }

      .cls-6 {
        fill: #fff;
      }

      .cls-7 {
        opacity: 0.46;
      }

      .cls-8 {
        opacity: 0.25;
      }

      .cls-9 {
        opacity: 0.39;
      }

      .cls-10 {
        fill: #080608;
      }

      .cls-11 {
        fill: url(#linear-gradient-3);
      }

      .cls-12 {
        fill: url(#linear-gradient-4);
      }

      .cls-13 {
        fill: #32406a;
      }

      .cls-14 {
        fill: #fdc0ad;
      }

      .cls-15 {
        fill: url(#linear-gradient-5);
      }

      .cls-16 {
        fill: #f05e5f;
      }

      .cls-17 {
        fill: url(#linear-gradient-6);
      }

      .cls-18 {
        fill: url(#linear-gradient-7);
      }

      .cls-19 {
        opacity: 0.36;
      }

      .cls-20 {
        opacity: 0.79;
      }
    </style>
    <linearGradient id="linear-gradient" x1="2.229" y1="0.714" x2="-2.151" y2="0.196" gradientUnits="objectBoundingBox">
      <stop offset="0.01"/>
      <stop offset="0.13" stop-opacity="0.69"/>
      <stop offset="0.25" stop-opacity="0.322"/>
      <stop offset="1" stop-opacity="0"/>
    </linearGradient>
    <linearGradient id="linear-gradient-2" x1="1.454" y1="-0.278" x2="0.109" y2="0.813" gradientUnits="objectBoundingBox">
      <stop offset="0.01"/>
      <stop offset="0.13" stop-opacity="0.69"/>
      <stop offset="1" stop-opacity="0"/>
    </linearGradient>
    <linearGradient id="linear-gradient-3" x1="1.928" y1="0.879" x2="-0.083" y2="0.381" xlink:href="#linear-gradient-2"/>
    <linearGradient id="linear-gradient-4" x1="0.639" y1="-1.016" x2="0.473" y2="1.011" xlink:href="#linear-gradient-2"/>
    <linearGradient id="linear-gradient-5" x1="0.852" y1="-0.871" x2="0.414" y2="0.751" xlink:href="#linear-gradient-2"/>
    <linearGradient id="linear-gradient-6" x1="2.013" y1="-0.337" x2="-0.106" y2="0.825" xlink:href="#linear-gradient-2"/>
    <linearGradient id="linear-gradient-7" x1="-0.031" y1="1.545" x2="0.684" y2="0.236" xlink:href="#linear-gradient-2"/>
  </defs>
  <path id="路径_4132" data-name="路径 4132" class="cls-1" d="M164.871,131.507c-3.944,4.776-12.927,6.8-18.706,8.274a67.931,67.931,0,0,1-21.07,1.97c-6.348-.4-12.625-1.715-18.937-2.48a70.664,70.664,0,0,0-8.306-.565,59.37,59.37,0,0,0-6.734.4,121.24,121.24,0,0,0-13.6,2.472l-3.1.712c-2.046.474-4.091.947-6.141,1.385-2.3.494-4.613.947-6.933,1.309a62.293,62.293,0,0,1-10.515.772c-9.094-.131-18.045-2.543-24.187-8.995-3.427-3.6-5.668-8.159-7.562-12.756a54.261,54.261,0,0,1-3.526-10.822c-.9-4.9-.1-4.485,2.428-8.27a35.322,35.322,0,0,0,6.05-19.554c.155-8.637-1.819-17.154-2.6-25.755a62.546,62.546,0,0,1-.215-9.062,32.349,32.349,0,0,1,4.649-15.98C32.082,24.911,44.046,20.8,55.318,18.7a106.511,106.511,0,0,1,19.1-1.942q2.874,0,5.739.179c14.26.991,28.111,6.058,42.419,6.03,13.218-.028,26.921-2.738,34.626,10.686,5.882,10.264,6.448,22.642,6.01,34.447s-1.707,23.812,1.019,35.307c.935,3.952,2.34,7.8,3.184,11.757.171.8.318,1.616.438,2.432C168.557,122.433,167.988,127.746,164.871,131.507Z" transform="translate(-15.194 -16.76)"/>
  <path id="路径_4133" data-name="路径 4133" class="cls-2" d="M70.436,181.037q-1.083,5.934-2.169,11.872c-2.3.494-4.613.947-6.933,1.309a62.3,62.3,0,0,1-10.515.772c-9.094-.131-18.045-2.543-24.187-8.995-3.427-3.6-5.668-8.159-7.562-12.756a54.262,54.262,0,0,1-3.526-10.822c-.9-4.9-.1-4.485,2.428-8.27a35.322,35.322,0,0,0,6.05-19.554c.155-8.637-1.819-17.154-2.6-25.755a62.545,62.545,0,0,1-.215-9.062c3.861-1.556,8.593-1.489,12.764-.545a15.249,15.249,0,0,1,6.893,3.092c3.725,3.307,4.219,8.959,3.53,13.894s-2.292,9.835-1.767,14.79a40.122,40.122,0,0,1,.609,5.361c-.163,5.664-5.373,11.052-3.291,16.318,10.865,1.122,29.5,5.441,31.247,18.559C71.63,174.505,71.025,177.8,70.436,181.037Z" transform="translate(-15.188 -66.003)"/>
  <path id="路径_4134" data-name="路径 4134" class="cls-3" d="M110.147,284.36c-1.914.211-3.825.5-5.727.84-2.631.47-5.25,1.035-7.868,1.632l-3.1.712c-1.413.326-2.826.653-4.239.967s-2.842.625-4.263.907c-1.52.3-3.045.581-4.573.82a62.3,62.3,0,0,1-10.515.772c-9.222-5.321-21.094-12.772-22.4-16.624-2.093-6.121,1.365-9.779,3.729-12.589q.159-.183.31-.37c2.356-2.862,13.636-3.367,18.01-3.367,1.99,0,5.071,1.381,7.861,2.893h0c3.359,1.823,6.273,3.833,6.273,3.833l6.511,3.98,19.383,11.844Z" transform="translate(-34.228 -162.023)"/>
  <path id="路径_4135" data-name="路径 4135" class="cls-4" d="M129.857,287.674c-2.631.47-5.25,1.035-7.868,1.632l-3.1.712c-1.413.326-2.826.653-4.239.967-2.105-.967-4.231-1.9-6.288-2.985a68.332,68.332,0,0,1-9.385-5.97,10.315,10.315,0,0,1-2.9-2.957,8.066,8.066,0,0,1-.5-5.839,1.441,1.441,0,0,0,0-1.063,1.358,1.358,0,0,0-.625-.474,26.063,26.063,0,0,1-4.625-2.957,3.184,3.184,0,0,1-1.194-1.524c-.342-1.27.844-2.416,1.99-3.069a11.2,11.2,0,0,1,9.273-1.564c.8.267,1.62.549,2.452.852h0a42.993,42.993,0,0,1,8.585,4.06,21.618,21.618,0,0,1,4.171,3.761c.856.959,1.668,1.962,2.472,2.961l5.146,6.392c.943,1.13,1.624,2.388,2.464,3.562a13.605,13.605,0,0,0,2.814,2.364A16.357,16.357,0,0,1,129.857,287.674Z" transform="translate(-59.665 -164.496)"/>
  <path id="路径_4136" data-name="路径 4136" class="cls-5" d="M254.444,131.507c-3.944,4.776-12.927,6.8-18.706,8.274a68.934,68.934,0,0,1-7.415,1.457,67.81,67.81,0,0,1-13.655.513c-6.348-.4-12.625-1.715-18.937-2.48a70.671,70.671,0,0,0-8.306-.565,57.963,57.963,0,0,0-6.054.318,118.634,118.634,0,0,0-14.276,2.544l-3.1.712V16.76q2.874,0,5.739.179c14.264.991,28.115,6.058,42.423,6.03,13.218-.028,26.921-2.738,34.626,10.686,5.882,10.264,6.448,22.642,6.01,34.447s-1.707,23.812,1.019,35.307c.935,3.952,2.34,7.8,3.184,11.757.171.8.318,1.616.438,2.432C258.129,122.433,257.56,127.746,254.444,131.507Z" transform="translate(-104.767 -16.76)"/>
  <path id="路径_4137" data-name="路径 4137" class="cls-3" d="M190.45,46.224l2.71-1.154L242.266,48.1v77.534h-5.13Z" transform="translate(-114.658 -27.132)"/>
  <path id="路径_4138" data-name="路径 4138" class="cls-5" d="M229.34,209.309a67.811,67.811,0,0,1-13.655.513c-6.348-.4-12.625-1.715-18.937-2.48a70.668,70.668,0,0,0-8.306-.565,57.958,57.958,0,0,0-6.054.318c-4.051-1.277-7.82-3.12-10.606-6.252-4.167-4.684-5.238-11.3-5.711-17.556a138.308,138.308,0,0,1,5.282-49.475,7.263,7.263,0,0,1,1.166-2.587c1.5-1.823,4.5-1.755,6.408-.374s2.917,3.693,3.522,5.97c1.305,4.935.573,11.164-3.873,13.667,2.32,3.439-.509,9,2.5,11.86a13.264,13.264,0,0,0,3.268,1.811c3.391,1.755,5.461,5.425,6.213,9.154s.37,7.614-.024,11.415a5.187,5.187,0,0,0,.318,3.12,5.086,5.086,0,0,0,2.929,1.93c6.71,2.352,13.707,3.9,20.218,6.766,5.671,2.484,12.036,6.479,15.036,12.135C229.145,208.9,229.248,209.1,229.34,209.309Z" transform="translate(-105.788 -84.831)"/>
  <path id="路径_4139" data-name="路径 4139" class="cls-6" d="M201.59,59.32v47.959l36.831,17.273,1.309-61.268Z" transform="translate(-121.364 -35.711)"/>
  <path id="路径_4140" data-name="路径 4140" class="cls-5" d="M279.218,170.288a.4.4,0,0,0-.072-.283.35.35,0,0,0-.267-.088,1.811,1.811,0,0,0-1.592.915,1.847,1.847,0,0,1,.884,1.628c-.1.645-.987,1.1-1.433.625-.243-.263-.283-.7-.589-.88a.7.7,0,0,0-.919.4,2.05,2.05,0,0,0-.028,1.118,2.762,2.762,0,0,1,2.034,1,1.592,1.592,0,0,1-.776.263,1.078,1.078,0,0,0-.728.358c-.159.227-.056.633.223.649a.935.935,0,0,1,1.469,0c-.1.5-.581.8-.9,1.194s-.4,1.134.092,1.3a2.249,2.249,0,0,0,.848-1.106h.7a2.031,2.031,0,0,1-.115,1.361c-.115.446-.155,1.027.227,1.29a1.259,1.259,0,0,0,1.254-.123,1.918,1.918,0,0,1-.223-1.154c.1-.4.561-.7.9-.494s.295.653.283,1.027.151.86.525.848.513-.537.4-.9-.4-.677-.4-1.059a1.592,1.592,0,0,1,2.141,1.437,1.473,1.473,0,0,0,.159-1.859,1.8,1.8,0,0,1-.294-.446.756.756,0,0,1,.585-.876,2.232,2.232,0,0,1,1.158.119c.171-.4-.2-.836-.609-.919a2.141,2.141,0,0,0-1.222.243c0-.4.462-.621.816-.82s.685-.7.378-.967-.768.139-.947.517-.494.852-.888.708c-.4-.219-.155-.856.191-1.166s.8-.736.581-1.154c-.175-.223-.541-.064-.736.143s-.418.474-.7.422-.4-.462-.29-.744a2.865,2.865,0,0,1,.557-.724.6.6,0,1,0-.983-.637,6.722,6.722,0,0,0-.211.9c-.1.295-.5.533-.708.306-.155-.163-.111-.768-.123-.947-.139.179-.362.338-.482.482C279.063,171.764,279.218,170.9,279.218,170.288Z" transform="translate(-171.678 -108.96)"/>
  <path id="路径_4141" data-name="路径 4141" class="cls-7" d="M285.351,119.235a.3.3,0,0,0-.048-.2.27.27,0,0,0-.207-.044,1.266,1.266,0,0,0-1.1.637,1.286,1.286,0,0,1,.617,1.134c-.064.45-.689.768-1,.438-.171-.183-.2-.49-.4-.613a.486.486,0,0,0-.641.283,1.4,1.4,0,0,0,0,.8,1.93,1.93,0,0,1,1.417.7,1.114,1.114,0,0,1-.545.183.756.756,0,0,0-.505.251c-.111.159-.04.438.155.454a.649.649,0,0,1,1.023,0c-.072.346-.4.565-.625.84s-.271.8.064.9a1.564,1.564,0,0,0,.589-.768h.49a1.381,1.381,0,0,1-.08.947c-.091.314-.111.712.155.9a.891.891,0,0,0,.872-.088,1.337,1.337,0,0,1-.151-.8c.064-.271.4-.49.625-.342s.2.454.2.712.1.6.366.593.354-.374.267-.625a2.425,2.425,0,0,1-.283-.736,1.095,1.095,0,0,1,1.493,1,1.023,1.023,0,0,0,.111-1.294,1.322,1.322,0,0,1-.207-.31.525.525,0,0,1,.4-.609,1.477,1.477,0,0,1,.8.084c.119-.271-.135-.585-.422-.645a1.532,1.532,0,0,0-.852.171c0-.283.318-.434.569-.569s.478-.49.263-.677-.533.1-.661.358-.346.6-.617.5-.107-.6.131-.8.549-.513.4-.8c-.123-.155-.4-.044-.513.1s-.291.33-.49.295-.283-.318-.2-.517a2.15,2.15,0,0,1,.4-.505.442.442,0,1,0-.685-.442,4.661,4.661,0,0,0-.147.629c-.072.2-.346.37-.494.211s-.076-.533-.088-.661c-.1.123-.251.235-.334.338A3.309,3.309,0,0,1,285.351,119.235Z" transform="translate(-176.119 -78.301)"/>
  <path id="路径_4142" data-name="路径 4142" class="cls-7" d="M244.871,87.343a.3.3,0,0,0-.048-.2.251.251,0,0,0-.191-.06,1.266,1.266,0,0,0-1.1.637,1.278,1.278,0,0,1,.617,1.134c-.064.446-.689.764-1,.434-.171-.179-.2-.486-.4-.613a.494.494,0,0,0-.641.287,1.436,1.436,0,0,0-.02.8,1.926,1.926,0,0,1,1.417.693,1.067,1.067,0,0,1-.541.187.752.752,0,0,0-.505.247c-.111.159-.04.442.155.454a.653.653,0,0,1,1.023,0c-.072.35-.4.565-.625.844s-.271.8.064.9a1.592,1.592,0,0,0,.589-.772h.49a1.393,1.393,0,0,1-.08.951c-.092.31-.111.712.155.9a.9.9,0,0,0,.872-.084,1.353,1.353,0,0,1-.151-.8c.064-.271.4-.49.625-.342s.2.458.2.716.1.6.366.593.354-.4.267-.629a2.348,2.348,0,0,1-.283-.736,1.1,1.1,0,0,1,1.492,1,1.023,1.023,0,0,0,.111-1.294,1.3,1.3,0,0,1-.207-.306.529.529,0,0,1,.4-.613,1.564,1.564,0,0,1,.8.084c.119-.271-.135-.585-.422-.641a1.465,1.465,0,0,0-.852.171c0-.283.318-.434.569-.573s.478-.486.263-.673-.533.1-.661.358-.346.6-.617.494-.107-.6.131-.8.549-.513.4-.8c-.123-.155-.4-.044-.513.1s-.294.33-.49.295-.283-.322-.2-.521a2.129,2.129,0,0,1,.4-.5.573.573,0,0,0,.135-.589.553.553,0,0,0-.82.143,4.661,4.661,0,0,0-.147.629c-.072.2-.346.37-.494.215s-.076-.537-.088-.665c-.1.127-.251.239-.334.338A3.218,3.218,0,0,1,244.871,87.343Z" transform="translate(-151.754 -59.096)"/>
  <path id="路径_4143" data-name="路径 4143" class="cls-8" d="M238.207,170.068a.45.45,0,0,0,.163-.275.4.4,0,0,0-.147-.283,2.026,2.026,0,0,0-1.966-.513,2.075,2.075,0,0,1-.573,1.99c-.573.442-1.644.1-1.624-.625,0-.4.322-.776.219-1.158a.8.8,0,0,0-1.047-.4,2.257,2.257,0,0,0-.9.864,3.077,3.077,0,0,1,.836,2.388,1.751,1.751,0,0,1-.824-.4,1.194,1.194,0,0,0-.86-.287c-.3.06-.533.458-.33.689a1.047,1.047,0,0,1,1.166,1.15,3.692,3.692,0,0,1-1.66.259c-.565.068-1.194.593-.939,1.1a2.519,2.519,0,0,0,1.536-.215l.549.557c-.171.49-.7.736-1.158.991s-.923.689-.828,1.194.629.72,1.091.88a2.1,2.1,0,0,1,.728-1.087c.4-.239.995-.123,1.1.31s-.279.748-.577,1.035-.549.8-.247,1.083.828-.028,1-.4.215-.852.505-1.154a1.743,1.743,0,0,1,.577,2.81,1.64,1.64,0,0,0,1.592-1.349,2.034,2.034,0,0,1,.111-.581.844.844,0,0,1,1.15-.239,2.448,2.448,0,0,1,.824,1,.812.812,0,0,0,.239-1.194,2.388,2.388,0,0,0-1.162-.76c.314-.326.852-.135,1.29,0s1.091,0,1.055-.474-.716-.49-1.154-.33-1.059.291-1.258-.131c-.159-.493.545-.8,1.063-.776s1.194.032,1.361-.462c.036-.314-.4-.474-.7-.462s-.7.048-.884-.211.04-.685.35-.82a3.4,3.4,0,0,1,1.007-.139.9.9,0,0,0,.8-.517.876.876,0,0,0-1.091-.752c-.33.1-.561.4-.872.549s-.8.032-.8-.314c0-.251.513-.693.645-.848a5.375,5.375,0,0,1-.76,0C236.934,171.127,237.722,170.558,238.207,170.068Z" transform="translate(-144.302 -108.251)"/>
  <path id="路径_4144" data-name="路径 4144" class="cls-9" d="M230.511,118.707s-8.016,18.447-2.563,32.357l-6.448-3.025s3.025-22.288.275-27.665l2.806,9.015,2.388-14.909L226,127.355S228.362,120.916,230.511,118.707Z" transform="translate(-139.388 -75.587)"/>
  <path id="路径_4145" data-name="路径 4145" class="cls-5" d="M232.732,85.091a8.848,8.848,0,0,1,1.365.581c.983.8.251,2.519,1.015,3.514a7.847,7.847,0,0,0,1.25.943,2.281,2.281,0,0,1-2.388,3.833c-.959-.442-1.9-1.56-2.818-1.039-.366.211-.565.641-.927.856-.553.338-1.254.076-1.879-.092a6.022,6.022,0,0,0-5.867,1.707L220.7,95.6l-.163,1.791a3.045,3.045,0,0,0-3.427-.255l-2.285-.983a2.5,2.5,0,0,1-1.477,2.786,2.631,2.631,0,0,1-3.045-.971,139.518,139.518,0,0,1,.243-23.211c3.029-.378,7.14-.943,10.1.032,2.034.673,2.555,2.018,3.9,3.471,1.8,1.958,3.51,1.286,5.445,2.448C231.606,81.712,231.088,84.191,232.732,85.091Z" transform="translate(-132.423 -51.368)"/>
  <path id="路径_4146" data-name="路径 4146" class="cls-10" d="M175.035,300.012a70.674,70.674,0,0,0-8.306-.565c-6.873,0-13.608,1.333-20.33,2.862-1.019-.49-2.062-1-3.1-1.52-4.191-2.1-8.33-4.378-10.384-6.129-5.051-4.29-2.786-10.889-2.786-10.889l13.178.864,12.473.82s10.459,1.636,13.238,4.665C170.549,291.794,173.172,296.2,175.035,300.012Z" transform="translate(-84.075 -177.5)"/>
  <path id="路径_4147" data-name="路径 4147" class="cls-3" d="M148.559,189.552l-1.194-6.655a14.447,14.447,0,0,0-.665-2.69,9.524,9.524,0,0,0-3.51-4.219,23.123,23.123,0,0,0-4.975-2.476c-2.3-.9-5.174.227-7.59.756a14.848,14.848,0,0,0-6.093,2.32,10.565,10.565,0,0,0-3.455,5.8,58.908,58.908,0,0,0-1.035,6.794,45.278,45.278,0,0,1-2.2,8.947,6.644,6.644,0,0,0-.593,2.758,6.346,6.346,0,0,0,1.106,2.651l3.582,5.823a5.726,5.726,0,0,0,.748,7.829c1.863,1.5,4.442,1.636,6.83,1.7l16.127.45a4.6,4.6,0,0,0,2.694-.474c1.194-.8,1.389-2.472,1.341-3.916a29.513,29.513,0,0,0-.991-6.69,2.679,2.679,0,0,1-.1-1.66,2.937,2.937,0,0,1,.959-1.047,9.823,9.823,0,0,0,3.494-8.036A10.683,10.683,0,0,0,148.559,189.552Z" transform="translate(-76.624 -110.923)"/>
  <path id="路径_4148" data-name="路径 4148" class="cls-11" d="M140.589,207.295a19.307,19.307,0,0,0-.561-9.425,56.312,56.312,0,0,1,.179,7.96,7.663,7.663,0,0,1-.8,3.55,7.674,7.674,0,0,0-1.473-2.663,8.044,8.044,0,0,1-.179,2.945,3.383,3.383,0,0,1-1.839,2.2,3.828,3.828,0,0,0,1.739,1.043c.629.275,1.29.764,1.29,1.453,0,.322-.151.665,0,.951.267.517,1.047.235,1.516-.107.987-.716,5.608-3.148,4.776-4.613s-3.884.569-4.9.84C139.8,210.184,140.35,208.552,140.589,207.295Z" transform="translate(-87.869 -125.788)"/>
  <path id="路径_4149" data-name="路径 4149" class="cls-12" d="M135.2,254.184l-6.766-.334a1.058,1.058,0,0,0-.474.052c-.505.231-.35,1.039-.732,1.437,2.786-.191,5.473.752,8.083,1.691a3.093,3.093,0,0,0,2.623.127,4.377,4.377,0,0,1,.8-.529,1.8,1.8,0,0,1,1.294.239,76.719,76.719,0,0,1,7.013,3.781,1.146,1.146,0,0,0,.955.243,1.134,1.134,0,0,0,.45-.4l1.9-2.42a.629.629,0,0,0,.135-.247c.032-.191-.119-.358-.255-.49a42.269,42.269,0,0,1-5.126-5.97c-1.242-1.759-2.583-3.777-4.7-4.187-1.365-.263-4.446.458-5.2,1.8C134.975,249.34,135.548,254.2,135.2,254.184Z" transform="translate(-82.637 -155.44)"/>
  <path id="路径_4150" data-name="路径 4150" class="cls-13" d="M186.893,131.557c.187,4.378-.756,8.82.295,13.062l-2.388.227a5.468,5.468,0,0,0,0,1.25q-2.058.107-4.119.052c.565,0,1.536-5.126,1.652-5.711.4-1.99.653-4.008,1.007-6.01.314-1.767.525-4.251,1.481-5.807C186.244,126.324,186.857,130.678,186.893,131.557Z" transform="translate(-114.814 -83.702)"/>
  <path id="路径_4151" data-name="路径 4151" class="cls-14" d="M165.679,134.619a2.919,2.919,0,0,1,.462,1.457c-.1.907-1.194,1.282-1.835,1.926-1.1,1.091-.931,3.017-1.99,4.159a3.335,3.335,0,0,1-2.388.955,9.81,9.81,0,0,1-2.619-.422c-.716.581-.661,1.668-.525,2.579s.235,1.99-.446,2.611c-.776.712-2.042.338-2.909-.259a10.293,10.293,0,0,1-3.423-4.477,39.6,39.6,0,0,1-1.7-5.441c-.832-3.089-1.819-6.42-.641-9.393a8.556,8.556,0,0,1,5.289-4.716,14.978,14.978,0,0,1,7.236-.354c1.795.3,4.951,1.146,5.4,3.252C166.181,129.194,164.437,131.928,165.679,134.619Z" transform="translate(-94.616 -80.698)"/>
  <path id="路径_4152" data-name="路径 4152" class="cls-13" d="M148.488,122.487a2.209,2.209,0,0,0-1.258.346,1.747,1.747,0,0,0-.426.685,21.584,21.584,0,0,0-1.118,13.094,15.291,15.291,0,0,1-3.061-1.286c.247.47-.5.907-1,.724s-.836-.661-1.321-.872a3.507,3.507,0,0,0-.931-.2,7.244,7.244,0,0,1-3.948-1.918c-.271-2.675-1.8-5.047-2.484-7.65a18.629,18.629,0,0,1-.505-4.537,10.558,10.558,0,0,1,.37-3.335,12.351,12.351,0,0,1,2.225-3.7,10.193,10.193,0,0,1,1.938-2.07,7.455,7.455,0,0,1,2.671-1.142,19.82,19.82,0,0,1,9.862.509,14.014,14.014,0,0,1,5.648,2.69,6.351,6.351,0,0,1,2.32,5.572,4.716,4.716,0,0,0-2.332-2.591c-1.52-.653-1.174.7-1.592,1.767A6.308,6.308,0,0,1,148.488,122.487Z" transform="translate(-85.767 -73.016)"/>
  <path id="路径_4153" data-name="路径 4153" class="cls-3" d="M205.62,64.72v57.519l46.686,21.89,1.735-75.421Zm41.265,69.761-36.831-17.273V69.241l38.14,3.98Z" transform="translate(-129.828 -45.632)"/>
  <path id="路径_4154" data-name="路径 4154" class="cls-15" d="M205.62,64.72v57.519l46.686,21.89,1.735-75.421Zm41.265,69.761-36.831-17.273V69.241l38.14,3.98Z" transform="translate(-129.828 -45.632)"/>
  <path id="路径_4155" data-name="路径 4155" class="cls-6" d="M175.579,214.78a34.2,34.2,0,0,0-7.463,3.813,12.107,12.107,0,0,0-7.279-3.761l-.354.864a1.5,1.5,0,0,1-.669-.4,10.578,10.578,0,0,0-1.194,1.795,14.427,14.427,0,0,1,3.116,5.735,4.621,4.621,0,0,0,.5,1.361,1.3,1.3,0,0,0,1.222.641,1.807,1.807,0,0,0,.629-.275q4.263-2.519,8.684-4.776c1.194-.609,3.367-1.194,4.267-2.173a1.122,1.122,0,0,0,.219-1.361c-.49-.884-1.059-.263-1.791-.028C175.487,215.763,175.535,215.266,175.579,214.78Z" transform="translate(-101.534 -135.968)"/>
  <path id="路径_4156" data-name="路径 4156" class="cls-16" d="M154.53,218.732a112.98,112.98,0,0,0-1.309,16.195,1.886,1.886,0,0,0,.259,1.194,1.99,1.99,0,0,0,1.079.553,38.331,38.331,0,0,1,11.8,5.484,11.773,11.773,0,0,1,5.616-5.791,2.83,2.83,0,0,0,1.1-.728,2.555,2.555,0,0,0,.4-1.214q1.134-8.036,2.265-16.075c0,.147-5.465,2.042-6.046,2.356-1.457.8-3.825,3.284-5.572,3.184-1.453-.1-2.109-1.759-3.212-2.579A15.27,15.27,0,0,0,154.53,218.732Z" transform="translate(-98.276 -138.117)"/>
  <path id="路径_4157" data-name="路径 4157" class="cls-14" d="M146.942,232.25c.346.215.028.8.175,1.166a.8.8,0,0,0,.291.326,9.267,9.267,0,0,0,2.607.756c.318.1.677.4.565.7a.7.7,0,0,1-.45.346l-1.138.458h1.4c.211,0,.482.052.517.255s-.159.322-.326.4c-.474.247-.963.474-1.457.681a7.643,7.643,0,0,1,1.13-.048c.207,0,.482.084.482.295s-.175.259-.322.322l-2.953,1.262a15.239,15.239,0,0,1-4.263,1.353.581.581,0,0,1-.322-.012.6.6,0,0,1-.251-.338,6.837,6.837,0,0,1-.49-2.472.8.8,0,0,1,.092-.454.963.963,0,0,1,.358-.267,3.252,3.252,0,0,0,1.262-1.27,13.148,13.148,0,0,1,1.087-2.217A4.585,4.585,0,0,1,146.942,232.25Z" transform="translate(-91.608 -146.485)"/>
  <path id="路径_4158" data-name="路径 4158" class="cls-14" d="M200.573,234.213c-.223.056-.5.219-.43.438.04.127.183.191.306.235l1.56.577a4.526,4.526,0,0,0-1.739.2c-.088.028-.187.076-.191.163s.088.155.171.2l1.564.764a2.516,2.516,0,0,0-1.337.291c-.088.048-.183.119-.183.219s.08.159.155.211a4.606,4.606,0,0,0,.987.525,1.018,1.018,0,0,0-.537.072.342.342,0,0,0-.151.462.4.4,0,0,0,.151.123l1.294.8a.545.545,0,0,0,.478.111c.183-.072.227-.306.247-.5.024-.3.044-.6.056-.907a3.118,3.118,0,0,1,.084-.744,7.822,7.822,0,0,1,.326-.752,2.406,2.406,0,0,0-.354-2.388C202.452,233.751,201.242,234.046,200.573,234.213Z" transform="translate(-126.493 -147.529)"/>
  <path id="路径_4159" data-name="路径 4159" class="cls-3" d="M243.74,63.7v54.86l3,2.042V63.7Z" transform="translate(-146.739 -38.347)"/>
  <path id="路径_4160" data-name="路径 4160" class="cls-3" d="M239.03,123.7l-37.44-8.915V111.19l37.524,8.939Z" transform="translate(-121.364 -66.936)"/>
  <path id="路径_4161" data-name="路径 4161" class="cls-17" d="M239.114,91.54l-.084,3.57L221.367,90.9v29.7l-3-2.042V90.191l-16.776-4V82.6l16.776,4V63.7h3V87.309Z" transform="translate(-121.364 -38.347)"/>
  <path id="路径_4162" data-name="路径 4162" class="cls-18" d="M84.946,295.071c-1.52.3-3.045.581-4.573.82a62.289,62.289,0,0,1-10.515.772c-9.222-5.321-21.094-12.772-22.4-16.624-2.093-6.121,1.365-9.779,3.729-12.589a13.038,13.038,0,0,0,4.35,8.656C60.525,280.6,78.112,291.063,84.946,295.071Z" transform="translate(-34.228 -167.675)"/>
  <path id="路径_4163" data-name="路径 4163" class="cls-5" d="M212.487,62.17l-10.9,19.51,5.449,1.3,11.132-17.89.2-2.308Z" transform="translate(-121.364 -37.426)"/>
  <path id="路径_4164" data-name="路径 4164" class="cls-5" d="M263.367,67.64,251.28,90l5.449,1.3,12.816-20.811.195-2.3Z" transform="translate(-151.278 -40.719)"/>
  <path id="路径_4165" data-name="路径 4165" class="cls-5" d="M265.588,139.59l-14.308,25.6,5.449,1.3,12.163-19.753.052-5.938Z" transform="translate(-151.278 -84.033)"/>
  <path id="路径_4166" data-name="路径 4166" class="cls-5" d="M214.963,128.23,201.59,148.763l4.88,2.336,11.848-16.581.048-5.48Z" transform="translate(-121.364 -77.194)"/>
  <path id="路径_4167" data-name="路径 4167" class="cls-19" d="M238.315,176.3c-.092-.036-.135-.135-.191-.211a.577.577,0,0,0-.772-.092.756.756,0,0,0-.259.768.486.486,0,0,1,0,.334.358.358,0,0,1-.135.119,2.026,2.026,0,0,1-.494.195.677.677,0,0,0-.4.187,1.019,1.019,0,0,0-.1.4.677.677,0,0,1-.37.478c-.119.06-.267.084-.354.187a.4.4,0,0,0-.08.235,2.33,2.33,0,0,0,.076.593.708.708,0,0,1-.1.569c-.088.1-.231.219-.167.338a.235.235,0,0,0,.1.08,2.519,2.519,0,0,0,.836.306.318.318,0,0,1,.291.151.465.465,0,0,1,0,.223.689.689,0,0,0,.255.565.266.266,0,0,0,.131.06c.183.024.287-.259.47-.267a.35.35,0,0,1,.2.08,2.2,2.2,0,0,1,.6.517c.088.123.159.271.3.314a.522.522,0,0,0,.362-.076c.2-.1.438-.243.45-.47a.4.4,0,0,1,0-.139.175.175,0,0,1,.207-.08.458.458,0,0,1,.2.131c.151-.056.167-.267.1-.4a4.23,4.23,0,0,1-.239-.4.669.669,0,0,1,.151-.613,1.828,1.828,0,0,1,.525-.4.582.582,0,0,0,.211-.167.517.517,0,0,0-.06-.549,1.569,1.569,0,0,1-.283-.509.274.274,0,0,1,.024-.187.374.374,0,0,1,.119-.1l.438-.279a.131.131,0,0,0,.06-.064.119.119,0,0,0,0-.088c-.175-.306-.625-.478-.617-.832,0-.211.175-.458.024-.6a2.255,2.255,0,0,0-.458-.235c-.1-.06-.191-.191-.295-.235C238.793,175.973,238.61,176.375,238.315,176.3Z" transform="translate(-147.491 -112.556)"/>
  <path id="路径_4168" data-name="路径 4168" class="cls-20" d="M240.133,177.59a.338.338,0,0,0-.4.123c-.092.111-.139.251-.223.37-.275.4-.86.525-1.134.935a.875.875,0,0,0,.04,1.007.354.354,0,0,0,.223.143.4.4,0,0,0,.3-.223c.171-.251.291-.533.458-.8a1.13,1.13,0,0,1,.712-.529c.362-.06.76.143,1.079-.036a.825.825,0,0,0,.08-1.266.537.537,0,0,0-.573.068C240.436,177.578,240.424,177.737,240.133,177.59Z" transform="translate(-149.464 -113.385)"/>
  <path id="路径_4169" data-name="路径 4169" class="cls-20" d="M240.409,182.649a.864.864,0,0,0-.5.569.8.8,0,0,1-.08.251c-.1.163-.334.167-.529.171a3.682,3.682,0,0,0-1.059.191.4.4,0,0,0-.267.187.314.314,0,0,0,.036.279c.259.438.955.374,1.282.76a3.468,3.468,0,0,1,.219.35.434.434,0,0,0,.334.219c.2,0,.334-.2.4-.4a3.184,3.184,0,0,0,.08-.995.489.489,0,0,0,.561-.084.9.9,0,0,0,.187-.342C241.245,183.262,241.265,182.3,240.409,182.649Z" transform="translate(-149.294 -116.581)"/>
  <path id="路径_4170" data-name="路径 4170" class="cls-19" d="M283.22,179.332a1.134,1.134,0,0,0,.219.665.609.609,0,0,1,.135.374.8.8,0,0,1-.1.239.86.86,0,0,0,.04.82c.127.2.346.362.4.6a1.09,1.09,0,0,0,.064.279.521.521,0,0,0,.362.2,1.194,1.194,0,0,0,.876-.072.589.589,0,0,1,.271-.139.33.33,0,0,1,.255.167,1,1,0,0,0,.2.247.648.648,0,0,0,.3.084,1.336,1.336,0,0,0,.4,0,.716.716,0,0,0,.4-1.122,1.814,1.814,0,0,0-.314-.291.207.207,0,0,1-.084-.092c-.048-.1.044-.211.088-.314a.716.716,0,0,0-.06-.525.979.979,0,0,1-.123-.521c.032-.2.2-.35.271-.537a.111.111,0,0,0,0-.08.115.115,0,0,0-.088-.056,4.846,4.846,0,0,0-.756-.131.243.243,0,0,1-.171-.068.18.18,0,0,1-.032-.092c-.032-.291.147-.6-.2-.764a.816.816,0,0,0-.669,0c-.147.076-.255.219-.4.271a.648.648,0,0,1-.326,0,.47.47,0,0,0-.446.1A1.194,1.194,0,0,0,283.22,179.332Z" transform="translate(-176.543 -113.905)"/>
  <path id="路径_4171" data-name="路径 4171" class="cls-19" d="M285.152,180.11c-.239.362.036.892-.191,1.258a.732.732,0,0,0-.123.207.454.454,0,0,0,.068.283l.127.263c.048.1.127.215.235.2a.183.183,0,0,0,.088-.044.892.892,0,0,0,.235-.8,1.31,1.31,0,0,1,.107-.832c.159-.227.486-.346.533-.621a.231.231,0,0,0-.024-.155C286.015,179.564,285.3,179.9,285.152,180.11Z" transform="translate(-177.516 -114.877)"/>
</svg>
