<svg xmlns="http://www.w3.org/2000/svg" xmlns:xlink="http://www.w3.org/1999/xlink" width="53.797" height="43.451" viewBox="0 0 53.797 43.451">
  <defs>
    <style>
      .cls-1 {
        fill: url(#linear-gradient);
      }

      .cls-2 {
        fill: url(#linear-gradient-2);
      }
    </style>
    <linearGradient id="linear-gradient" x1="0.5" x2="0.5" y2="1" gradientUnits="objectBoundingBox">
      <stop offset="0" stop-color="#feca8d"/>
      <stop offset="1" stop-color="#fba440"/>
    </linearGradient>
    <linearGradient id="linear-gradient-2" x1="0.5" x2="0.5" y2="1" gradientUnits="objectBoundingBox">
      <stop offset="0" stop-color="#fff"/>
      <stop offset="1" stop-color="#fff"/>
    </linearGradient>
  </defs>
  <g id="mother_policy" transform="translate(-68.267 -187.733)">
    <path id="路径_3828" data-name="路径 3828" class="cls-1" d="M121.268,199.444a4.12,4.12,0,0,1-2.308.7H73.439a4.123,4.123,0,0,1-3.537-2.018,6.182,6.182,0,0,1,0-8.378,4.123,4.123,0,0,1,3.537-2.018h45.52a4.119,4.119,0,0,1,2.308.7,6.2,6.2,0,0,0,0,11.008ZM69.9,220.788a4.123,4.123,0,0,1,3.537-2.018h45.52a4.119,4.119,0,0,1,2.308.7,6.2,6.2,0,0,0,0,11.008,4.119,4.119,0,0,1-2.308.7H73.439a4.123,4.123,0,0,1-3.537-2.018,6.182,6.182,0,0,1,0-8.378Zm-.366-17.09a4.083,4.083,0,0,1,1.834-.447h45.52a4.123,4.123,0,0,1,3.537,2.018,6.182,6.182,0,0,1,0,8.378,4.123,4.123,0,0,1-3.537,2.018H71.37a4.084,4.084,0,0,1-1.834-.447,6.2,6.2,0,0,0,0-11.52Z" transform="translate(0 0)"/>
    <path id="路径_3829" data-name="路径 3829" class="cls-2" d="M290.133,256h10.346v18.622l-5.38-3.1-4.966,3.1Z" transform="translate(-208.417 -64.129)"/>
  </g>
</svg>
