<svg xmlns="http://www.w3.org/2000/svg" xmlns:xlink="http://www.w3.org/1999/xlink" width="41" height="48.712" viewBox="0 0 41 48.712">
  <defs>
    <style>
      .cls-1 {
        fill: url(#linear-gradient);
      }

      .cls-2 {
        fill: url(#linear-gradient-2);
      }
    </style>
    <linearGradient id="linear-gradient" x1="0.5" x2="0.5" y2="1" gradientUnits="objectBoundingBox">
      <stop offset="0" stop-color="#88e3f9"/>
      <stop offset="1" stop-color="#38d1f6"/>
    </linearGradient>
    <linearGradient id="linear-gradient-2" x1="0.5" x2="0.5" y2="1" gradientUnits="objectBoundingBox">
      <stop offset="0" stop-color="#88e3f9"/>
      <stop offset="1" stop-color="#4ad7f9"/>
    </linearGradient>
  </defs>
  <g id="mother_InspectionRecord" transform="translate(-128 -76.8)">
    <path id="路径_3838" data-name="路径 3838" class="cls-1" d="M316.968,76.8H288.794v48.712h28.174a4.218,4.218,0,0,0,4.213-4.213V81.014A4.218,4.218,0,0,0,316.968,76.8Zm-5.122,36.6H295.155a1.486,1.486,0,1,1,0-2.973h16.686a1.486,1.486,0,1,1,0,2.973Zm0-6.067H295.155a1.486,1.486,0,1,1,0-2.973h16.686a1.486,1.486,0,1,1,0,2.973Zm0-6.067H295.155a1.486,1.486,0,1,1,0-2.973h16.686a1.486,1.486,0,1,1,0,2.973Zm1.486-8.384a1.486,1.486,0,0,1-1.486,1.486H295.155a1.486,1.486,0,0,1-1.486-1.486V85.7a1.486,1.486,0,0,1,1.486-1.486h16.686a1.486,1.486,0,0,1,1.487,1.486Z" transform="translate(-152.181)"/>
    <path id="路径_3839" data-name="路径 3839" class="cls-2" d="M435.3,270.771h13.72v4.2H435.3Z" transform="translate(-290.841 -183.581)"/>
    <path id="路径_3840" data-name="路径 3840" class="cls-2" d="M129.486,76.8A1.486,1.486,0,0,0,128,78.286v45.739a1.486,1.486,0,0,0,1.486,1.486h4.154V76.8Z"/>
  </g>
</svg>
