<svg id="mother_Encyclopedias" xmlns="http://www.w3.org/2000/svg" xmlns:xlink="http://www.w3.org/1999/xlink" width="42.544" height="50.124" viewBox="0 0 42.544 50.124">
  <defs>
    <style>
      .cls-1 {
        fill: url(#linear-gradient);
      }
    </style>
    <linearGradient id="linear-gradient" x1="0.5" x2="0.5" y2="1" gradientUnits="objectBoundingBox">
      <stop offset="0" stop-color="#8aeec2"/>
      <stop offset="1" stop-color="#2fd994"/>
    </linearGradient>
  </defs>
  <path id="路径_3830" data-name="路径 3830" class="cls-1" d="M313.691,754.444H290.834a1.934,1.934,0,1,0,0,3.868h22.857a1.915,1.915,0,0,0,1.934-1.934A1.939,1.939,0,0,0,313.691,754.444Z" transform="translate(-281.01 -714.84)"/>
  <path id="路径_3831" data-name="路径 3831" class="cls-1" d="M197.97,97.884a1.915,1.915,0,0,0-1.934,1.934v35.969a4.655,4.655,0,0,1-4.641,4.641H165.869a4.655,4.655,0,0,1-4.641-4.641V135.4a4.655,4.655,0,0,1,4.641-4.641h23.206a3.1,3.1,0,0,0,3.094-3.094V100.36a6.206,6.206,0,0,0-6.188-6.188H163.548a6.206,6.206,0,0,0-6.188,6.188v37.748a6.206,6.206,0,0,0,6.188,6.188h28.079a8.286,8.286,0,0,0,8.277-8.277v-36.2a1.939,1.939,0,0,0-1.934-1.934Zm-27.189,11.6h1.16a.776.776,0,0,0,.774-.774v-1.083a2.008,2.008,0,0,1,1.74-2.011,1.942,1.942,0,0,1,2.127,1.934v1.16a.776.776,0,0,0,.774.774h1.16a1.942,1.942,0,0,1,1.934,2.127,1.98,1.98,0,0,1-2.011,1.74h-1.083a.776.776,0,0,0-.774.774v1.083a2.008,2.008,0,0,1-1.74,2.011,1.942,1.942,0,0,1-2.127-1.934v-1.16a.776.776,0,0,0-.774-.774h-1.083a2.008,2.008,0,0,1-2.011-1.74A1.942,1.942,0,0,1,170.781,109.487Z" transform="translate(-157.36 -94.171)"/>
</svg>
