<svg id="polaroid" xmlns="http://www.w3.org/2000/svg" xmlns:xlink="http://www.w3.org/1999/xlink" width="161.43" height="125.694" viewBox="0 0 161.43 125.694">
  <defs>
    <style>
      .cls-1, .cls-3 {
        fill: #f18bab;
      }

      .cls-1 {
        opacity: 0.24;
      }

      .cls-2 {
        fill: url(#linear-gradient);
      }

      .cls-4 {
        fill: url(#linear-gradient-2);
      }

      .cls-5 {
        fill: none;
      }

      .cls-6 {
        fill: url(#linear-gradient-3);
      }

      .cls-7 {
        fill: url(#linear-gradient-4);
      }

      .cls-8 {
        fill: url(#linear-gradient-5);
      }

      .cls-9 {
        fill: url(#linear-gradient-6);
      }

      .cls-10 {
        fill: url(#linear-gradient-7);
      }

      .cls-11 {
        fill: url(#linear-gradient-8);
      }

      .cls-12 {
        fill: url(#linear-gradient-9);
      }

      .cls-13 {
        fill: #fff;
      }

      .cls-14 {
        fill: url(#linear-gradient-14);
      }

      .cls-15 {
        fill: url(#linear-gradient-15);
      }

      .cls-16 {
        fill: #606161;
      }

      .cls-17 {
        fill: url(#linear-gradient-16);
      }

      .cls-18 {
        fill: url(#linear-gradient-17);
      }

      .cls-19 {
        fill: url(#linear-gradient-18);
      }

      .cls-20 {
        fill: url(#linear-gradient-19);
      }

      .cls-21 {
        fill: url(#linear-gradient-20);
      }

      .cls-22 {
        fill: url(#linear-gradient-21);
      }

      .cls-23 {
        fill: url(#linear-gradient-22);
      }
    </style>
    <linearGradient id="linear-gradient" x1="0.107" y1="0.908" x2="1.875" y2="-0.801" gradientUnits="objectBoundingBox">
      <stop offset="0" stop-color="#010101" stop-opacity="0"/>
      <stop offset="0.95" stop-color="#010101"/>
    </linearGradient>
    <linearGradient id="linear-gradient-2" x1="0.498" y1="0.684" x2="0.485" y2="0.118" gradientUnits="objectBoundingBox">
      <stop offset="0" stop-color="#fff" stop-opacity="0"/>
      <stop offset="0.95" stop-color="#fff"/>
    </linearGradient>
    <linearGradient id="linear-gradient-3" x1="0.703" y1="0.743" x2="-0.064" y2="0.006" xlink:href="#linear-gradient-2"/>
    <linearGradient id="linear-gradient-4" x1="0.491" y1="-0.289" x2="0.511" y2="0.951" xlink:href="#linear-gradient"/>
    <linearGradient id="linear-gradient-5" x1="0" y1="0.5" x2="1" y2="0.5" xlink:href="#linear-gradient"/>
    <linearGradient id="linear-gradient-6" x1="0.158" y1="-0.169" x2="1.195" y2="1.859" xlink:href="#linear-gradient"/>
    <linearGradient id="linear-gradient-7" x1="0.157" y1="-0.168" x2="1.195" y2="1.859" xlink:href="#linear-gradient-2"/>
    <linearGradient id="linear-gradient-8" x1="0" y1="0.5" x2="1" y2="0.5" xlink:href="#linear-gradient-2"/>
    <linearGradient id="linear-gradient-9" x1="0.4" y1="-0.765" x2="0.747" y2="3.603" xlink:href="#linear-gradient"/>
    <linearGradient id="linear-gradient-14" x1="0.49" y1="0.419" x2="0.39" y2="-0.272" xlink:href="#linear-gradient"/>
    <linearGradient id="linear-gradient-15" x1="-3.13" y1="-0.805" x2="-2.314" y2="-0.805" gradientUnits="objectBoundingBox">
      <stop offset="0" stop-color="#e5c6d6"/>
      <stop offset="0.42" stop-color="#ead4d0"/>
      <stop offset="1" stop-color="#f0e9cb"/>
    </linearGradient>
    <linearGradient id="linear-gradient-16" x1="0" y1="0.5" x2="1" y2="0.5" xlink:href="#linear-gradient"/>
    <linearGradient id="linear-gradient-17" x1="0.499" y1="1.299" x2="0.499" y2="0.34" xlink:href="#linear-gradient"/>
    <linearGradient id="linear-gradient-18" x1="-2.398" y1="-1.023" x2="-1.373" y2="-1.023" xlink:href="#linear-gradient-15"/>
    <linearGradient id="linear-gradient-19" x1="-2.722" y1="-2.209" x2="-1.973" y2="-10.635" xlink:href="#linear-gradient"/>
    <linearGradient id="linear-gradient-20" x1="-0.142" y1="-2.505" x2="0.855" y2="-2.505" xlink:href="#linear-gradient-15"/>
    <linearGradient id="linear-gradient-21" x1="0" y1="0.499" x2="0.998" y2="0.499" xlink:href="#linear-gradient"/>
    <linearGradient id="linear-gradient-22" x1="-0.001" y1="0.5" x2="0.999" y2="0.5" xlink:href="#linear-gradient-15"/>
  </defs>
  <path id="路径_4107" data-name="路径 4107" class="cls-1" d="M53.054,20.6C47.877,28.4,44.522,37.443,38.293,44.442c-5.615,6.3-13.323,10.639-18.191,17.54a28.659,28.659,0,0,0,.353,32.654c2.826,3.821,6.592,6.876,9.419,10.712,4.989,6.74,7.184,15.961,14.32,20.379,3.323,2.057,7.292,2.756,11.163,3.282a189.019,189.019,0,0,0,39.56,1.24c9.943-.734,19.9-2.255,29.835-1.4,6.5.564,12.937,2.15,19.464,1.99s13.486-2.456,17.1-7.893c4.859-7.312,2.047-17.011,2.533-25.776.784-14.082,10.406-26.31,12.413-40.261C179.041,37.569,164.4,17.375,145.153,14c-10.253-1.8-20.915.641-31.133-1.333-6.342-1.23-12.233-4.114-18.437-5.9C80.256,2.346,62.019,7.087,53.054,20.6Z" transform="translate(-15.171 -5.16)"/>
  <path id="路径_4108" data-name="路径 4108" class="cls-2" d="M174.418,165.764c-1.471,4.009-3.623,7.768-4.919,11.837s-1.636,8.727.451,12.458c1.874,3.35,5.392,5.44,7.733,8.482,3.919,5.1,4.049,12.052,4.027,18.48,0,2.967.16,6.337,2.428,8.246,3.007,2.506,8.146,1.15,10.822,4.009.519.554.927,1.253,1.614,1.571a3.589,3.589,0,0,0,2.185.05l37.18-6.863c3.759-.692,8.249-2.07,9.061-5.8a9.83,9.83,0,0,0-.534-4.7l-6.59-23.255a77.792,77.792,0,0,1-3.2-15c-.273-3.485-.075-7.016-.6-10.466a25.646,25.646,0,0,0-11.992-17.878c-4.435-2.661-9.572-3.894-14.666-4.793-8.346-1.471-18.059-2.09-25.836,1.942C173.742,148.149,177.157,158.292,174.418,165.764Z" transform="translate(-130.047 -106.983)"/>
  <path id="路径_4109" data-name="路径 4109" class="cls-3" d="M200.092,121.742l-4.683-20.765a5.149,5.149,0,0,1,3.964-6.169L249.236,84.32a5.149,5.149,0,0,1,6.114,4.049l4.443,22.684,8.018,7.174a5.924,5.924,0,0,1,1.569,6.575l-.251.641-71.761,14.779L195.456,137a4.573,4.573,0,0,1-.251-4.179Z" transform="translate(-149.802 -64.402)"/>
  <path id="路径_4110" data-name="路径 4110" class="cls-4" d="M200.092,121.742l-4.683-20.765a5.149,5.149,0,0,1,3.964-6.169L249.236,84.32a5.149,5.149,0,0,1,6.114,4.049l4.443,22.684,8.018,7.174a5.924,5.924,0,0,1,1.569,6.575l-.251.641-71.761,14.779L195.456,137a4.573,4.573,0,0,1-.251-4.179Z" transform="translate(-149.802 -64.402)"/>
  <path id="路径_4111" data-name="路径 4111" class="cls-5" d="M200.96,122.977l.519-1.2-4.683-20.76a5.124,5.124,0,0,1,3.962-6.174l49.863-10.484a5.144,5.144,0,0,1,6.111,4.039l4.413,22.551Z" transform="translate(-151.187 -64.429)"/>
  <path id="路径_4112" data-name="路径 4112" class="cls-6" d="M269.34,204.691l-.251.641-71.761,14.794-1.927-3.232a4.6,4.6,0,0,1-.251-4.185l4.372-9.862,60.189-12.027.023.145,8.018,7.169A5.936,5.936,0,0,1,269.34,204.691Z" transform="translate(-149.763 -144.299)"/>
  <path id="路径_4113" data-name="路径 4113" class="cls-3" d="M198.2,272.779l-8.362-14.39L261.6,243.61l-1.751,15.944Z" transform="translate(-142.272 -182.569)"/>
  <path id="路径_4114" data-name="路径 4114" class="cls-7" d="M198.2,272.779l-8.362-14.39L261.6,243.61l-1.751,15.944Z" transform="translate(-142.272 -182.569)"/>
  <ellipse id="椭圆_160" data-name="椭圆 160" class="cls-3" cx="11.413" cy="11.413" rx="11.413" ry="11.413" transform="translate(67.28 25.769)"/>
  <ellipse id="椭圆_161" data-name="椭圆 161" class="cls-8" cx="11.413" cy="11.413" rx="11.413" ry="11.413" transform="translate(67.28 25.769)"/>
  <ellipse id="椭圆_162" data-name="椭圆 162" class="cls-3" cx="8.988" cy="8.988" rx="8.988" ry="8.988" transform="translate(69.613 28.212)"/>
  <ellipse id="椭圆_163" data-name="椭圆 163" class="cls-9" cx="4.029" cy="4.029" rx="4.029" ry="4.029" transform="translate(74.645 32.88)"/>
  <ellipse id="椭圆_164" data-name="椭圆 164" class="cls-10" cx="1.904" cy="1.904" rx="1.904" ry="1.904" transform="translate(75.326 34.115)"/>
  <ellipse id="椭圆_165" data-name="椭圆 165" class="cls-11" cx="4.959" cy="4.959" rx="4.959" ry="4.959" transform="translate(54.373 44.025)"/>
  <rect id="矩形_1230" data-name="矩形 1230" class="cls-12" width="13.03" height="5.543" rx="2.771" transform="matrix(0.984, -0.178, 0.178, 0.984, 50.775, 36.381)"/>
  <rect id="矩形_1231" data-name="矩形 1231" class="cls-3" width="10.937" height="9.7" rx="4.85" transform="translate(91.457 26.262) rotate(-9.48)"/>
  <ellipse id="椭圆_166" data-name="椭圆 166" class="cls-8" cx="4.157" cy="4.157" rx="4.157" ry="4.157" transform="translate(93.507 26.037)"/>
  <ellipse id="椭圆_167" data-name="椭圆 167" class="cls-8" cx="2.892" cy="2.892" rx="2.892" ry="2.892" transform="translate(98.371 37.317)"/>
  <path id="路径_4115" data-name="路径 4115" class="cls-3" d="M258.32,86.5l1.872-4.012,17.891-3.693,3.282,2.819Z" transform="translate(-193.593 -59.048)"/>
  <path id="路径_4116" data-name="路径 4116" class="cls-11" d="M182.18,242.363l73.773-15.833-.1,4.28L184.1,245.588Z" transform="translate(-136.531 -169.769)"/>
  <path id="路径_4117" data-name="路径 4117" class="cls-8" d="M219.33,275.169l59.8-13.709-1.168,6.417-56.3,12.541Z" transform="translate(-164.373 -195.946)"/>
  <path id="路径_4118" data-name="路径 4118" class="cls-13" d="M248.68,304.738s7.53,20.161,9.865,40l58.921-14s-5.262-31.211-13.711-38.5Z" transform="translate(-190.17 -220.299)"/>
  <path id="路径_4119" data-name="路径 4119" class="cls-3" d="M309.017,294.58s9.271,15.064,10.346,29.976l-50.214,10.5s-6.239-26.706-10.349-28.988Z" transform="translate(-197.754 -222.06)"/>
  <path id="路径_4120" data-name="路径 4120" class="cls-14" d="M309.017,294.58s9.271,15.064,10.346,29.976l-50.214,10.5s-6.239-26.706-10.349-28.988Z" transform="translate(-197.754 -222.06)"/>
  <path id="路径_4121" data-name="路径 4121" class="cls-15" d="M421.443,407.138c-1.12.328-2.182.519-3.323.774-.125-.9-.689-4.894-.814-5.791a1.484,1.484,0,0,1,.138-1.113,1.313,1.313,0,0,1,.549-.368,3.948,3.948,0,0,1,1.438-.4c.393,0,.451.336.539.656C420.25,401.934,420.987,406.158,421.443,407.138Z" transform="translate(-316.512 -301.245)"/>
  <path id="路径_4122" data-name="路径 4122" class="cls-16" d="M361.739,336a11.022,11.022,0,0,0,.449,3.8,56.312,56.312,0,0,1,1.165,6.134,15.447,15.447,0,0,0,.579,3.3,4.055,4.055,0,0,0,2.112,2.483,4.811,4.811,0,0,0,2.343.2,22.519,22.519,0,0,0,2.375-.408,9.924,9.924,0,0,0,2.468-.789,3.758,3.758,0,0,0,1.8-1.807,5.265,5.265,0,0,0,.251-2.365,36.581,36.581,0,0,0-2.36-11,5.61,5.61,0,0,0-.651-1.31,6.065,6.065,0,0,0-1.561-1.346,5.5,5.5,0,0,0-1.919-.965,4.738,4.738,0,0,0-1.691.04C364.64,332.374,362.08,333.156,361.739,336Z" transform="translate(-274.869 -250.007)"/>
  <path id="路径_4123" data-name="路径 4123" class="cls-17" d="M361.739,336a11.022,11.022,0,0,0,.449,3.8,56.312,56.312,0,0,1,1.165,6.134,15.447,15.447,0,0,0,.579,3.3,4.055,4.055,0,0,0,2.112,2.483,4.811,4.811,0,0,0,2.343.2,22.519,22.519,0,0,0,2.375-.408,9.924,9.924,0,0,0,2.468-.789,3.758,3.758,0,0,0,1.8-1.807,5.265,5.265,0,0,0,.251-2.365,36.581,36.581,0,0,0-2.36-11,5.61,5.61,0,0,0-.651-1.31,6.065,6.065,0,0,0-1.561-1.346,5.5,5.5,0,0,0-1.919-.965,4.738,4.738,0,0,0-1.691.04C364.64,332.374,362.08,333.156,361.739,336Z" transform="translate(-274.869 -250.007)"/>
  <path id="路径_4124" data-name="路径 4124" class="cls-18" d="M380.608,355.025l-.138.584a4.821,4.821,0,0,1-.358-1.353l-.276-1.711a9.184,9.184,0,0,0-.544-2.2A3.112,3.112,0,0,0,377.8,348.7a4.658,4.658,0,0,0-2.864,0,3.218,3.218,0,0,0-3.087,2.421,4.816,4.816,0,0,0-.4,1.523,4.629,4.629,0,0,0,.123,1.065,21.1,21.1,0,0,1,.732,5.427,10.42,10.42,0,0,0-.073,1.809.391.391,0,0,0,.115.281.408.408,0,0,0,.251.063,18.21,18.21,0,0,0,2.122-.1l3.784-.311a4.184,4.184,0,0,0,1.253-.233c.271-.11.516-.278.789-.391.89-.371,1.288-.975.937-1.907a22.2,22.2,0,0,1-.874-3.323Z" transform="translate(-282.177 -262.445)"/>
  <path id="路径_4125" data-name="路径 4125" class="cls-13" d="M364.323,389.46a7.066,7.066,0,0,0-3.733,5.3c1.343.5,2.857,1.16,3.257,2.533a31.076,31.076,0,0,0,.917,3.478.54.54,0,0,0,.3,0q5.615-.97,11.128-2.423c-.14-.752-.94-4.55-1.08-5.307a.706.706,0,0,1,0-.331.68.68,0,0,1,.251-.3,17.254,17.254,0,0,1,2.255-1.548,10.96,10.96,0,0,0-1.939-2.24c-.692-.609-3.839-1.561-8.477-.5A12.656,12.656,0,0,0,364.323,389.46Z" transform="translate(-274.038 -291.808)"/>
  <path id="路径_4126" data-name="路径 4126" class="cls-19" d="M382.247,376.164a4.151,4.151,0,0,0-.015,2.644,2.244,2.244,0,0,0,2.466,1.115,2.992,2.992,0,0,0,2.075-1.894,2.127,2.127,0,0,0,.04-1.589c-.158-.351-.443-.631-.611-.977-.353-.719-.16-1.639-.606-2.305a2.16,2.16,0,0,0-1.7-.794,2.132,2.132,0,0,0-1.133.208c-.639.356-.639.872-.466,1.466A4.34,4.34,0,0,1,382.247,376.164Z" transform="translate(-290.095 -280.347)"/>
  <path id="路径_4127" data-name="路径 4127" class="cls-20" d="M384.2,378.758a2.035,2.035,0,0,0,1.315.546,1.546,1.546,0,0,0,.852-.2,1.566,1.566,0,0,0,.431-.421,2.325,2.325,0,0,0,.373-1.839.957.957,0,0,0-.316-.566,1,1,0,0,0-.461-.158,2.954,2.954,0,0,0-2.406.832A1.214,1.214,0,0,0,384.2,378.758Z" transform="translate(-291.338 -283.158)"/>
  <path id="路径_4128" data-name="路径 4128" class="cls-21" d="M370.479,352.42a4.375,4.375,0,0,0,2.776,1.566,3.272,3.272,0,0,0,3.064-1.651,5.724,5.724,0,0,0,.534-1.543,8.692,8.692,0,0,0,.153-3.556,4.419,4.419,0,0,0-1.854-2.914,4.307,4.307,0,0,0-2.41-.581,4.723,4.723,0,0,0-3.052,1.133,3.205,3.205,0,0,0-.96,3.508A7.841,7.841,0,0,0,370.479,352.42Z" transform="translate(-280.006 -258.898)"/>
  <path id="路径_4129" data-name="路径 4129" class="cls-16" d="M367.042,345.638a.328.328,0,0,0,.078.18.358.358,0,0,0,.326.043,14.439,14.439,0,0,0,1.827-.486,5.472,5.472,0,0,0-.1-1.163,3.258,3.258,0,0,1,.438.957,23.367,23.367,0,0,1,2.756-.677,2.14,2.14,0,0,1-.316-1.037,2.663,2.663,0,0,0,.474.9.4.4,0,0,0,.16.13.443.443,0,0,0,.353-.093,4.381,4.381,0,0,1,1.962-.6l-.06-.449a4.18,4.18,0,0,1,.5.684,1.171,1.171,0,0,1,.832-.388l-.586-1.476a2.41,2.41,0,0,0-1.5-1.649,7.593,7.593,0,0,0-1.473-.621,4.392,4.392,0,0,0-2.641.178,6.312,6.312,0,0,0-2.215,1.491,2.567,2.567,0,0,0-.571.787,3.9,3.9,0,0,0-.13.895A5.548,5.548,0,0,0,367.042,345.638Z" transform="translate(-278.806 -255.921)"/>
  <path id="路径_4130" data-name="路径 4130" class="cls-22" d="M367.042,345.638a.328.328,0,0,0,.078.18.358.358,0,0,0,.326.043,14.439,14.439,0,0,0,1.827-.486,5.472,5.472,0,0,0-.1-1.163,3.258,3.258,0,0,1,.438.957,23.367,23.367,0,0,1,2.756-.677,2.14,2.14,0,0,1-.316-1.037,2.663,2.663,0,0,0,.474.9.4.4,0,0,0,.16.13.443.443,0,0,0,.353-.093,4.381,4.381,0,0,1,1.962-.6l-.06-.449a4.18,4.18,0,0,1,.5.684,1.171,1.171,0,0,1,.832-.388l-.586-1.476a2.41,2.41,0,0,0-1.5-1.649,7.593,7.593,0,0,0-1.473-.621,4.392,4.392,0,0,0-2.641.178,6.312,6.312,0,0,0-2.215,1.491,2.567,2.567,0,0,0-.571.787,3.9,3.9,0,0,0-.13.895A5.548,5.548,0,0,0,367.042,345.638Z" transform="translate(-278.806 -255.921)"/>
  <path id="路径_4131" data-name="路径 4131" class="cls-23" d="M345.644,390.7a2.236,2.236,0,0,1-1.669,1.869c-1.128.178-2.075-.809-2.739-1.739-1.812-2.531-2.563-6.209-3.979-7.565-.516-.5-.925-2.36-.321-2.756a1.033,1.033,0,0,0,.438-.812.576.576,0,0,0-.05-.316,10.021,10.021,0,0,1-.752-2.067c.12-.05.251-.251.333-.19a7.832,7.832,0,0,1,1.463,2.137c-.208-.812.441-3.212.872-2.493.073.118-.048,3.049.406,3.333.13.08.291.105.416.2.286.213.251.639.211,1-.18,2.02.927,3.9,2,5.63-.028-.3.421-.351.707-.251a4.972,4.972,0,0,1,2.383,1.358A4.224,4.224,0,0,1,345.644,390.7Z" transform="translate(-256.027 -283.559)"/>
</svg>
