<svg xmlns="http://www.w3.org/2000/svg" xmlns:xlink="http://www.w3.org/1999/xlink" width="254.447" height="220.172" viewBox="0 0 254.447 220.172">
  <defs>
    <style>
      .cls-1 {
        opacity: 0.8;
      }

      .cls-2 {
        fill: url(#linear-gradient);
      }

      .cls-3, .cls-5 {
        fill: #f59fb0;
      }

      .cls-4, .cls-8 {
        fill: #fff;
      }

      .cls-13, .cls-4 {
        opacity: 0.1;
      }

      .cls-5, .cls-9 {
        opacity: 0.2;
      }

      .cls-6 {
        opacity: 0.3;
      }

      .cls-7 {
        fill: url(#linear-gradient-2);
      }

      .cls-10 {
        fill: #e0e0e0;
      }

      .cls-11, .cls-15, .cls-17 {
        opacity: 0.5;
      }

      .cls-12 {
        fill: url(#linear-gradient-3);
      }

      .cls-14 {
        opacity: 0.05;
      }

      .cls-15 {
        fill: #4d8af0;
      }

      .cls-16 {
        fill: #47e6b1;
      }

      .cls-17 {
        fill: #f55f44;
      }
    </style>
    <linearGradient id="linear-gradient" x1="0.5" y1="1" x2="0.5" gradientUnits="objectBoundingBox">
      <stop offset="0" stop-color="gray" stop-opacity="0.251"/>
      <stop offset="0.54" stop-color="gray" stop-opacity="0.122"/>
      <stop offset="1" stop-color="gray" stop-opacity="0.102"/>
    </linearGradient>
    <linearGradient id="linear-gradient-2" x1="-0.512" y1="7.758" x2="-0.512" y2="6.717" xlink:href="#linear-gradient"/>
    <linearGradient id="linear-gradient-3" x1="-1.386" y1="7.85" x2="-1.386" y2="6.809" xlink:href="#linear-gradient"/>
  </defs>
  <g id="Appointment-Failed" transform="translate(0 -0.001)">
    <g id="组_3531" data-name="组 3531" class="cls-1" transform="translate(86.494 5.711)">
      <ellipse id="椭圆_278" data-name="椭圆 278" class="cls-2" cx="44.365" cy="34.369" rx="44.365" ry="34.369"/>
    </g>
    <ellipse id="椭圆_279" data-name="椭圆 279" class="cls-3" cx="43.38" cy="33.605" rx="43.38" ry="33.605" transform="translate(87.478 6.474)"/>
    <path id="路径_5965" data-name="路径 5965" class="cls-4" d="M476.053,145.092c0-18.559,19.42-33.605,43.377-33.605a53.173,53.173,0,0,1,21.616,4.462,51.134,51.134,0,0,0-28.516-8.279c-23.957,0-43.38,15.046-43.38,33.605,0,12.462,8.757,23.339,21.767,29.143C481.809,164.257,476.053,155.2,476.053,145.092Z" transform="translate(-381.563 -101.278)"/>
    <path id="路径_5966" data-name="路径 5966" class="cls-5" d="M210.661,176.9l48.091,83.3,48.091,83.292H114.48L162.571,260.2Z" transform="translate(-79.802 -123.314)"/>
    <g id="组_3532" data-name="组 3532" class="cls-6" transform="translate(103.319 135.495)">
      <path id="路径_5967" data-name="路径 5967" class="cls-7" d="M560.035,569.893l3.735-11.084a18.981,18.981,0,0,0-7.027-21.474l.03-.018a18.623,18.623,0,0,0-4.783-2.423h0l-.052-.018-.058-.018h0a18.652,18.652,0,0,0-5.119-.963,17.95,17.95,0,0,0-1.851,0,18.884,18.884,0,0,0-3.177.439c-.3.067-.606.142-.882.224s-.585.17-.872.264c-.576.191-1.142.406-1.7.651-.279.121-.554.248-.824.385a18.628,18.628,0,0,0-2.348,1.381c-.251.173-.5.351-.739.533a18.781,18.781,0,0,0-6.434,8.966l-5.87,17.463a18.738,18.738,0,0,0-.812,8.518c.061.439.136.875.224,1.309s.2.86.3,1.284c.082.282.167.563.261.842.139.415.3.83.457,1.236.112.27.23.539.354.806.245.53.518,1.048.812,1.554a16.406,16.406,0,0,0,.957,1.478c.254.357.524.709.8,1.048a15.807,15.807,0,0,0,1.187,1.312,18.723,18.723,0,0,0,6.361,4.207h0l.1.042a6.565,6.565,0,0,1,.424-.657,4.123,4.123,0,0,1,4-1.793c.109.024.218.058.327.091.763.27,1.515.751,2.251.987a2.018,2.018,0,0,0,1.7-.021c1.472-.785.927-3.259,2.19-4.344a1.969,1.969,0,0,1,.185-.139.559.559,0,0,1-.048-.07c.975-.606,2.326-.2,3.45.188,1.212.427,2.793.715,3.635-.276.569-.679.527-1.711,1.069-2.423a2.989,2.989,0,0,1,2.844-.763l.051.015a2.78,2.78,0,0,0,3.968-2.66A16.59,16.59,0,0,1,560.035,569.893Z" transform="translate(-521.084 -533.871)"/>
    </g>
    <path id="路径_5968" data-name="路径 5968" class="cls-8" d="M535.8,588.585a3.937,3.937,0,0,1,3.856-1.73c1.454.33,2.832,1.714,4.126,1.021,1.769-.945.515-4.42,3.386-4.677a3.769,3.769,0,0,1,1.748.3c1.212.494,3.108,1.051,4.041-.061.548-.654.509-1.651,1.033-2.329a2.864,2.864,0,0,1,2.744-.736l.048.015a2.682,2.682,0,0,0,3.829-2.566,15.845,15.845,0,0,1,.863-5.852l3.6-10.7a18.29,18.29,0,0,0-11.465-23.109h0a18.29,18.29,0,0,0-23.1,11.468l-5.674,16.821a18.293,18.293,0,0,0,10.547,22.764A6.479,6.479,0,0,1,535.8,588.585Z" transform="translate(-419.72 -400.714)"/>
    <circle id="椭圆_280" data-name="椭圆 280" class="cls-9" cx="1.972" cy="1.972" r="1.972" transform="translate(120.814 145.269)"/>
    <circle id="椭圆_281" data-name="椭圆 281" class="cls-9" cx="1.972" cy="1.972" r="1.972" transform="translate(132.028 149.04)"/>
    <ellipse id="椭圆_282" data-name="椭圆 282" class="cls-10" cx="2.956" cy="1.972" rx="2.956" ry="1.972" transform="matrix(0.319, -0.948, 0.948, 0.319, 123.074, 158.794)"/>
    <circle id="椭圆_283" data-name="椭圆 283" class="cls-8" cx="2.956" cy="2.956" r="2.956" transform="translate(164.412 144.721)"/>
    <circle id="椭圆_284" data-name="椭圆 284" class="cls-8" cx="1.478" cy="1.478" r="1.478" transform="translate(175.257 141.549)"/>
    <g id="组_3534" data-name="组 3534" class="cls-11" transform="translate(107.257 16.45)">
      <g id="组_3533" data-name="组 3533" class="cls-6">
        <path id="路径_5969" data-name="路径 5969" class="cls-12" d="M573.035,176.893l3.735-11.084a18.98,18.98,0,0,0-7.028-21.474l.03-.018a18.623,18.623,0,0,0-4.783-2.423h0l-.052-.018-.058-.018h0a18.644,18.644,0,0,0-5.119-.963,17.957,17.957,0,0,0-1.851,0,18.88,18.88,0,0,0-3.178.439c-.3.067-.606.142-.881.224s-.585.17-.872.264c-.576.191-1.142.406-1.7.651-.279.121-.554.248-.824.385a18.626,18.626,0,0,0-2.348,1.381c-.251.173-.5.351-.739.533a18.781,18.781,0,0,0-6.434,8.966l-5.87,17.463a18.737,18.737,0,0,0-.812,8.518c.061.439.136.875.224,1.309s.2.86.3,1.284c.082.282.167.563.261.842.139.415.3.83.457,1.236.112.27.23.539.354.806.245.53.518,1.048.812,1.554a16.4,16.4,0,0,0,.957,1.478c.254.357.524.709.8,1.048.376.454.769.894,1.187,1.312a18.723,18.723,0,0,0,6.361,4.207h0l.1.042a6.563,6.563,0,0,1,.424-.657,4.122,4.122,0,0,1,4-1.793c.109.024.218.058.327.091.763.27,1.515.751,2.251.987a2.017,2.017,0,0,0,1.7-.021c1.472-.785.927-3.259,2.19-4.344a2,2,0,0,1,.185-.139.573.573,0,0,1-.048-.07c.975-.606,2.326-.2,3.45.188,1.212.427,2.793.715,3.635-.276.569-.679.527-1.711,1.069-2.423a2.989,2.989,0,0,1,2.844-.763h.052a2.78,2.78,0,0,0,3.968-2.66A16.555,16.555,0,0,1,573.035,176.893Z" transform="translate(-534.084 -140.871)"/>
      </g>
      <path id="路径_5970" data-name="路径 5970" class="cls-8" d="M548.8,195.585a3.937,3.937,0,0,1,3.856-1.73c1.454.33,2.832,1.714,4.126,1.021,1.769-.945.515-4.42,3.386-4.677a3.768,3.768,0,0,1,1.748.3c1.212.494,3.108,1.051,4.041-.061.548-.654.509-1.651,1.033-2.329a2.864,2.864,0,0,1,2.744-.736l.048.015a2.682,2.682,0,0,0,3.829-2.566,15.843,15.843,0,0,1,.863-5.852l3.6-10.7a18.29,18.29,0,0,0-11.465-23.109h0a18.29,18.29,0,0,0-23.1,11.468l-5.673,16.821a18.293,18.293,0,0,0,10.547,22.764A6.491,6.491,0,0,1,548.8,195.585Z" transform="translate(-536.039 -143.208)"/>
      <circle id="椭圆_285" data-name="椭圆 285" class="cls-9" cx="1.972" cy="1.972" r="1.972" transform="translate(17.495 9.775)"/>
      <circle id="椭圆_286" data-name="椭圆 286" class="cls-9" cx="1.972" cy="1.972" r="1.972" transform="translate(28.709 13.546)"/>
    </g>
    <path id="路径_5971" data-name="路径 5971" class="cls-13" d="M556.065,186a26.514,26.514,0,0,1,.845,6.664c0,18.559-19.42,33.605-43.377,33.605-19.608-.012-36.174-10.087-41.533-23.912,3.98,15.379,21.507,26.959,42.532,26.959,23.957,0,43.38-15.046,43.38-33.605A26.7,26.7,0,0,0,556.065,186Z" transform="translate(-383.549 -155.88)"/>
    <g id="组_3535" data-name="组 3535" class="cls-1" transform="translate(41.142 31.283)">
      <ellipse id="椭圆_287" data-name="椭圆 287" class="cls-2" cx="89.717" cy="23.449" rx="89.717" ry="23.449"/>
    </g>
    <path id="路径_5972" data-name="路径 5972" class="cls-8" d="M412.34,192.4c-47.915,0-86.76,10.151-86.76,22.676H499.1C499.1,202.551,460.255,192.4,412.34,192.4Z" transform="translate(-281.482 -160.342)"/>
    <path id="路径_5973" data-name="路径 5973" class="cls-8" d="M412.34,289.933c47.915,0,86.76-10.151,86.76-22.673H325.58C325.58,279.782,364.426,289.933,412.34,289.933Z" transform="translate(-281.482 -212.526)"/>
    <path id="路径_5974" data-name="路径 5974" class="cls-14" d="M412.34,289.933c47.915,0,86.76-10.151,86.76-22.673H325.58C325.58,279.782,364.426,289.933,412.34,289.933Z" transform="translate(-281.482 -212.526)"/>
    <rect id="矩形_1488" data-name="矩形 1488" class="cls-14" width="82.817" height="11.832" rx="5.916" transform="translate(89.45 48.815)"/>
    <path id="路径_5975" data-name="路径 5975" class="cls-15" d="M305.324,139.634a1.115,1.115,0,0,1-.621-1.345.563.563,0,0,0,.024-.124h0a.557.557,0,0,0-1-.37h0a.552.552,0,0,0-.061.109,1.112,1.112,0,0,1-1.345.621.606.606,0,0,0-.124-.024h0a.557.557,0,0,0-.37,1h0a.491.491,0,0,0,.109.064,1.115,1.115,0,0,1,.621,1.345.574.574,0,0,0-.024.121h0a.557.557,0,0,0,1,.373h0a.5.5,0,0,0,.061-.112,1.112,1.112,0,0,1,1.345-.606.6.6,0,0,0,.124.024h0a.557.557,0,0,0,.37-1h0A.491.491,0,0,0,305.324,139.634Z" transform="translate(-264.767 -122.121)"/>
    <path id="路径_5976" data-name="路径 5976" class="cls-15" d="M814.359,445.634a1.115,1.115,0,0,1-.606-1.345.553.553,0,0,0,.024-.124h0a.557.557,0,0,0-1-.37h0a.554.554,0,0,0-.061.109,1.112,1.112,0,0,1-1.345.621.607.607,0,0,0-.124-.024h0a.557.557,0,0,0-.37,1h0a.491.491,0,0,0,.109.064,1.115,1.115,0,0,1,.606,1.345.572.572,0,0,0-.024.121h0a.557.557,0,0,0,1,.373h0a.5.5,0,0,0,.061-.112,1.112,1.112,0,0,1,1.345-.606.61.61,0,0,0,.124.024h0a.557.557,0,0,0,.37-1h0A.49.49,0,0,0,814.359,445.634Z" transform="translate(-619.619 -335.43)"/>
    <path id="路径_5977" data-name="路径 5977" class="cls-15" d="M252.324,587.634a1.115,1.115,0,0,1-.621-1.345.563.563,0,0,0,.024-.124h0a.557.557,0,0,0-1-.37h0a.55.55,0,0,0-.061.109,1.112,1.112,0,0,1-1.345.621.6.6,0,0,0-.124-.024h0a.557.557,0,0,0-.37,1h0a.49.49,0,0,0,.109.064,1.115,1.115,0,0,1,.621,1.345.573.573,0,0,0-.024.121h0a.557.557,0,0,0,1,.373h0a.5.5,0,0,0,.061-.112,1.112,1.112,0,0,1,1.345-.606.6.6,0,0,0,.124.024h0a.557.557,0,0,0,.37-1h0A.492.492,0,0,0,252.324,587.634Z" transform="translate(-227.821 -434.416)"/>
    <path id="路径_5978" data-name="路径 5978" class="cls-15" d="M197.359,256.634a1.115,1.115,0,0,1-.606-1.345.562.562,0,0,0,.024-.124h0a.557.557,0,0,0-1-.37h0a.553.553,0,0,0-.061.109,1.112,1.112,0,0,1-1.345.621.608.608,0,0,0-.124-.024h0a.557.557,0,0,0-.37,1h0a.491.491,0,0,0,.109.064,1.115,1.115,0,0,1,.621,1.345.571.571,0,0,0-.024.121h0a.557.557,0,0,0,1,.373h0a.5.5,0,0,0,.061-.112,1.112,1.112,0,0,1,1.345-.606.606.606,0,0,0,.124.024h0a.557.557,0,0,0,.37-1h0A.492.492,0,0,0,197.359,256.634Z" transform="translate(-189.516 -203.681)"/>
    <path id="路径_5979" data-name="路径 5979" class="cls-15" d="M804.178,88.634a1.115,1.115,0,0,1-.606-1.345.563.563,0,0,0,.024-.124h0a.557.557,0,0,0-1-.37h0a.545.545,0,0,0-.061.109,1.112,1.112,0,0,1-1.345.606.606.606,0,0,0-.124-.024h0a.557.557,0,0,0-.385,1.033h0a.489.489,0,0,0,.109.064,1.115,1.115,0,0,1,.606,1.345.577.577,0,0,0-.024.121h0a.557.557,0,0,0,1.024.357h0a.5.5,0,0,0,.061-.112,1.112,1.112,0,0,1,1.345-.606.6.6,0,0,0,.124.024h0a.557.557,0,0,0,.37-1h0A.49.49,0,0,0,804.178,88.634Z" transform="translate(-612.467 -86.57)"/>
    <g id="组_3536" data-name="组 3536" class="cls-11" transform="translate(31.2 78.107)">
      <rect id="矩形_1489" data-name="矩形 1489" class="cls-16" width="0.909" height="5.15" transform="translate(2.12)"/>
      <rect id="矩形_1490" data-name="矩形 1490" class="cls-16" width="0.909" height="5.15" transform="translate(5.15 2.12) rotate(90)"/>
    </g>
    <g id="组_3537" data-name="组 3537" class="cls-11" transform="translate(249.298 53.874)">
      <rect id="矩形_1491" data-name="矩形 1491" class="cls-16" width="0.909" height="5.15" transform="translate(2.12)"/>
      <rect id="矩形_1492" data-name="矩形 1492" class="cls-16" width="0.909" height="5.15" transform="translate(5.15 2.12) rotate(90)"/>
    </g>
    <g id="组_3538" data-name="组 3538" class="cls-11" transform="translate(219.006 138.387)">
      <rect id="矩形_1493" data-name="矩形 1493" class="cls-16" width="0.909" height="5.15" transform="translate(2.12)"/>
      <rect id="矩形_1494" data-name="矩形 1494" class="cls-16" width="0.909" height="5.15" transform="translate(5.15 2.12) rotate(90)"/>
    </g>
    <circle id="椭圆_288" data-name="椭圆 288" class="cls-17" cx="1.817" cy="1.817" r="1.817" transform="translate(217.189 22.977)"/>
    <circle id="椭圆_289" data-name="椭圆 289" class="cls-17" cx="1.817" cy="1.817" r="1.817" transform="translate(0 2.076)"/>
    <circle id="椭圆_290" data-name="椭圆 290" class="cls-17" cx="1.817" cy="1.817" r="1.817" transform="translate(54.524 106.581)"/>
    <ellipse id="椭圆_291" data-name="椭圆 291" class="cls-14" cx="10.299" cy="2.12" rx="10.299" ry="2.12" transform="translate(60.583 44.66)"/>
    <ellipse id="椭圆_292" data-name="椭圆 292" class="cls-14" cx="10.299" cy="2.12" rx="10.299" ry="2.12" transform="translate(60.583 60.714)"/>
    <ellipse id="椭圆_293" data-name="椭圆 293" class="cls-14" cx="10.299" cy="2.12" rx="10.299" ry="2.12" transform="translate(177.81 44.66)"/>
    <ellipse id="椭圆_294" data-name="椭圆 294" class="cls-14" cx="10.299" cy="2.12" rx="10.299" ry="2.12" transform="translate(177.81 60.714)"/>
    <ellipse id="椭圆_295" data-name="椭圆 295" class="cls-14" cx="10.299" cy="2.12" rx="10.299" ry="2.12" transform="translate(120.56 35.572)"/>
    <ellipse id="椭圆_296" data-name="椭圆 296" class="cls-14" cx="10.299" cy="2.12" rx="10.299" ry="2.12" transform="translate(128.132 13.459)"/>
    <ellipse id="椭圆_297" data-name="椭圆 297" class="cls-14" cx="10.299" cy="2.12" rx="10.299" ry="2.12" transform="translate(108.443 22.547)"/>
    <ellipse id="椭圆_298" data-name="椭圆 298" class="cls-14" cx="10.299" cy="2.12" rx="10.299" ry="2.12" transform="translate(146.307 26.485)"/>
    <ellipse id="椭圆_299" data-name="椭圆 299" class="cls-14" cx="10.299" cy="2.12" rx="10.299" ry="2.12" transform="translate(120.56 67.075)"/>
  </g>
</svg>
