<svg xmlns="http://www.w3.org/2000/svg" xmlns:xlink="http://www.w3.org/1999/xlink" width="279.359" height="238.256" viewBox="0 0 279.359 238.256">
  <defs>
    <style>
      .cls-1 {
        fill: #fb728d;
        opacity: 0.24;
      }

      .cls-2 {
        fill: #f59fb0;
      }

      .cls-3 {
        fill: url(#linear-gradient);
      }

      .cls-4 {
        fill: url(#linear-gradient-2);
      }

      .cls-5 {
        fill: url(#linear-gradient-3);
      }

      .cls-6 {
        fill: url(#linear-gradient-4);
      }

      .cls-7 {
        fill: url(#linear-gradient-5);
      }

      .cls-8 {
        fill: url(#linear-gradient-6);
      }

      .cls-9 {
        fill: url(#linear-gradient-7);
      }

      .cls-10 {
        fill: url(#linear-gradient-8);
      }

      .cls-11 {
        fill: url(#linear-gradient-9);
      }

      .cls-12 {
        fill: url(#linear-gradient-10);
      }
    </style>
    <linearGradient id="linear-gradient" x1="3.966" y1="4.531" x2="3.366" y2="3.661" gradientUnits="objectBoundingBox">
      <stop offset="0" stop-opacity="0"/>
      <stop offset="0.95"/>
    </linearGradient>
    <linearGradient id="linear-gradient-2" x1="4.26" y1="6.243" x2="5.234" y2="6.243" xlink:href="#linear-gradient"/>
    <linearGradient id="linear-gradient-3" x1="1.483" y1="2.341" x2="1.278" y2="1.849" gradientUnits="objectBoundingBox">
      <stop offset="0.02" stop-color="#fff" stop-opacity="0"/>
      <stop offset="0.32" stop-color="#fff" stop-opacity="0.388"/>
      <stop offset="0.68" stop-color="#fff" stop-opacity="0.678"/>
      <stop offset="1" stop-color="#fff"/>
    </linearGradient>
    <linearGradient id="linear-gradient-4" x1="2.752" y1="3.696" x2="2.149" y2="5.415" xlink:href="#linear-gradient-3"/>
    <linearGradient id="linear-gradient-5" x1="0" y1="0.5" x2="1" y2="0.5" xlink:href="#linear-gradient-3"/>
    <linearGradient id="linear-gradient-6" x1="0.745" y1="0.737" x2="0.078" y2="0.023" xlink:href="#linear-gradient-3"/>
    <linearGradient id="linear-gradient-7" x1="9.9" y1="10.649" x2="9.654" y2="8.141" xlink:href="#linear-gradient-3"/>
    <linearGradient id="linear-gradient-8" x1="11.728" y1="12.422" x2="11.483" y2="9.913" xlink:href="#linear-gradient-3"/>
    <linearGradient id="linear-gradient-9" x1="0.589" y1="0.7" x2="0.308" y2="-0.052" xlink:href="#linear-gradient-3"/>
    <linearGradient id="linear-gradient-10" x1="0.407" y1="0.761" x2="0.896" y2="0.022" gradientUnits="objectBoundingBox">
      <stop offset="0.02" stop-color="#fff" stop-opacity="0"/>
      <stop offset="0.32" stop-color="#fff" stop-opacity="0.388"/>
      <stop offset="0.66" stop-color="#fff" stop-opacity="0.678"/>
      <stop offset="1" stop-color="#fff"/>
    </linearGradient>
  </defs>
  <g id="rocket_launch__monochromatic" transform="translate(0.103 -0.049)">
    <path id="路径_5803" data-name="路径 5803" class="cls-1" d="M283.583,231.552c-4.54,13.013-36.4,4.6-45.823,3.962q-13.265-.9-26.544-1.333c-24.293-.815-48.637-.511-72.9.911q-8.628.5-17.249,1.192c-11.45.911-23.048,2.081-34.373.393-.9-.133-1.8-.281-2.7-.459-10.317-1.977-20.508-6.992-26.855-15.161a31.233,31.233,0,0,1-3.059-4.762c-6.044-11.665-4.007-25.744-6.843-38.565-2.533-11.45-8.888-21.656-12.791-32.721A79.388,79.388,0,0,1,87.064,42.351c19.434-5.681,40.505-3.8,59.843-9.762,20.412-6.31,37.409-20.893,57.643-27.774a82.543,82.543,0,0,1,54.859.807c20.582,7.666,39.2,29,32.625,49.963-2.726,8.665-9.428,16.049-10.317,25.093-1.726,17.642,18.634,30.129,21.4,47.637,3.125,19.767-16.183,34.736-28.24,50.711-3.325,4.392-6.251,9.317-7.125,14.753C265.452,208.17,286.975,221.85,283.583,231.552Z" transform="translate(-30.01 -0.47)"/>
    <path id="路径_5804" data-name="路径 5804" class="cls-2" d="M223.485,121.954s7.488,1.94,6.666,4.022-4.266,4.207-9.051,6.666l.17,2.377s12.643-3.829,14.139-8.991a10.2,10.2,0,0,0-1.644-8.888Z" transform="translate(-79.6 -30.718)"/>
    <path id="路径_5805" data-name="路径 5805" class="cls-3" d="M223.485,121.954s7.488,1.94,6.666,4.022-4.266,4.207-9.051,6.666l.17,2.377s12.643-3.829,14.139-8.991a10.2,10.2,0,0,0-1.644-8.888Z" transform="translate(-79.6 -30.718)"/>
    <path id="路径_5806" data-name="路径 5806" class="cls-2" d="M219.426,112.9s-5.11,3.022-5.925,3.7-.8,2.9,1.133,5.244c2.911,3.511,5.318,2.614,5.318,2.614l4.925-5.11Z" transform="translate(-77.496 -29.618)"/>
    <path id="路径_5807" data-name="路径 5807" class="cls-4" d="M219.426,112.9s-5.11,3.022-5.925,3.7-.8,2.9,1.133,5.244c2.911,3.511,5.318,2.614,5.318,2.614l4.925-5.11Z" transform="translate(-77.496 -29.618)"/>
    <path id="路径_5808" data-name="路径 5808" class="cls-2" d="M216.21,105.276a66.968,66.968,0,0,1,18.168-19.908c12.383-9.1,30.677-15.849,36.78-13.924s-1.637,16.4-27.033,30.284c-.541.289-4.185,2.3-4.747,2.54l-17.664,7.406S218.395,111.513,216.21,105.276Z" transform="translate(-78.331 -18.78)"/>
    <path id="路径_5809" data-name="路径 5809" class="cls-5" d="M216.21,105.276a66.968,66.968,0,0,1,18.168-19.908c12.383-9.1,30.677-15.849,36.78-13.924s-1.637,16.4-27.033,30.284c-.541.289-4.185,2.3-4.747,2.54l-17.664,7.406S218.395,111.513,216.21,105.276Z" transform="translate(-78.331 -18.78)"/>
    <path id="路径_5810" data-name="路径 5810" class="cls-2" d="M220.783,98.305s-5.488-5.444-11.643-2.748S194.15,111.4,194.15,111.4l3.051.17s10.184-9.673,12.02-8.888,1.985,7.458,1.985,7.458,4.259-.548,7.288-5.518S220.783,98.305,220.783,98.305Z" transform="translate(-72.61 -24.926)"/>
    <path id="路径_5811" data-name="路径 5811" class="cls-6" d="M220.783,98.305s-5.488-5.444-11.643-2.748S194.15,111.4,194.15,111.4l3.051.17s10.184-9.673,12.02-8.888,1.985,7.458,1.985,7.458,4.259-.548,7.288-5.518S220.783,98.305,220.783,98.305Z" transform="translate(-72.61 -24.926)"/>
    <path id="路径_5812" data-name="路径 5812" class="cls-7" d="M220.751,264.366c-24.293-.815-48.637-.511-72.9.911q-8.628.5-17.249,1.192c-11.45.911-23.048,2.081-34.373.393-.9-.133-1.8-.281-2.7-.459-10.317-1.978-20.508-6.992-26.855-15.161,3.081-34.854,23-57.354,31.551-68.6,14.368-18.871,72.293-63.45,78.2-65.131h0c5.858-1.652,4.407.741,4.407.741l1.163,7.258h0c-1.155.792-92.134,63.642-49.77,102.881C154.509,249.028,189.459,259.3,220.751,264.366Z" transform="translate(-39.545 -30.662)"/>
    <path id="路径_5813" data-name="路径 5813" class="cls-8" d="M110.73,210.4c-11.206,27.522,11.569,43.66,44.475,55.088q-8.628.5-17.249,1.192c-11.45.911-23.048,2.081-34.373.393-6.221-13.916-8.888-26.663-8.525-35.684,1.874-49.674,87.394-112.694,88.72-113.672h0l5.57,7.977h0C188.378,126.022,137.83,143.8,110.73,210.4Z" transform="translate(-46.9 -30.868)"/>
    <circle id="椭圆_274" data-name="椭圆 274" class="cls-9" cx="4.096" cy="4.096" r="4.096" transform="translate(176.162 60.744)"/>
    <circle id="椭圆_275" data-name="椭圆 275" class="cls-10" cx="3.422" cy="3.422" r="3.422" transform="translate(176.836 61.418)"/>
    <path id="路径_5814" data-name="路径 5814" class="cls-11" d="M295.494,159.661c-7.406-3.444-16.012-4.547-23.819-2.222s-14.605,8.384-17.094,16.146c-.689,2.148-1.081,4.444-2.407,6.3-1.711,2.355-4.629,3.451-6.9,5.281-7.08,5.7-5.844,17.879.926,23.945s16.975,6.829,25.759,4.5a37.162,37.162,0,0,0,37.861,10.517c2.577,3.9,8.221,4.747,12.628,3.17s7.865-4.992,11.169-8.31l10.08-10.11c5.636-5.651,11.332-11.391,15.324-18.3s6.125-15.257,4.088-22.96a22.96,22.96,0,0,0-35.58-12.776c-1.289-8.258-8.147-9.428-16.005-7.791C309.566,147.448,292.384,158.209,295.494,159.661Z" transform="translate(-84.634 -38.31)"/>
    <path id="路径_5815" data-name="路径 5815" class="cls-12" d="M78.723,105.543c3.785-2.081,8.147-3.57,12.4-2.7s8.051,4.733,7.629,9.036a8.258,8.258,0,0,1,5.036,15.338c4.518,3.385,4.34,10.821.622,15.064s-9.836,5.666-15.464,5.251-11-2.407-16.427-3.948a9.347,9.347,0,0,0-4.54-.467c-1.659.385-2.963,1.6-4.325,2.644a26.915,26.915,0,0,1-21.812,5.014,14.405,14.405,0,0,1-6.666-3.066c-2.585-2.318-3.762-5.851-4.155-9.3-1.059-9.295,3.7-19.516,12.435-22.96,0,0,1.17-4.851,1.481-5.414a14.679,14.679,0,0,1,3.985-4.755c2.963-2.3,6.806-3.518,10.324-4.659C66.073,98.381,76.768,95.248,78.723,105.543Z" transform="translate(-30.261 -25.846)"/>
  </g>
</svg>
