<svg xmlns="http://www.w3.org/2000/svg" xmlns:xlink="http://www.w3.org/1999/xlink" width="166" height="138.277" viewBox="0 0 166 138.277">
  <defs>
    <style>
      .cls-1, .cls-2 {
        fill: #bbb;
      }

      .cls-1 {
        opacity: 0.24;
      }

      .cls-3 {
        fill: url(#linear-gradient);
      }

      .cls-4 {
        fill: url(#linear-gradient-2);
      }

      .cls-5 {
        fill: url(#linear-gradient-3);
      }

      .cls-6 {
        fill: url(#linear-gradient-4);
      }

      .cls-7 {
        fill: #fff;
      }
    </style>
    <linearGradient id="linear-gradient" x1="0.526" y1="0.869" x2="0.451" y2="-0.197" gradientUnits="objectBoundingBox">
      <stop offset="0" stop-color="#010101" stop-opacity="0"/>
      <stop offset="0.95" stop-color="#010101"/>
    </linearGradient>
    <linearGradient id="linear-gradient-2" x1="-0.001" y1="0.5" x2="1" y2="0.5" xlink:href="#linear-gradient"/>
    <linearGradient id="linear-gradient-3" x1="0.522" y1="-0.015" x2="0.445" y2="1.815" xlink:href="#linear-gradient"/>
    <linearGradient id="linear-gradient-4" x1="0.495" y1="-0.698" x2="0.505" y2="1.725" xlink:href="#linear-gradient"/>
  </defs>
  <g id="doctor_empty_inbox" transform="translate(0.007 0.008)">
    <path id="路径_4079" data-name="路径 4079" class="cls-1" d="M178.133,115.354a16.236,16.236,0,0,1-.476,2.654,22.767,22.767,0,0,1-2.4,5.729c-6.123,10.677-18.111,16.861-30.176,19.383s-24.521,1.974-36.83,2.538c-16.626.753-33.209,3.542-49.834,2.63a112.543,112.543,0,0,1-23.313-3.777c-36.72,0-18.767-56.076-16.656-77.335.915-9.152,1.977-18.758,7.2-26.336,6.184-8.96,17.132-13.423,27.843-15.375s21.732-1.83,32.385-4.079c17.388-3.661,34.224-13.5,51.781-10.7,17.221,2.746,31.2,19.149,31.186,36.589,0,12.242-5.555,24.4-2.367,36.607C169.253,94.467,179.2,103.838,178.133,115.354Z" transform="translate(-12.22 -10.2)"/>
    <path id="路径_4080" data-name="路径 4080" class="cls-1" d="M181.86,363.62a22.766,22.766,0,0,1-2.4,5.729c-6.123,10.677-18.111,16.861-30.176,19.383s-24.521,1.974-36.83,2.538c-16.626.753-33.209,3.542-49.834,2.63a112.54,112.54,0,0,1-23.313-3.777c-5.1-1.391-15.649-3.2-18.737-7.932-1.931-2.95-2.248-8.478-2.312-13.136,1.156.183,2.3.458,3.31.552,3.417.329,6.876.351,10.3.458q10.884.348,21.784.467,43.385.461,86.707-2.855Q161.146,366.079,181.86,363.62Z" transform="translate(-16.422 -255.812)"/>
    <rect id="矩形_1467" data-name="矩形 1467" class="cls-2" width="8.163" height="50.344" transform="translate(84.667 72.44)"/>
    <rect id="矩形_1468" data-name="矩形 1468" class="cls-3" width="8.163" height="50.344" transform="translate(84.667 72.44)"/>
    <path id="路径_4081" data-name="路径 4081" class="cls-2" d="M252.032,173.372v19.951H196.1V173.372A10.4,10.4,0,0,1,206.512,163h35.112a10.406,10.406,0,0,1,10.409,10.372Z" transform="translate(-140.011 -116.392)"/>
    <path id="路径_4082" data-name="路径 4082" class="cls-4" d="M197.67,158.44h0a9.005,9.005,0,0,1,9.008,9.018v19.493h-18V167.458A9.005,9.005,0,0,1,197.67,158.44Z" transform="translate(-131.126 -110.112)"/>
    <path id="路径_4083" data-name="路径 4083" class="cls-5" d="M282.467,173.344v19.951H248V172.182a11.892,11.892,0,0,0-8.105-9.222h32.168A10.4,10.4,0,0,1,282.467,173.344Z" transform="translate(-170.442 -116.365)"/>
    <rect id="矩形_1469" data-name="矩形 1469" class="cls-2" width="39.429" height="2.864" rx="1.432" transform="translate(38.134 74.072)"/>
    <rect id="矩形_1470" data-name="矩形 1470" class="cls-6" width="39.429" height="2.864" rx="1.432" transform="translate(38.134 74.072)"/>
    <path id="路径_4084" data-name="路径 4084" class="cls-1" d="M177.366,393.345c-4.75.848-9.457,1.949-14.268,2.413-3.118.305-6.559.461-8.822,2.63a2.965,2.965,0,0,0-1,1.794c-.131,1.5,1.44,2.547,2.84,3.1,4.091,1.617,8.542,2.081,12.928,2.361,7.154.455,14.338.461,21.491.467l21.354.021c6.3,0,13.3-.256,17.815-4.655a5.571,5.571,0,0,0,1.83-3.182c.25-2.007-1.272-3.893-3.112-4.731-3.185-1.455-7.95-1.153-11.421-1.525-4.512-.5-9.051-.775-13.59-.83a139.027,139.027,0,0,0-26.043,2.138Z" transform="translate(-110.243 -274.975)"/>
    <path id="路径_4085" data-name="路径 4085" class="cls-2" d="M309.891,201.3c-.076.253-.305,1.031-.369,1.309l-.763,2.825a1.525,1.525,0,0,0-.052.381.305.305,0,0,0,.333.305,1.4,1.4,0,0,0,.8-.332,3.143,3.143,0,0,0,1.028-2.4,3.188,3.188,0,0,0-1.461-2.761,4.5,4.5,0,0,0-2.279-.534,4.263,4.263,0,0,0-4.576,4.3,3.912,3.912,0,0,0,4.249,4.048,6.851,6.851,0,0,0,1.946-.281,5.6,5.6,0,0,0,1.425-.674l.778,1.12a5.931,5.931,0,0,1-1.592.738,9.127,9.127,0,0,1-2.7.409,5.649,5.649,0,0,1-4.2-1.525,5.238,5.238,0,0,1-1.467-3.74,5.491,5.491,0,0,1,1.55-3.966,6.29,6.29,0,0,1,4.683-1.745c2.965,0,5.079,1.91,5.079,4.576a4.3,4.3,0,0,1-1.22,3.066,3.423,3.423,0,0,1-2.379,1.043,1.254,1.254,0,0,1-1.1-.494.943.943,0,0,1-.116-.4,2.065,2.065,0,0,1-1.705.8c-1.26,0-2.062-.943-2.062-2.392,0-2.135,1.415-3.932,3.105-3.932a1.41,1.41,0,0,1,1.412.714l.128-.445Zm-2.62,3.78a4.734,4.734,0,0,0,.509-1.962.78.78,0,0,0-.738-.879,1.539,1.539,0,0,0-1.248.915,4.411,4.411,0,0,0-.509,1.907c0,.674.256,1.031.738,1.031S306.938,205.725,307.271,205.079Z" transform="translate(-212.906 -141.25)"/>
    <path id="路径_4086" data-name="路径 4086" class="cls-7" d="M145.851,136.534a24.427,24.427,0,0,1-14.506-4.6,14.85,14.85,0,0,1-2.794-2.663,10.473,10.473,0,0,1-4.3-1.476,13.017,13.017,0,0,1-.528-22.037l.586.885a11.952,11.952,0,0,0,.485,20.238,9.881,9.881,0,0,0,2.947,1.187,7.627,7.627,0,0,1-1.056-3.392,5.994,5.994,0,0,1,2.056-4.707,4.115,4.115,0,0,1,6.406.869,5.006,5.006,0,0,1,.72,3.749,6.283,6.283,0,0,1-4.975,4.576,7.508,7.508,0,0,1-.915.125,14.691,14.691,0,0,0,2.016,1.794,23.8,23.8,0,0,0,16.665,4.231l.116,1.055a25.867,25.867,0,0,1-2.919.165Zm-16.742-8.285a7.321,7.321,0,0,0,1.559-.122,5.274,5.274,0,0,0,4.146-3.758,3.987,3.987,0,0,0-.574-2.947,3.051,3.051,0,0,0-4.811-.641,4.881,4.881,0,0,0-1.69,3.841A6.955,6.955,0,0,0,129.11,128.249Z" transform="translate(-85.659 -76.614)"/>
    <path id="路径_4087" data-name="路径 4087" class="cls-2" d="M150.893,87.394a6.58,6.58,0,0,1,2.764-3.609,12.175,12.175,0,0,1,5.662-1.315,2.59,2.59,0,0,0-.943,1.687c-.119.653-.107,1.324-.207,1.98a5.964,5.964,0,0,1-5.729,4.9c-.259-1.4.735-2.691,1.669-3.767a3.051,3.051,0,0,0-2.135,2.352A12.084,12.084,0,0,1,151.781,91c-.085.284-.467.97-.857.824-.284-.107-.305-1.144-.339-1.4a7.627,7.627,0,0,1,.308-3.023Z" transform="translate(-108.354 -60.429)"/>
    <path id="路径_4088" data-name="路径 4088" class="cls-2" d="M102.13,119.25a11.434,11.434,0,0,0,.305,2.233,3.832,3.832,0,0,0,1.123,1.916,12.669,12.669,0,0,1,1.117.882.159.159,0,0,0,.082.061c.351.092.692-1.3.686-1.544a3.536,3.536,0,0,0-.552-1.483A4.06,4.06,0,0,0,102.13,119.25Z" transform="translate(-74.707 -85.989)"/>
  </g>
</svg>
