<svg xmlns="http://www.w3.org/2000/svg" xmlns:xlink="http://www.w3.org/1999/xlink" width="214.115" height="179.648" viewBox="0 0 214.115 179.648">
  <defs>
    <style>
      .cls-1 {
        opacity: 0.8;
      }

      .cls-2 {
        fill: #c7eeeb;
      }

      .cls-2, .cls-5 {
        opacity: 0.24;
      }

      .cls-3 {
        fill: url(#linear-gradient);
      }

      .cls-4, .cls-5 {
        fill: #82d2b7;
      }

      .cls-6 {
        fill: #e8a825;
      }

      .cls-7 {
        fill: #f8c244;
      }

      .cls-8, .cls-9 {
        opacity: 0.37;
      }

      .cls-8 {
        fill: url(#linear-gradient-2);
      }

      .cls-9 {
        fill: url(#linear-gradient-3);
      }
    </style>
    <linearGradient id="linear-gradient" x1="0.496" y1="1.389" x2="0.527" y2="-5.74" gradientUnits="objectBoundingBox">
      <stop offset="0" stop-color="#010101" stop-opacity="0"/>
      <stop offset="0.95" stop-color="#010101"/>
    </linearGradient>
    <linearGradient id="linear-gradient-2" x1="0" y1="0.499" x2="1" y2="0.499" xlink:href="#linear-gradient"/>
    <linearGradient id="linear-gradient-3" x1="0.492" y1="-1.344" x2="0.505" y2="1.582" xlink:href="#linear-gradient"/>
  </defs>
  <g id="doctor_money_jar" class="cls-1" transform="translate(0.028 -0.033)">
    <path id="路径_3657" data-name="路径 3657" class="cls-2" d="M97.233,17.95c-10.581.65-21.308,2.083-30.947,6.515C57.667,28.422,50.248,34.621,43.65,41.436,37.6,47.685,32.057,54.65,28.895,62.756c-2.541,6.586-3.441,13.714-5.832,20.379-4.353,12.081-13.514,22.245-16.2,34.8a47.318,47.318,0,0,0-.683,13.63c2.058,25.994,19.916,50.093,44.182,59.624,11.143,4.378,23.236,5.832,35.2,5.99,14.838.2,29.631-1.525,44.369-3.245,24.919-2.916,50.584-6.057,72.454-18.35a34.959,34.959,0,0,0,8.748-6.453c3.491-3.749,5.549-8.619,6.894-13.564a59.645,59.645,0,0,0-1.666-36.242c-3.078-8.231-8.04-16-8.669-24.761-.667-9.294,3.641-18.117,6.094-27.106,2.133-7.815,2.529-18.146-2.554-25.061-3.628-4.936-10.677-6.636-16.1-8.773a231.053,231.053,0,0,0-62.223-15,226.408,226.408,0,0,0-35.679-.675Z" transform="translate(-6 -17.51)"/>
    <ellipse id="椭圆_116" data-name="椭圆 116" class="cls-3" cx="42.549" cy="6.374" rx="42.549" ry="6.374" transform="translate(61.894 147.373)"/>
    <path id="路径_3658" data-name="路径 3658" class="cls-4" d="M192.956,171.76H189a44.573,44.573,0,0,0-44.573,44.573v3.953A44.573,44.573,0,0,0,189,264.859h3.953a44.573,44.573,0,0,0,44.573-44.573v-3.953a44.573,44.573,0,0,0-44.573-44.573Zm42,48.089a41.925,41.925,0,0,1-41.928,41.928h-3.7A41.925,41.925,0,0,1,147.4,219.845v-3.716a41.919,41.919,0,0,1,41.924-41.915h3.712a41.92,41.92,0,0,1,41.924,41.92Z" transform="translate(-86.781 -107.485)"/>
    <path id="路径_3659" data-name="路径 3659" class="cls-5" d="M239.142,219.565v3.72c0,1.279-.05,2.545-.167,3.782a41.928,41.928,0,0,1-41.757,38.145h-3.707a41.928,41.928,0,0,1-41.745-38.145c-.117-1.25-.167-2.5-.167-3.782v-3.72a41.919,41.919,0,0,1,41.907-41.915h3.712a41.92,41.92,0,0,1,41.924,41.92Z" transform="translate(-90.964 -110.921)"/>
    <path id="路径_3660" data-name="路径 3660" class="cls-5" d="M239.209,242.861a41.928,41.928,0,0,1-41.757,38.145h-3.707A41.928,41.928,0,0,1,152,242.861a41.92,41.92,0,0,1,41.761-38.141h3.707a41.917,41.917,0,0,1,41.74,38.133Z" transform="translate(-91.197 -126.715)"/>
    <circle id="椭圆_117" data-name="椭圆 117" class="cls-6" cx="10.502" cy="10.502" r="10.502" transform="translate(93.849 107.032)"/>
    <circle id="椭圆_118" data-name="椭圆 118" class="cls-7" cx="10.502" cy="10.502" r="10.502" transform="translate(92.825 106.47)"/>
    <circle id="椭圆_119" data-name="椭圆 119" class="cls-6" cx="8.948" cy="8.948" r="8.948" transform="translate(94.379 108.023)"/>
    <path id="路径_3661" data-name="路径 3661" class="cls-7" d="M244.558,294.934l.691-1.25a4.128,4.128,0,0,1-1.6-1.6l.754-.667a3.807,3.807,0,0,0,1.5,1.516,1.482,1.482,0,0,0,2.15-.417c.392-.721.125-1.375-.592-2.254-1-1.2-1.466-2.2-.871-3.278a2.293,2.293,0,0,1,2.983-.971l.692-1.25.771.417-.667,1.2a3.8,3.8,0,0,1,1.379,1.329l-.762.65a3.407,3.407,0,0,0-1.333-1.287,1.293,1.293,0,0,0-1.908.346c-.358.646-.075,1.225.762,2.266,1,1.229,1.287,2.229.675,3.333a2.464,2.464,0,0,1-3.128,1.033l-.708,1.3Z" transform="translate(-144.668 -173.418)"/>
    <circle id="椭圆_120" data-name="椭圆 120" class="cls-6" cx="10.502" cy="10.502" r="10.502" transform="translate(75.674 111.198)"/>
    <circle id="椭圆_121" data-name="椭圆 121" class="cls-7" cx="10.502" cy="10.502" r="10.502" transform="translate(74.816 110.406)"/>
    <circle id="椭圆_122" data-name="椭圆 122" class="cls-6" cx="8.948" cy="8.948" r="8.948" transform="translate(76.37 111.96)"/>
    <path id="路径_3662" data-name="路径 3662" class="cls-7" d="M199.958,304.413l.971-1.054a4.129,4.129,0,0,1-1.179-1.929l.891-.471a3.749,3.749,0,0,0,1.1,1.829,1.489,1.489,0,0,0,2.187.117c.55-.6.446-1.3-.042-2.329-.683-1.4-.9-2.5-.067-3.4a2.31,2.31,0,0,1,3.128-.233l.966-1.058.65.6-.933,1.016a3.749,3.749,0,0,1,1.025,1.612l-.883.45a3.47,3.47,0,0,0-1-1.562,1.292,1.292,0,0,0-1.933-.121c-.5.546-.362,1.175.2,2.383.675,1.429.717,2.474-.137,3.4a2.458,2.458,0,0,1-3.283.262l-1,1.087Z" transform="translate(-119.056 -179.906)"/>
    <circle id="椭圆_123" data-name="椭圆 123" class="cls-6" cx="10.502" cy="10.502" r="10.502" transform="translate(112.333 110.523)"/>
    <circle id="椭圆_124" data-name="椭圆 124" class="cls-7" cx="10.502" cy="10.502" r="10.502" transform="translate(111.229 110.906)"/>
    <circle id="椭圆_125" data-name="椭圆 125" class="cls-6" cx="8.948" cy="8.948" r="8.948" transform="translate(112.783 112.46)"/>
    <path id="路径_3663" data-name="路径 3663" class="cls-7" d="M294.269,306.471l-.471-1.354a4.137,4.137,0,0,1-2.258.121V304.23a3.778,3.778,0,0,0,2.133-.1,1.493,1.493,0,0,0,1.137-1.87c-.267-.767-.937-1.012-2.083-1.066-1.554-.062-2.612-.383-3.02-1.554a2.285,2.285,0,0,1,1.275-2.862l-.471-1.354.833-.287.454,1.3a3.79,3.79,0,0,1,1.908-.137l-.029,1a3.432,3.432,0,0,0-1.85.133c-1.029.358-1.2,1.112-1.016,1.666.242.7.858.875,2.191.954,1.579.079,2.5.537,2.916,1.729a2.464,2.464,0,0,1-1.325,3.016l.487,1.4Z" transform="translate(-171.459 -179.468)"/>
    <path id="路径_3664" data-name="路径 3664" class="cls-4" d="M237.5,174.245c0,3.807-11.327,6.907-25.29,6.907s-25.3-3.1-25.3-6.907c0-.833-.633-5.761.242-6.965a2.008,2.008,0,0,0-.242.958c0,3.824,11.327,6.911,25.3,6.911,13.793,0,24.994-3.012,25.278-6.769A36.528,36.528,0,0,1,237.5,174.245Z" transform="translate(-111.435 -104.871)"/>
    <path id="路径_3665" data-name="路径 3665" class="cls-8" d="M237.5,174.245c0,3.807-11.327,6.907-25.29,6.907s-25.3-3.1-25.3-6.907c0-.833-.633-5.761.242-6.965a2.008,2.008,0,0,0-.242.958c0,3.824,11.327,6.911,25.3,6.911,13.793,0,24.994-3.012,25.278-6.769A36.528,36.528,0,0,1,237.5,174.245Z" transform="translate(-111.435 -104.871)"/>
    <path id="路径_3666" data-name="路径 3666" class="cls-4" d="M237.8,160.04c-.271,3.749-11.485,6.769-25.278,6.769-13.976,0-25.3-3.087-25.3-6.911a2.008,2.008,0,0,1,.242-.958h0c1.75-3.37,12.3-5.94,25.078-5.94,12.039,0,22.112,2.3,24.644,5.386a1.162,1.162,0,0,1,.246.308,4.232,4.232,0,0,1,.371,1.346Z" transform="translate(-111.745 -96.54)"/>
    <path id="路径_3667" data-name="路径 3667" class="cls-4" d="M308.127,167.856a.558.558,0,0,1,0,.142,4.231,4.231,0,0,0-.387-1.358A2.083,2.083,0,0,1,308.127,167.856Z" transform="translate(-182.06 -104.498)"/>
    <rect id="矩形_788" data-name="矩形 788" class="cls-9" width="19.154" height="1.575" transform="translate(90.988 61.851)"/>
    <circle id="椭圆_126" data-name="椭圆 126" class="cls-6" cx="11.456" cy="11.456" r="11.456" transform="translate(83.489 34.549)"/>
    <circle id="椭圆_127" data-name="椭圆 127" class="cls-7" cx="11.456" cy="11.456" r="11.456" transform="translate(82.219 34.549)"/>
    <circle id="椭圆_128" data-name="椭圆 128" class="cls-6" cx="9.76" cy="9.76" r="9.76" transform="translate(83.914 36.244)"/>
    <path id="路径_3668" data-name="路径 3668" class="cls-7" d="M225.441,124.842v-1.566a4.478,4.478,0,0,1-2.37-.679l.37-1.037a4.137,4.137,0,0,0,2.233.662c1.1,0,1.841-.633,1.841-1.516s-.6-1.379-1.75-1.845c-1.579-.617-2.558-1.329-2.558-2.679a2.507,2.507,0,0,1,2.341-2.5V112.12h.958v1.5a4.091,4.091,0,0,1,2.016.542l-.387,1.021a3.749,3.749,0,0,0-1.954-.525c-1.191,0-1.641.712-1.641,1.329,0,.808.575,1.212,1.92,1.766,1.6.654,2.4,1.458,2.4,2.837a2.677,2.677,0,0,1-2.449,2.633v1.612Z" transform="translate(-132.662 -72.689)"/>
    <circle id="椭圆_129" data-name="椭圆 129" class="cls-6" cx="10.502" cy="10.502" r="10.502" transform="translate(79.928 12.999)"/>
    <circle id="椭圆_130" data-name="椭圆 130" class="cls-7" cx="10.502" cy="10.502" r="10.502" transform="translate(78.761 12.999)"/>
    <circle id="椭圆_131" data-name="椭圆 131" class="cls-6" cx="8.948" cy="8.948" r="8.948" transform="translate(80.315 14.553)"/>
    <path id="路径_3669" data-name="路径 3669" class="cls-7" d="M215.3,71.086V69.665a4.141,4.141,0,0,1-2.174-.625l.342-.95a3.816,3.816,0,0,0,2.045.608c1.008,0,1.691-.583,1.691-1.391s-.554-1.25-1.608-1.691c-1.446-.567-2.341-1.221-2.341-2.454a2.283,2.283,0,0,1,2.145-2.287V59.43h.879V60.8a3.783,3.783,0,0,1,1.845.5l-.354.937a3.424,3.424,0,0,0-1.783-.492c-1.1,0-1.508.654-1.508,1.221,0,.737.525,1.108,1.762,1.616,1.462.6,2.2,1.337,2.2,2.6A2.468,2.468,0,0,1,216.2,69.6v1.475Z" transform="translate(-126.862 -41.948)"/>
    <circle id="椭圆_132" data-name="椭圆 132" class="cls-6" cx="10.502" cy="10.502" r="10.502" transform="translate(61.561 1.36)"/>
    <circle id="椭圆_133" data-name="椭圆 133" class="cls-7" cx="10.502" cy="10.502" r="10.502" transform="translate(60.395 1.36)"/>
    <circle id="椭圆_134" data-name="椭圆 134" class="cls-6" cx="8.948" cy="8.948" r="8.948" transform="translate(61.948 2.914)"/>
    <path id="路径_3670" data-name="路径 3670" class="cls-7" d="M171.22,43.146V41.7a4.112,4.112,0,0,1-2.17-.625l.337-.95a3.782,3.782,0,0,0,2.045.608c1.008,0,1.691-.579,1.691-1.391s-.554-1.25-1.6-1.666c-1.45-.571-2.345-1.221-2.345-2.458a2.28,2.28,0,0,1,2.145-2.287V31.49h.879v1.379a3.787,3.787,0,0,1,1.829.5l-.354.937a3.412,3.412,0,0,0-1.787-.483c-1.1,0-1.508.654-1.508,1.221,0,.737.525,1.108,1.762,1.62,1.462.6,2.2,1.333,2.2,2.6a2.467,2.467,0,0,1-2.241,2.412V43.15Z" transform="translate(-101.145 -25.647)"/>
    <path id="路径_3671" data-name="路径 3671" class="cls-6" d="M273.426,369.091C267.1,369,262,366.833,262.037,364.254a12.688,12.688,0,0,1-.092-2.17c1-2.166,5.986-2.42,11.614-2.341,5.532.079,10.177,0,11.214,2.137a15.75,15.75,0,0,1,.171,2.7C284.911,367.162,279.75,369.178,273.426,369.091Z" transform="translate(-155.32 -217.152)"/>
    <ellipse id="椭圆_135" data-name="椭圆 135" class="cls-7" cx="4.674" cy="11.456" rx="4.674" ry="11.456" transform="matrix(0.014, -1, 1, 0.014, 106.567, 149.618)"/>
    <ellipse id="椭圆_136" data-name="椭圆 136" class="cls-6" cx="3.982" cy="9.76" rx="3.982" ry="9.76" transform="matrix(0.014, -1, 1, 0.014, 108.272, 148.95)"/>
    <path id="路径_3672" data-name="路径 3672" class="cls-7" d="M274.728,363.377l1.566.021a1.275,1.275,0,0,1,.7-.958l1.033.167a1.212,1.212,0,0,0-.687.9c0,.446.625.758,1.508.771a2.35,2.35,0,0,0,1.854-.687,3.305,3.305,0,0,1,2.7-1c1.346.021,2.258.417,2.479.991l1.566.021v.392l-1.5-.021a1.125,1.125,0,0,1-.554.812l-1.021-.171a1.037,1.037,0,0,0,.537-.791c0-.483-.7-.679-1.321-.687a2.179,2.179,0,0,0-1.779.758,3.641,3.641,0,0,1-2.849.941c-1.221-.021-2.362-.383-2.616-1.037l-1.612-.025Z" transform="translate(-162.796 -218.733)"/>
    <path id="路径_3673" data-name="路径 3673" class="cls-6" d="M376.866,373.451c-6.328-.087-11.427-2.254-11.389-4.836a12.643,12.643,0,0,1-.092-2.166c1-2.166,5.99-2.424,11.614-2.345,5.536.079,10.181,0,11.218,2.137a16.24,16.24,0,0,1,.171,2.7C388.355,371.522,383.2,373.543,376.866,373.451Z" transform="translate(-215.67 -219.696)"/>
    <ellipse id="椭圆_137" data-name="椭圆 137" class="cls-7" cx="4.674" cy="11.456" rx="4.674" ry="11.456" transform="matrix(0.014, -1, 1, 0.014, 149.665, 151.435)"/>
    <ellipse id="椭圆_138" data-name="椭圆 138" class="cls-6" cx="3.982" cy="9.76" rx="3.982" ry="9.76" transform="matrix(0.014, -1, 1, 0.014, 151.37, 150.768)"/>
    <path id="路径_3674" data-name="路径 3674" class="cls-7" d="M378.2,367.743l1.562.025a1.283,1.283,0,0,1,.7-.958l1.037.167a1.191,1.191,0,0,0-.679.9c0,.45.625.762,1.508.775a2.374,2.374,0,0,0,1.854-.687,3.311,3.311,0,0,1,2.691-1.008c1.346.017,2.258.417,2.5.991h1.562v.392h-1.5a1.121,1.121,0,0,1-.554.833L387.856,369a1.05,1.05,0,0,0,.537-.787c0-.487-.7-.679-1.325-.687a2.166,2.166,0,0,0-1.775.758,3.631,3.631,0,0,1-2.849.937c-1.225,0-2.366-.379-2.62-1.037l-1.612-.021Z" transform="translate(-223.169 -221.283)"/>
    <path id="路径_3675" data-name="路径 3675" class="cls-6" d="M381.026,363.631c-6.328-.092-11.427-2.254-11.389-4.836a12.643,12.643,0,0,1-.092-2.166c1-2.17,5.986-2.424,11.614-2.345,5.536.079,10.177,0,11.218,2.137a15.8,15.8,0,0,1,.167,2.7C392.511,361.7,387.35,363.739,381.026,363.631Z" transform="translate(-218.097 -213.967)"/>
    <ellipse id="椭圆_139" data-name="椭圆 139" class="cls-7" cx="4.674" cy="11.456" rx="4.674" ry="11.456" transform="matrix(0.014, -1, 1, 0.014, 151.394, 147.34)"/>
    <ellipse id="椭圆_140" data-name="椭圆 140" class="cls-6" cx="3.982" cy="9.76" rx="3.982" ry="9.76" transform="matrix(0.014, -1, 1, 0.014, 153.099, 146.673)"/>
    <path id="路径_3676" data-name="路径 3676" class="cls-7" d="M382.35,357.923l1.562.025a1.25,1.25,0,0,1,.7-.958l1.037.167a1.179,1.179,0,0,0-.679.9c0,.45.621.762,1.5.775a2.353,2.353,0,0,0,1.854-.691,3.332,3.332,0,0,1,2.7-1c1.346.017,2.258.417,2.5.991h1.562v.392h-1.5a1.137,1.137,0,0,1-.554.833L392,359.177a1.037,1.037,0,0,0,.537-.787c0-.487-.7-.679-1.321-.691a2.183,2.183,0,0,0-1.779.762,3.615,3.615,0,0,1-2.845.937c-1.225,0-2.366-.383-2.62-1.037l-1.612-.021Z" transform="translate(-225.59 -215.553)"/>
    <path id="路径_3677" data-name="路径 3677" class="cls-6" d="M374.039,354.681c-6.324-.088-11.422-2.254-11.385-4.836a13.089,13.089,0,0,1-.1-2.166c1-2.166,5.99-2.424,11.614-2.345,5.536.079,10.181,0,11.218,2.137a15.8,15.8,0,0,1,.171,2.7C385.524,352.752,380.367,354.768,374.039,354.681Z" transform="translate(-214.022 -208.745)"/>
    <ellipse id="椭圆_141" data-name="椭圆 141" class="cls-7" cx="4.674" cy="11.456" rx="4.674" ry="11.456" transform="matrix(0.014, -1, 1, 0.014, 148.483, 143.616)"/>
    <ellipse id="椭圆_142" data-name="椭圆 142" class="cls-6" cx="3.982" cy="9.76" rx="3.982" ry="9.76" transform="matrix(0.014, -1, 1, 0.014, 150.188, 142.949)"/>
    <path id="路径_3678" data-name="路径 3678" class="cls-7" d="M375.36,348.973l1.566.025a1.279,1.279,0,0,1,.691-.958l1.037.167a1.191,1.191,0,0,0-.679.9c0,.45.625.762,1.508.775a2.362,2.362,0,0,0,1.854-.687,3.314,3.314,0,0,1,2.7-1.008c1.283.021,2.254.417,2.479.991l1.566.021v.392l-1.5-.021a1.129,1.129,0,0,1-.554.833L385,350.227a1.037,1.037,0,0,0,.537-.787c0-.487-.7-.679-1.321-.687a2.174,2.174,0,0,0-1.779.758,3.625,3.625,0,0,1-2.849.937c-1.225,0-2.366-.379-2.62-1.037l-1.608-.021Z" transform="translate(-221.512 -210.332)"/>
    <path id="路径_3679" data-name="路径 3679" class="cls-6" d="M376.866,345.951c-6.328-.092-11.427-2.254-11.389-4.836a12.643,12.643,0,0,1-.092-2.166c1-2.17,5.99-2.424,11.614-2.345,5.536.079,10.181,0,11.218,2.137a16.24,16.24,0,0,1,.171,2.7C388.355,344.022,383.2,346.042,376.866,345.951Z" transform="translate(-215.67 -203.652)"/>
    <ellipse id="椭圆_143" data-name="椭圆 143" class="cls-7" cx="4.674" cy="11.456" rx="4.674" ry="11.456" transform="matrix(0.014, -1, 1, 0.014, 149.666, 139.978)"/>
    <ellipse id="椭圆_144" data-name="椭圆 144" class="cls-6" cx="3.982" cy="9.76" rx="3.982" ry="9.76" transform="matrix(0.014, -1, 1, 0.014, 151.371, 139.311)"/>
    <path id="路径_3680" data-name="路径 3680" class="cls-7" d="M378.2,340.243l1.562.025a1.283,1.283,0,0,1,.7-.958l1.037.167a1.191,1.191,0,0,0-.679.9c0,.45.625.762,1.508.775a2.375,2.375,0,0,0,1.854-.687,3.311,3.311,0,0,1,2.691-1.008c1.346.017,2.258.417,2.5.991h1.562v.4h-1.5a1.121,1.121,0,0,1-.554.833l-1.016-.175a1.05,1.05,0,0,0,.537-.787c0-.487-.7-.679-1.325-.687a2.166,2.166,0,0,0-1.775.758,3.631,3.631,0,0,1-2.849.937c-1.225,0-2.366-.379-2.62-1.037l-1.612-.021Z" transform="translate(-223.169 -205.238)"/>
    <path id="路径_3681" data-name="路径 3681" class="cls-6" d="M376.866,336.671c-6.328-.092-11.427-2.258-11.389-4.836a12.692,12.692,0,0,1-.092-2.17c1-2.166,5.99-2.42,11.614-2.341,5.536.079,10.181,0,11.218,2.137a16.184,16.184,0,0,1,.171,2.7C388.355,334.738,383.2,336.762,376.866,336.671Z" transform="translate(-215.67 -198.238)"/>
    <ellipse id="椭圆_145" data-name="椭圆 145" class="cls-7" cx="4.674" cy="11.456" rx="4.674" ry="11.456" transform="matrix(0.014, -1, 1, 0.014, 149.667, 136.111)"/>
    <ellipse id="椭圆_146" data-name="椭圆 146" class="cls-6" cx="3.982" cy="9.76" rx="3.982" ry="9.76" transform="matrix(0.014, -1, 1, 0.014, 151.372, 135.444)"/>
    <path id="路径_3682" data-name="路径 3682" class="cls-7" d="M378.2,330.957l1.562.021a1.283,1.283,0,0,1,.7-.958l1.037.167a1.2,1.2,0,0,0-.679.9c0,.45.625.762,1.508.775a2.362,2.362,0,0,0,1.854-.687,3.3,3.3,0,0,1,2.691-1c1.346.021,2.258.417,2.5.991l1.562.021v.392l-1.5-.021a1.112,1.112,0,0,1-.554.812l-1.016-.171a1.05,1.05,0,0,0,.537-.791c0-.483-.7-.679-1.325-.687a2.166,2.166,0,0,0-1.775.758,3.647,3.647,0,0,1-2.849.941c-1.225,0-2.366-.383-2.62-1.037l-1.612-.025Z" transform="translate(-223.169 -199.818)"/>
    <path id="路径_3683" data-name="路径 3683" class="cls-6" d="M435.541,372.4c-5.52-.079-9.969-1.97-9.939-4.22a11.16,11.16,0,0,1-.079-1.891c.871-1.891,5.224-2.116,10.131-2.045,4.832.071,8.885,0,9.789,1.866a13.931,13.931,0,0,1,.15,2.354C445.56,370.718,441.061,372.468,435.541,372.4Z" transform="translate(-250.759 -219.779)"/>
    <ellipse id="椭圆_147" data-name="椭圆 147" class="cls-7" cx="4.078" cy="9.994" rx="4.078" ry="9.994" transform="translate(173.943 149.962) rotate(-89.427)"/>
    <ellipse id="椭圆_148" data-name="椭圆 148" class="cls-6" cx="3.474" cy="8.515" rx="3.474" ry="8.515" transform="matrix(0.014, -1, 1, 0.014, 176.205, 150.018)"/>
    <path id="路径_3684" data-name="路径 3684" class="cls-7" d="M436.667,367.422l1.366.021a1.116,1.116,0,0,1,.6-.833l.9.146a1.054,1.054,0,0,0-.592.787c0,.392.546.662,1.316.675a2.083,2.083,0,0,0,1.616-.6,2.891,2.891,0,0,1,2.349-.875c1.125,0,1.97.35,2.166.862l1.366.021v.342l-1.308-.021a1,1,0,0,1-.483.712l-.891-.154a.908.908,0,0,0,.462-.692c0-.417-.617-.592-1.154-.6a1.879,1.879,0,0,0-1.55.662,3.259,3.259,0,0,1-2.5.833c-1.066,0-2.083-.329-2.287-.9h-1.4Z" transform="translate(-257.27 -221.166)"/>
    <path id="路径_3685" data-name="路径 3685" class="cls-6" d="M438.017,364.782c-5.52-.079-9.969-1.966-9.935-4.22a11.163,11.163,0,0,1-.079-1.891c.871-1.891,5.224-2.112,10.131-2.045,4.828.071,8.881,0,9.785,1.866a13.513,13.513,0,0,1,.15,2.354C448.04,363.1,443.537,364.862,438.017,364.782Z" transform="translate(-252.205 -215.335)"/>
    <ellipse id="椭圆_149" data-name="椭圆 149" class="cls-7" cx="4.078" cy="9.994" rx="4.078" ry="9.994" transform="matrix(0.014, -1, 1, 0.014, 175.749, 147.423)"/>
    <ellipse id="椭圆_150" data-name="椭圆 150" class="cls-6" cx="3.474" cy="8.515" rx="3.474" ry="8.515" transform="matrix(0.014, -1, 1, 0.014, 177.237, 146.84)"/>
    <path id="路径_3686" data-name="路径 3686" class="cls-7" d="M439.153,359.833h1.362a1.116,1.116,0,0,1,.608-.833l.9.146a1.029,1.029,0,0,0-.592.783c0,.392.546.667,1.312.675a2.049,2.049,0,0,0,1.62-.6,2.883,2.883,0,0,1,2.35-.875c1.121,0,1.97.354,2.166.862l1.362.021v.342l-1.312-.021a.975.975,0,0,1-.483.712l-.887-.15a.921.921,0,0,0,.467-.691c0-.417-.612-.592-1.154-.6a1.916,1.916,0,0,0-1.545.646,3.253,3.253,0,0,1-2.5.833c-1.071,0-2.083-.333-2.287-.9l-1.4-.021Z" transform="translate(-258.723 -216.726)"/>
    <path id="路径_3687" data-name="路径 3687" class="cls-6" d="M438.017,356.682c-5.52-.079-9.969-1.966-9.935-4.22a11.163,11.163,0,0,1-.079-1.891c.871-1.891,5.224-2.112,10.131-2.045,4.828.071,8.881,0,9.785,1.866a13.513,13.513,0,0,1,.15,2.354C448.04,355,443.537,356.762,438.017,356.682Z" transform="translate(-252.205 -210.609)"/>
    <ellipse id="椭圆_151" data-name="椭圆 151" class="cls-7" cx="4.078" cy="9.994" rx="4.078" ry="9.994" transform="matrix(0.014, -1, 1, 0.014, 175.75, 144.05)"/>
    <ellipse id="椭圆_152" data-name="椭圆 152" class="cls-6" cx="3.474" cy="8.515" rx="3.474" ry="8.515" transform="matrix(0.014, -1, 1, 0.014, 177.237, 143.467)"/>
    <path id="路径_3688" data-name="路径 3688" class="cls-7" d="M439.147,351.7l1.362.021a1.112,1.112,0,0,1,.608-.833l.9.142a1.041,1.041,0,0,0-.591.787c0,.392.546.667,1.312.675a2.049,2.049,0,0,0,1.62-.6,2.883,2.883,0,0,1,2.349-.875c1.121,0,1.97.354,2.166.862l1.362.021v.342l-1.312-.021a.975.975,0,0,1-.483.712l-.887-.15a.92.92,0,0,0,.467-.691c0-.417-.612-.592-1.154-.6a1.9,1.9,0,0,0-1.55.662,3.252,3.252,0,0,1-2.5.833c-1.071,0-2.083-.333-2.287-.9l-1.4-.021Z" transform="translate(-258.717 -211.994)"/>
    <path id="路径_3689" data-name="路径 3689" class="cls-6" d="M303.4,344.1c-6.069,1.783-11.581,1.221-12.31-1.25a13.113,13.113,0,0,1-.725-2.041c.312-2.366,5-4.087,10.414-5.674,5.311-1.558,9.723-3.016,11.347-1.271a15.81,15.81,0,0,1,.962,2.529C313.8,338.876,309.471,342.317,303.4,344.1Z" transform="translate(-171.924 -201.601)"/>
    <ellipse id="椭圆_153" data-name="椭圆 153" class="cls-7" cx="11.456" cy="4.674" rx="11.456" ry="4.674" transform="matrix(0.959, -0.282, 0.282, 0.959, 117.124, 134.722)"/>
    <ellipse id="椭圆_154" data-name="椭圆 154" class="cls-6" cx="9.76" cy="3.982" rx="9.76" ry="3.982" transform="translate(118.755 135.208) rotate(-16.26)"/>
    <path id="路径_3690" data-name="路径 3690" class="cls-7" d="M302.34,342.235l1.5-.442a1.25,1.25,0,0,1,.383-1.121l1.037-.146a1.191,1.191,0,0,0-.383,1.058c.129.417.833.546,1.666.3a2.354,2.354,0,0,0,1.566-1.208,3.316,3.316,0,0,1,2.279-1.754c1.25-.362,2.275-.279,2.662.212l1.5-.442.112.375-1.441.417a1.125,1.125,0,0,1-.292.941l-1.025.137a1.033,1.033,0,0,0,.292-.908c-.137-.467-.871-.442-1.466-.267a2.162,2.162,0,0,0-1.471,1.25,3.635,3.635,0,0,1-2.445,1.737c-1.175.346-2.37.333-2.808-.217l-1.545.454Z" transform="translate(-178.91 -204.877)"/>
    <path id="路径_3691" data-name="路径 3691" class="cls-6" d="M213.536,366.021c-6.328-.092-11.427-2.258-11.389-4.836a12.661,12.661,0,0,1-.092-2.166c1-2.17,5.99-2.424,11.614-2.345,5.536.079,10.181,0,11.218,2.137a16.209,16.209,0,0,1,.171,2.7C225.021,364.092,219.864,366.108,213.536,366.021Z" transform="translate(-120.378 -215.361)"/>
    <ellipse id="椭圆_155" data-name="椭圆 155" class="cls-7" cx="4.674" cy="11.456" rx="4.674" ry="11.456" transform="matrix(0.014, -1, 1, 0.014, 81.62, 148.339)"/>
    <ellipse id="椭圆_156" data-name="椭圆 156" class="cls-6" cx="3.982" cy="9.76" rx="3.982" ry="9.76" transform="matrix(0.014, -1, 1, 0.014, 83.325, 147.671)"/>
    <path id="路径_3692" data-name="路径 3692" class="cls-7" d="M214.86,360.313l1.562.021a1.25,1.25,0,0,1,.7-.954l1.037.167a1.191,1.191,0,0,0-.679.9c0,.446.625.758,1.508.771a2.353,2.353,0,0,0,1.854-.687,3.326,3.326,0,0,1,2.7-1c1.283,0,2.254.417,2.479.991l1.562.021v.392l-1.5-.021a1.133,1.133,0,0,1-.554.812l-1.021-.171a1.05,1.05,0,0,0,.537-.787c0-.487-.7-.683-1.325-.692a2.179,2.179,0,0,0-1.775.758,3.631,3.631,0,0,1-2.849.941c-1.225,0-2.366-.383-2.62-1.037l-1.608-.021Z" transform="translate(-127.871 -216.948)"/>
    <path id="路径_3693" data-name="路径 3693" class="cls-6" d="M316.649,317.171c-5.782,2.57-11.322,2.737-12.368.379a13.2,13.2,0,0,1-.991-1.929c0-2.387,4.424-4.711,9.581-6.994,5.061-2.245,9.244-4.27,11.081-2.754a15.214,15.214,0,0,1,1.287,2.379C326.268,310.618,322.431,314.6,316.649,317.171Z" transform="translate(-179.464 -185.424)"/>
    <ellipse id="椭圆_157" data-name="椭圆 157" class="cls-7" cx="11.456" cy="4.674" rx="11.456" ry="4.674" transform="translate(121.935 125.912) rotate(-23.94)"/>
    <ellipse id="椭圆_158" data-name="椭圆 158" class="cls-6" cx="9.76" cy="3.982" rx="9.76" ry="3.982" transform="translate(123.765 125.856) rotate(-23.94)"/>
    <path id="路径_3694" data-name="路径 3694" class="cls-7" d="M314.58,316.83l1.429-.637a1.25,1.25,0,0,1,.229-1.158l1.012-.283a1.191,1.191,0,0,0-.242,1.1c.183.417.887.417,1.7.075a2.362,2.362,0,0,0,1.391-1.4,3.332,3.332,0,0,1,2.029-2.037c1.233-.546,2.216-.579,2.666-.142l1.429-.633.158.358-1.371.608a1.129,1.129,0,0,1-.163.971l-1,.271a1.033,1.033,0,0,0,.158-.941c-.2-.446-.921-.325-1.487-.071a2.162,2.162,0,0,0-1.3,1.433,3.657,3.657,0,0,1-2.2,2.045c-1.121.5-2.308.642-2.812.154l-1.458.671Z" transform="translate(-186.051 -189.136)"/>
    <path id="路径_3695" data-name="路径 3695" class="cls-6" d="M162.676,302.026c-4.7-4.232-7.111-9.219-5.386-11.139a13.189,13.189,0,0,1,1.358-1.691c2.179-.975,6.1,2.12,10.285,5.886,4.112,3.7,7.665,6.694,7.036,8.994a15.124,15.124,0,0,1-1.666,2.145C172.6,308.137,167.391,306.259,162.676,302.026Z" transform="translate(-93.958 -175.895)"/>
    <ellipse id="椭圆_159" data-name="椭圆 159" class="cls-7" cx="4.674" cy="11.456" rx="4.674" ry="11.456" transform="translate(61.573 116.77) rotate(-48)"/>
    <ellipse id="椭圆_160" data-name="椭圆 160" class="cls-6" cx="3.982" cy="9.76" rx="3.982" ry="9.76" transform="translate(63.296 117.39) rotate(-48)"/>
    <path id="路径_3696" data-name="路径 3696" class="cls-7" d="M171.042,297.32l1.162,1.046a1.283,1.283,0,0,1,1.154-.262l.671.808a1.187,1.187,0,0,0-1.1.233c-.3.333-.029.983.625,1.575a2.37,2.37,0,0,0,1.85.7,3.329,3.329,0,0,1,2.687,1.021c1.021.9,1.433,1.791,1.216,2.379l1.162,1.046-.262.292-1.116-1a1.129,1.129,0,0,1-.954.246l-.654-.8a1.05,1.05,0,0,0,.925-.242c.329-.362-.079-.975-.542-1.387a2.158,2.158,0,0,0-1.837-.6,3.637,3.637,0,0,1-2.762-1.171c-.908-.833-1.529-1.845-1.287-2.5l-1.2-1.1Z" transform="translate(-102.154 -180.74)"/>
    <path id="路径_3697" data-name="路径 3697" class="cls-6" d="M234.539,328.77c-6.3.579-11.6-1.033-11.839-3.6a13.153,13.153,0,0,1-.321-2.145c.762-2.262,5.7-3.045,11.3-3.562,5.511-.508,10.123-1.087,11.381.937a16.817,16.817,0,0,1,.454,2.666C245.753,325.65,240.837,328.186,234.539,328.77Z" transform="translate(-132.249 -193.373)"/>
    <ellipse id="椭圆_161" data-name="椭圆 161" class="cls-7" cx="11.456" cy="4.674" rx="11.456" ry="4.674" transform="matrix(0.996, -0.092, 0.092, 0.996, 89.708, 124.991)"/>
    <ellipse id="椭圆_162" data-name="椭圆 162" class="cls-6" cx="9.76" cy="3.982" rx="9.76" ry="3.982" transform="matrix(0.996, -0.092, 0.092, 0.996, 91.46, 125.523)"/>
    <path id="路径_3698" data-name="路径 3698" class="cls-7" d="M235,324.231l1.558-.146a1.279,1.279,0,0,1,.592-1.025l1.046.058a1.2,1.2,0,0,0-.579.966c.042.446.7.691,1.583.608a2.371,2.371,0,0,0,1.77-.879,3.294,3.294,0,0,1,2.57-1.283c1.341-.121,2.287.162,2.574.721l1.558-.146.033.392-1.5.137a1.129,1.129,0,0,1-.462.866l-1.033-.062a1.05,1.05,0,0,0,.45-.833c-.046-.483-.771-.6-1.387-.546a2.175,2.175,0,0,0-1.666.946,3.69,3.69,0,0,1-2.733,1.25c-1.221.112-2.391-.129-2.716-.75l-1.6.146Z" transform="translate(-139.622 -195.433)"/>
    <path id="路径_3699" data-name="路径 3699" class="cls-6" d="M172.659,336.306c-5.115-3.724-8.027-8.436-6.511-10.518a14.205,14.205,0,0,1,1.175-1.825c2.083-1.2,6.29,1.475,10.831,4.786,4.474,3.262,8.331,5.869,7.915,8.219a17.788,17.788,0,0,1-1.416,2.3C183.152,341.342,177.774,340.014,172.659,336.306Z" transform="translate(-99.217 -196.115)"/>
    <ellipse id="椭圆_163" data-name="椭圆 163" class="cls-7" cx="4.674" cy="11.456" rx="4.674" ry="11.456" transform="translate(65.357 131.604) rotate(-53.94)"/>
    <ellipse id="椭圆_164" data-name="椭圆 164" class="cls-6" cx="3.982" cy="9.76" rx="3.982" ry="9.76" transform="translate(67.135 132.043) rotate(-53.94)"/>
    <path id="路径_3700" data-name="路径 3700" class="cls-7" d="M179.982,331.12l1.25.921a1.287,1.287,0,0,1,1.121-.383l.75.737a1.187,1.187,0,0,0-1.075.342c-.262.362.071.983.787,1.5a2.341,2.341,0,0,0,1.908.5,3.318,3.318,0,0,1,2.783.737c1.091.8,1.608,1.633,1.454,2.237l1.25.921-.229.317-1.212-.883a1.133,1.133,0,0,1-.925.346l-.733-.729a1.058,1.058,0,0,0,.9-.333c.287-.4-.183-.962-.683-1.325a2.17,2.17,0,0,0-1.887-.417,3.645,3.645,0,0,1-2.87-.875c-.991-.721-1.712-1.666-1.541-2.358l-1.3-.95Z" transform="translate(-107.37 -200.46)"/>
    <path id="路径_3701" data-name="路径 3701" class="cls-6" d="M195.75,326.166c-5.557-3.02-9.069-7.3-7.836-9.581a13.21,13.21,0,0,1,.925-1.962c1.891-1.454,6.428.637,11.372,3.333,4.866,2.641,9.019,4.72,8.94,7.1a14.843,14.843,0,0,1-1.1,2.47C206.819,329.782,201.312,329.174,195.75,326.166Z" transform="translate(-112.007 -190.557)"/>
    <ellipse id="椭圆_165" data-name="椭圆 165" class="cls-7" cx="4.674" cy="11.456" rx="4.674" ry="11.456" transform="translate(74.602 128.177) rotate(-61.5)"/>
    <ellipse id="椭圆_166" data-name="椭圆 166" class="cls-6" cx="3.982" cy="9.76" rx="3.982" ry="9.76" transform="translate(76.422 128.378) rotate(-61.5)"/>
    <path id="路径_3702" data-name="路径 3702" class="cls-7" d="M201.816,320.59l1.375.746a1.25,1.25,0,0,1,1.062-.525l.833.629a1.191,1.191,0,0,0-1.016.479c-.217.417.2.966.975,1.387a2.337,2.337,0,0,0,1.958.25,3.324,3.324,0,0,1,2.854.362c1.187.642,1.812,1.408,1.737,2.029l1.375.75-.187.342-1.321-.717a1.112,1.112,0,0,1-.866.462l-.833-.625a1.037,1.037,0,0,0,.833-.45c.233-.417-.3-.929-.833-1.225a2.179,2.179,0,0,0-1.925-.154,3.621,3.621,0,0,1-2.958-.492c-1.079-.583-1.92-1.433-1.841-2.133l-1.416-.766Z" transform="translate(-120.147 -194.317)"/>
    <circle id="椭圆_167" data-name="椭圆 167" class="cls-6" cx="10.502" cy="10.502" r="10.502" transform="translate(103.643 120.504)"/>
    <circle id="椭圆_168" data-name="椭圆 168" class="cls-7" cx="10.502" cy="10.502" r="10.502" transform="translate(102.477 120.504)"/>
    <circle id="椭圆_169" data-name="椭圆 169" class="cls-6" cx="8.948" cy="8.948" r="8.948" transform="translate(104.03 122.058)"/>
    <path id="路径_3703" data-name="路径 3703" class="cls-7" d="M272.234,329.156v-1.45a4.166,4.166,0,0,1-2.174-.625l.342-.954a3.782,3.782,0,0,0,2.045.612c1.008,0,1.691-.583,1.691-1.391s-.554-1.25-1.608-1.691c-1.445-.567-2.341-1.221-2.341-2.454a2.283,2.283,0,0,1,2.145-2.287V317.5h.879v1.375a3.782,3.782,0,0,1,1.845.5l-.354.937a3.424,3.424,0,0,0-1.787-.483c-1.1,0-1.508.654-1.508,1.221,0,.737.525,1.108,1.762,1.616,1.462.6,2.2,1.337,2.2,2.6a2.471,2.471,0,0,1-2.241,2.416v1.475Z" transform="translate(-160.077 -192.514)"/>
    <circle id="椭圆_170" data-name="椭圆 170" class="cls-6" cx="10.502" cy="10.502" r="10.502" transform="translate(79.17 121.208)"/>
    <circle id="椭圆_171" data-name="椭圆 171" class="cls-7" cx="10.502" cy="10.502" r="10.502" transform="translate(78.003 121.208)"/>
    <circle id="椭圆_172" data-name="椭圆 172" class="cls-6" cx="8.948" cy="8.948" r="8.948" transform="translate(79.557 122.762)"/>
    <path id="路径_3704" data-name="路径 3704" class="cls-7" d="M213.49,330.85v-1.437a4.074,4.074,0,0,1-2.17-.625l.337-.95a3.782,3.782,0,0,0,2.045.612c1.008,0,1.691-.583,1.691-1.391s-.554-1.25-1.6-1.691c-1.45-.567-2.345-1.221-2.345-2.458a2.274,2.274,0,0,1,2.145-2.283V319.19h.879v1.379a3.774,3.774,0,0,1,1.845.5l-.354.937a3.412,3.412,0,0,0-1.787-.483c-1.1,0-1.508.654-1.508,1.221,0,.741.529,1.108,1.762,1.62,1.462.6,2.2,1.333,2.2,2.6a2.467,2.467,0,0,1-2.241,2.412v1.479Z" transform="translate(-125.806 -193.5)"/>
    <circle id="椭圆_173" data-name="椭圆 173" class="cls-6" cx="10.502" cy="10.502" r="10.502" transform="translate(92.129 132.643)"/>
    <circle id="椭圆_174" data-name="椭圆 174" class="cls-7" cx="10.502" cy="10.502" r="10.502" transform="translate(91.108 132.08)"/>
    <circle id="椭圆_175" data-name="椭圆 175" class="cls-6" cx="8.948" cy="8.948" r="8.948" transform="translate(92.662 133.634)"/>
    <path id="路径_3705" data-name="路径 3705" class="cls-7" d="M240.432,356.414l.692-1.25a4.132,4.132,0,0,1-1.6-1.591l.758-.671a3.779,3.779,0,0,0,1.5,1.521,1.486,1.486,0,0,0,2.154-.417c.392-.721.125-1.375-.592-2.254-1-1.2-1.466-2.2-.871-3.283a2.293,2.293,0,0,1,2.983-.971l.687-1.25.771.417-.662,1.208a3.8,3.8,0,0,1,1.379,1.325l-.762.65a3.42,3.42,0,0,0-1.337-1.283,1.288,1.288,0,0,0-1.9.342c-.358.65-.075,1.225.762,2.266.991,1.229,1.283,2.233.675,3.333a2.47,2.47,0,0,1-3.128,1.033l-.712,1.291Z" transform="translate(-142.259 -209.287)"/>
  </g>
</svg>
