<svg xmlns="http://www.w3.org/2000/svg" xmlns:xlink="http://www.w3.org/1999/xlink" width="278.662" height="204.434" viewBox="0 0 278.662 204.434">
  <defs>
    <style>
      .cls-1, .cls-8 {
        fill: #6c63ff;
      }

      .cls-1 {
        opacity: 0.2;
      }

      .cls-2 {
        fill: none;
        stroke: #535461;
        stroke-miterlimit: 10;
        stroke-width: 2px;
      }

      .cls-3 {
        fill: #8ed16f;
      }

      .cls-4, .cls-5 {
        opacity: 0.3;
      }

      .cls-18, .cls-6 {
        fill: #fff;
      }

      .cls-7 {
        fill: url(#linear-gradient);
      }

      .cls-9 {
        fill: #d6d6e3;
      }

      .cls-10 {
        fill: url(#linear-gradient-2);
      }

      .cls-11 {
        fill: #aca9c9;
      }

      .cls-12 {
        fill: #618fd8;
      }

      .cls-13, .cls-15 {
        opacity: 0.1;
      }

      .cls-14 {
        fill: #f7c4a7;
      }

      .cls-16 {
        fill: #e14b5a;
      }

      .cls-17 {
        fill: #281c1c;
      }

      .cls-18 {
        opacity: 0.4;
      }

      .cls-19 {
        opacity: 0.05;
      }
    </style>
    <linearGradient id="linear-gradient" x1="0.5" y1="1" x2="0.5" gradientUnits="objectBoundingBox">
      <stop offset="0" stop-color="gray" stop-opacity="0.251"/>
      <stop offset="0.54" stop-color="gray" stop-opacity="0.122"/>
      <stop offset="1" stop-color="gray" stop-opacity="0.102"/>
    </linearGradient>
    <linearGradient id="linear-gradient-2" x1="9.926" x2="9.926" y2="0" xlink:href="#linear-gradient"/>
  </defs>
  <g id="doctor_myCenterIllustration" transform="translate(0 0.001)">
    <path id="路径_3601" data-name="路径 3601" class="cls-1" d="M184.533,266.994c-3.665,1.107-7.1,3.788-8.011,7.507-1.047,4.274,1.368,8.583,1.717,12.972,1.127,14.379-19.329,24.525-16.411,38.649,1.159,5.616,5.842,9.747,10.457,13.161,7.393,5.45,15.6,10.265,24.679,11.624,13.787,2.066,28.192-4.005,41.593-.169,10.809,3.1,19.08,12.168,29.815,15.515,8.171,2.549,16.974,1.545,25.463.512,4.578-.555,9.373-1.2,13.066-3.943,6.866-5.113,7.3-15.209,11.9-22.445,7.1-11.158,22.671-13.349,35.725-11.181s25.732,7.507,38.958,7.073a17.783,17.783,0,0,0,8.188-1.865c3-1.685,5.024-4.655,6.815-7.593A122.865,122.865,0,0,0,426.3,265.76c.077-3.7-.054-7.57-1.8-10.84-2.2-4.137-6.606-6.612-10.989-8.277-10.526-4.005-22.153-4.661-32.467-9.178-9.948-4.357-18-12-26.667-18.548a142.047,142.047,0,0,0-58.5-26.055c-4.975-.961-10.139-1.648-15.083-.538-5.7,1.279-10.606,4.829-15.02,8.652-11.744,10.168-21.157,22.714-31.98,33.857a182.077,182.077,0,0,1-24.3,20.951c-4.005,2.887-8.263,6.314-12.726,8.448C192.684,266.184,188.853,265.692,184.533,266.994Z" transform="translate(-147.655 -163.426)"/>
    <path id="路径_3602" data-name="路径 3602" class="cls-2" d="M382.624,138.88s-11.058,14.686-3.147,31.8S365.69,215.3,365.69,215.3" transform="translate(-293.395 -125.68)"/>
    <path id="路径_3603" data-name="路径 3603" class="cls-3" d="M424.369,100.444c-.878,3.779-5.081,6.031-5.081,6.031s-2.775-3.877-1.9-7.656,3.147-6.48,5.081-6.031S425.248,96.665,424.369,100.444Z" transform="translate(-330.182 -92.74)"/>
    <ellipse id="椭圆_1" data-name="椭圆 1" class="cls-3" cx="2.206" cy="0.827" rx="2.206" ry="0.827" transform="translate(89.254 8.819) rotate(-76.9)"/>
    <ellipse id="椭圆_2" data-name="椭圆 2" class="cls-4" cx="2.206" cy="0.827" rx="2.206" ry="0.827" transform="translate(89.254 8.819) rotate(-76.9)"/>
    <path id="路径_3604" data-name="路径 3604" class="cls-3" d="M416,159.664c-3.651,1.316-7.825-.99-7.825-.99s1.745-4.437,5.4-5.751,7.153-.858,7.825.99S419.656,158.348,416,159.664Z" transform="translate(-323.729 -135.169)"/>
    <ellipse id="椭圆_3" data-name="椭圆 3" class="cls-3" cx="2.206" cy="0.827" rx="2.206" ry="0.827" transform="matrix(0.94, -0.34, 0.34, 0.94, 88.615, 20.777)"/>
    <ellipse id="椭圆_4" data-name="椭圆 4" class="cls-4" cx="2.206" cy="0.827" rx="2.206" ry="0.827" transform="matrix(0.94, -0.34, 0.34, 0.94, 88.615, 20.777)"/>
    <path id="路径_3605" data-name="路径 3605" class="cls-3" d="M413.035,206.434c-3.651,1.316-7.825-.99-7.825-.99s1.745-4.437,5.4-5.751,7.153-.858,7.825.99S416.686,205.121,413.035,206.434Z" transform="translate(-321.608 -168.558)"/>
    <ellipse id="椭圆_5" data-name="椭圆 5" class="cls-3" cx="2.206" cy="0.827" rx="2.206" ry="0.827" transform="translate(87.808 34.356) rotate(-19.8)"/>
    <ellipse id="椭圆_6" data-name="椭圆 6" class="cls-4" cx="2.206" cy="0.827" rx="2.206" ry="0.827" transform="translate(87.808 34.356) rotate(-19.8)"/>
    <path id="路径_3606" data-name="路径 3606" class="cls-3" d="M427.945,261.3c-3.651,1.316-7.825-.99-7.825-.99s1.745-4.437,5.4-5.751,7.153-.858,7.825.99S431.6,260,427.945,261.3Z" transform="translate(-332.253 -207.73)"/>
    <ellipse id="椭圆_7" data-name="椭圆 7" class="cls-3" cx="2.206" cy="0.827" rx="2.206" ry="0.827" transform="translate(92.074 50.061) rotate(-19.8)"/>
    <ellipse id="椭圆_8" data-name="椭圆 8" class="cls-4" cx="2.206" cy="0.827" rx="2.206" ry="0.827" transform="translate(92.074 50.061) rotate(-19.8)"/>
    <path id="路径_3607" data-name="路径 3607" class="cls-3" d="M418.245,311.484c-3.651,1.316-7.825-.99-7.825-.99s1.745-4.437,5.4-5.751,7.153-.858,7.825.99S421.9,310.171,418.245,311.484Z" transform="translate(-325.328 -243.553)"/>
    <ellipse id="椭圆_9" data-name="椭圆 9" class="cls-3" cx="2.206" cy="0.827" rx="2.206" ry="0.827" transform="matrix(0.94, -0.34, 0.34, 0.94, 89.307, 64.178)"/>
    <ellipse id="椭圆_10" data-name="椭圆 10" class="cls-4" cx="2.206" cy="0.827" rx="2.206" ry="0.827" transform="matrix(0.94, -0.34, 0.34, 0.94, 89.307, 64.178)"/>
    <path id="路径_3608" data-name="路径 3608" class="cls-3" d="M370.575,171.387c2.7,2.792,7.459,2.575,7.459,2.575s.392-4.752-2.3-7.544-6.034-3.942-7.459-2.575S367.88,168.595,370.575,171.387Z" transform="translate(-294.781 -143.089)"/>
    <ellipse id="椭圆_11" data-name="椭圆 11" class="cls-3" cx="0.827" cy="2.206" rx="0.827" ry="2.206" transform="matrix(0.719, -0.695, 0.695, 0.719, 76.347, 24.707)"/>
    <ellipse id="椭圆_12" data-name="椭圆 12" class="cls-4" cx="0.827" cy="2.206" rx="0.827" ry="2.206" transform="matrix(0.719, -0.695, 0.695, 0.719, 76.347, 24.707)"/>
    <path id="路径_3609" data-name="路径 3609" class="cls-3" d="M365.165,326.377c2.7,2.792,7.459,2.575,7.459,2.575s.392-4.752-2.3-7.544-6.034-3.942-7.459-2.575S362.47,323.585,365.165,326.377Z" transform="translate(-290.919 -253.737)"/>
    <ellipse id="椭圆_13" data-name="椭圆 13" class="cls-3" cx="0.827" cy="2.206" rx="0.827" ry="2.206" transform="matrix(0.719, -0.695, 0.695, 0.719, 74.795, 69.054)"/>
    <ellipse id="椭圆_14" data-name="椭圆 14" class="cls-4" cx="0.827" cy="2.206" rx="0.827" ry="2.206" transform="matrix(0.719, -0.695, 0.695, 0.719, 74.795, 69.054)"/>
    <path id="路径_3610" data-name="路径 3610" class="cls-3" d="M372.8,227.224c3.473,1.734,7.888-.069,7.888-.069s-1.216-4.609-4.686-6.343-7-1.717-7.888.069S369.329,225.49,372.8,227.224Z" transform="translate(-294.982 -183.253)"/>
    <ellipse id="椭圆_15" data-name="椭圆 15" class="cls-3" cx="0.827" cy="2.206" rx="0.827" ry="2.206" transform="translate(77.133 40.392) rotate(-63.48)"/>
    <ellipse id="椭圆_16" data-name="椭圆 16" class="cls-4" cx="0.827" cy="2.206" rx="0.827" ry="2.206" transform="translate(77.133 40.392) rotate(-63.48)"/>
    <path id="路径_3611" data-name="路径 3611" class="cls-3" d="M377.894,281.794c3.473,1.734,7.888-.069,7.888-.069s-1.216-4.609-4.686-6.343-7-1.717-7.888.069S374.435,280.077,377.894,281.794Z" transform="translate(-298.618 -222.211)"/>
    <ellipse id="椭圆_17" data-name="椭圆 17" class="cls-3" cx="0.827" cy="2.206" rx="0.827" ry="2.206" transform="translate(78.591 56.007) rotate(-63.48)"/>
    <ellipse id="椭圆_18" data-name="椭圆 18" class="cls-4" cx="0.827" cy="2.206" rx="0.827" ry="2.206" transform="translate(78.591 56.007) rotate(-63.48)"/>
    <path id="路径_3612" data-name="路径 3612" class="cls-3" d="M185.737,249.21s20.2,20.2,8.795,50.165,19.544,79.8,19.544,79.8-.332-.049-.947-.157c-41.485-7.321-62.084-54.763-39.024-90C182.667,275.915,189.719,260.545,185.737,249.21Z" transform="translate(-149.765 -204.444)"/>
    <path id="路径_3613" data-name="路径 3613" class="cls-3" d="M113,534.09s23.045-3.671,25.145,16.983,44.314,23.518,44.314,23.518-.286.189-.792.526c-34.856,22.888-68.175,14.574-63.154-15.807C120.384,548.012,120.23,536.668,113,534.09Z" transform="translate(-113 -407.64)"/>
    <g id="组_2578" data-name="组 2578" class="cls-5" transform="translate(0 126.198)">
      <path id="路径_3614" data-name="路径 3614" class="cls-6" d="M113,534.09s23.045-3.671,25.145,16.983,44.314,23.518,44.314,23.518-.286.189-.792.526c-34.856,22.888-68.175,14.574-63.154-15.807C120.384,548.012,120.23,536.668,113,534.09Z" transform="translate(-113 -533.838)"/>
    </g>
    <ellipse id="椭圆_19" data-name="椭圆 19" class="cls-3" cx="6.337" cy="16.534" rx="6.337" ry="16.534" transform="translate(23.801 93.128)"/>
    <ellipse id="椭圆_20" data-name="椭圆 20" class="cls-4" cx="6.337" cy="16.534" rx="6.337" ry="16.534" transform="translate(23.801 93.128)"/>
    <ellipse id="椭圆_21" data-name="椭圆 21" class="cls-3" cx="4.271" cy="9.507" rx="4.271" ry="9.507" transform="translate(13.094 159.285) rotate(-45)"/>
    <ellipse id="椭圆_22" data-name="椭圆 22" class="cls-4" cx="4.271" cy="9.507" rx="4.271" ry="9.507" transform="translate(13.094 159.285) rotate(-45)"/>
    <path id="路径_3615" data-name="路径 3615" class="cls-7" d="M445.509,358.2H295.495a6.835,6.835,0,0,0-6.835,6.835v87.927a6.835,6.835,0,0,0,6.835,6.835H445.509a6.835,6.835,0,0,0,6.835-6.835V365.035A6.835,6.835,0,0,0,445.509,358.2Z" transform="translate(-238.404 -282.252)"/>
    <rect id="矩形_707" data-name="矩形 707" class="cls-8" width="159.83" height="99.205" rx="24.81" transform="translate(52.182 77.144)"/>
    <rect id="矩形_708" data-name="矩形 708" class="cls-8" width="159.83" height="18.187" transform="translate(52.182 94.504)"/>
    <rect id="矩形_709" data-name="矩形 709" class="cls-4" width="159.83" height="18.187" transform="translate(52.182 94.504)"/>
    <rect id="矩形_710" data-name="矩形 710" class="cls-9" width="129.518" height="8.818" transform="translate(67.34 126.196)"/>
    <circle id="椭圆_23" data-name="椭圆 23" class="cls-8" cx="12.677" cy="12.677" r="12.677" transform="translate(65.408 144.383)"/>
    <circle id="椭圆_24" data-name="椭圆 24" class="cls-4" cx="12.677" cy="12.677" r="12.677" transform="translate(65.408 144.383)"/>
    <path id="路径_3616" data-name="路径 3616" class="cls-10" d="M822.164,225.964a2.775,2.775,0,0,0,1.222,1.545c2.629,1.737,8.346,1.368,9.032,1.368.146,0,.338.26.549.7a48.275,48.275,0,0,1,2.681,9.561c.14,1.662,1.685,9.441,4.215,12.34.077.089.154.172.229.249,2.481,2.492,5.39-.249,5.39-.249l.418-1.451c-.117.572-.249,1.239-.38,1.986-.066.375-.132.772-.195,1.182a45.275,45.275,0,0,0-.592,6.972,25.289,25.289,0,0,0,.109,2.541c.023.235.049.466.08.692a24.31,24.31,0,0,1,.189,3.1,84.3,84.3,0,0,1-1.594,13.816l.06-.02c-.037.192-.06.286-.06.286l.091-.029q-.065.426-.126.873c-.532,3.862-.838,8.669-.984,11.444a22.938,22.938,0,0,0,.195,4.383l2.793,19.658v9.155a16.168,16.168,0,0,0,.5,4.114c.91,3.459.16,15.532-.26,21.26-.117,1.562-.209,2.655-.235,2.97v.094l.08-.031v.1a1.616,1.616,0,0,1,.372-.109c-1.107,1.717-3.113,4.555-4.655,5.033a4.883,4.883,0,0,0-2.326,1.542l-.04.054-.057.08a1.717,1.717,0,0,0-.335.875.982.982,0,0,1-.051-.169c-.117.638.266,1.222,1.47,1.5a9.9,9.9,0,0,0,2.131.172c4.177,0,11.59-1.285,12.408-2.666v-4.766l.135.043v.043l.512.169,1.4-4.715c1.685-1.247.286-23.572,0-28.7-.258-4.675,2.635-23.271,3.147-26.547l-.069-.083.077-.478a2.037,2.037,0,0,1,.286.252,3.745,3.745,0,0,1,.438.646,8.614,8.614,0,0,1,.621,1.282c2.827,7.05,4.1,27.208,4.1,29.016v18.957a19.745,19.745,0,0,0,.772,5.53,23.724,23.724,0,0,1,.6,2.878c.06.381.111.758.16,1.119s.1.772.135,1.11a2.306,2.306,0,0,0,.028.255.5.5,0,0,1,0,.117c.077.747.117,1.236.117,1.236a.293.293,0,0,1,.057-.112l.014.18a.385.385,0,0,1,.112-.177,2.693,2.693,0,0,1,.378-.309v2.409l-.069-.051v.415c2.913,2.2,7.653,2.861,11.292,2.835a14.444,14.444,0,0,0,4.935-.618c.95-.466.429-1.553-.435-2.386a3.263,3.263,0,0,0-2.094-1.081c-.921.1-4.071-3.468-5.722-5.422l.186-.083.263-.115V322.128s.424-12.48,1.685-24.822a43.911,43.911,0,0,0-2.16-18.413l-.04-.117.383.06c.406.063.624.1.624.1a2.377,2.377,0,0,0-.026-.286h.026s-.492-5.353-.5-12.076c0-7.622.644-16.914,3.307-22.173a15.64,15.64,0,0,0,2-7.336,7.673,7.673,0,0,0-1.37-4.692,3.719,3.719,0,0,0-1.577-1.247l-.054-.031h-.029a3.921,3.921,0,0,0-1.448-.286h-5.753a3.843,3.843,0,0,1-1.9-.5l-2.251-1.276a11.417,11.417,0,0,1-.7-5.576c0-.152.028-.3.043-.452l.163-.172c.126-.134.243-.286.358-.415a3.187,3.187,0,0,1-.026.338c-.029.18-.077.286-.154.309,1.23-.16,2.6-.4,3.359-1.353.032-.037.06-.077.089-.117a6.122,6.122,0,0,0,.552-1.144,3.321,3.321,0,0,1,.421-.767c.189-.246.435-.446.638-.681l.034-.04a4.94,4.94,0,0,0,.773-3.21c.014-2.724-.066-5.722-1.888-7.765a8.6,8.6,0,0,0-6.22-2.418c-2.292-.074-4.578.338-6.866.349-1.556,0-3.433-.026-4.292,1.262-.42.632-.472,1.459-.93,2.066-.263.349-.666.65-.689,1.084a1.113,1.113,0,0,0,.149.572v.02a4.047,4.047,0,0,0,2.964,1.988,7.431,7.431,0,0,0-.572.79,7.518,7.518,0,0,0-1.144,4.005,4.609,4.609,0,0,0,.017.492,7.56,7.56,0,0,0,2.4,5.038c-.023.16-.046.32-.072.478l.052.046q.243.22.506.418l.063.049v.286a4.733,4.733,0,0,1-.017.5c-.017.163,0,.263-.017.395l-.037-.031-2.8-2.335-4.495-4.16s-11.238-8.18-11.8-4.292a2.8,2.8,0,0,0,.535,1.94c2.063,3.147,9.155,5.825,9.155,5.825a59.949,59.949,0,0,1,7.058,9.293c-.1.054-.2.106-.306.154-2.518,1.17-6.191.675-6.191.675-4.243.661-4.626,5.31-4.6,7.19v.389l-5.63-13.221-.017-.04a2.784,2.784,0,0,0-2.106-1.654C830.787,224.5,821.377,223.186,822.164,225.964Zm23.572,128.459a2.466,2.466,0,0,1,.249-.046l-.026.04Z" transform="translate(-619.238 -173.282)"/>
    <path id="路径_3617" data-name="路径 3617" class="cls-11" d="M986.266,716.43s5.333,6.7,6.566,6.566,4.1,2.6,2.464,3.433-11.078,1.367-15.736-2.189v-5.359Z" transform="translate(-731.636 -537.992)"/>
    <path id="路径_3618" data-name="路径 3618" class="cls-11" d="M888.812,717.86s-3.147,5.608-5.333,6.294-4.1,3.147-1.23,3.831,13.132-.821,14.088-2.463v-7.253Z" transform="translate(-661.13 -539.013)"/>
    <path id="路径_3619" data-name="路径 3619" class="cls-12" d="M894.437,471.589l2.718,19.392V500a16.165,16.165,0,0,0,.492,4.057c.887,3.413.157,15.321-.255,20.971-.134,1.843-.237,3.021-.237,3.021,1.777-.821,9.3,1.777,9.3,1.777l.761-2.589.607-2.06c1.642-1.23.286-23.251,0-28.324-.186-3.465,1.359-14.7,2.349-21.429.286-1.9.518-3.433.658-4.354.089-.572.137-.89.137-.89a3,3,0,0,1,.738.89,8.576,8.576,0,0,1,.6,1.265c2.752,6.955,4.005,26.839,4.005,28.61v18.7a19.731,19.731,0,0,0,.752,5.456,28.617,28.617,0,0,1,.741,3.94c.195,1.485.286,2.681.286,2.681.137-.821,8.617-4.515,8.617-4.515V496.016s.409-12.3,1.642-24.484a43.679,43.679,0,0,0-1.573-16.474c-.34-1.164-.681-2.151-.976-2.932-.5-1.331-.858-2.066-.858-2.066H897.012c-.469.089-.858,1.033-1.21,2.466-.229.961-.429,2.14-.6,3.433-.518,3.808-.815,8.549-.958,11.289A22.856,22.856,0,0,0,894.437,471.589Z" transform="translate(-670.706 -347.831)"/>
    <g id="组_2579" data-name="组 2579" class="cls-13" transform="translate(226.518 102.315)">
      <path id="路径_3620" data-name="路径 3620" d="M985.844,527.5V496.319s.409-12.3,1.642-24.485a42.653,42.653,0,0,0-3.433-21.475h.546a42.9,42.9,0,0,1,3.433,21.475c-1.216,12.174-1.642,24.485-1.642,24.485V527.5s-8.48,3.694-8.617,4.515a4.083,4.083,0,0,0-.043-.5A79.807,79.807,0,0,1,985.844,527.5Z" transform="translate(-956.847 -450.36)"/>
      <path id="路径_3621" data-name="路径 3621" d="M905.493,722.322a2.123,2.123,0,0,0-.753.154v-.137A4.867,4.867,0,0,1,905.493,722.322Z" transform="translate(-904.74 -644.508)"/>
      <path id="路径_3622" data-name="路径 3622" d="M936.836,575.614c1.642-1.23.286-23.251,0-28.324s3.147-26.67,3.147-26.67a2.376,2.376,0,0,1,.472.486c-.5,3.227-3.319,21.575-3.07,26.184.286,5.061,1.642,27.082,0,28.324l-1.368,4.649-.5-.166Z" transform="translate(-926.714 -500.519)"/>
    </g>
    <path id="路径_3623" data-name="路径 3623" class="cls-14" d="M850.576,290.361l-2.861,10.122s-3.01,2.861-5.47,0-3.977-10.531-4.126-12.173-2.326-10.122-3.147-10.122-9.026.546-9.985-2.861c-.767-2.741,8.394-1.431,12.062-.815a2.718,2.718,0,0,1,2.052,1.631l5.625,13.433S847.7,286.12,850.576,290.361Z" transform="translate(-621.254 -221.894)"/>
    <path id="路径_3624" data-name="路径 3624" class="cls-14" d="M941.186,249.82s-3.556,9.985.958,13.541S926,267.876,926,267.876l2.8-2.667s1.983-7.865.615-14.431Z" transform="translate(-693.4 -204.88)"/>
    <path id="路径_3625" data-name="路径 3625" class="cls-15" d="M913.684,292.545s3.625-.89,3.625-1.845l3.213,1.845h8.071s5.882,3.282.958,13.132-2.735,34.046-2.735,34.046-17.507-3.147-32.006,1.642c0,0,2.189-10.806,1.368-16.96s1.368-14.771,1.368-14.771l1.23-5.2s-.069-4.864-5.13-2.395c0,0-.752-7.044,4.446-7.865,0,0,6.008.821,7.8-2.189C905.888,292,909.856,294.325,913.684,292.545Z" transform="translate(-670.275 -234.064)"/>
    <path id="路径_3626" data-name="路径 3626" class="cls-16" d="M913.684,291.6s3.625-.89,3.625-1.845l2.354,1.353a3.72,3.72,0,0,0,1.848.492h5.645a3.719,3.719,0,0,1,3.024,1.539c1.3,1.822,2.458,5.416-.629,11.593-4.924,9.848-2.735,34.046-2.735,34.046s-17.507-3.147-32.006,1.642c0,0,2.189-10.806,1.368-16.96s1.368-14.751,1.368-14.751l1.23-5.2s-.069-4.864-5.13-2.395c0,0-.733-6.849,4.231-7.828a1.4,1.4,0,0,1,.421-.029c1.061.112,6.008.469,7.593-2.212C905.887,291.046,909.856,293.372,913.684,291.6Z" transform="translate(-670.275 -233.386)"/>
    <path id="路径_3627" data-name="路径 3627" class="cls-15" d="M957.114,312.873s-4.377,2.735-11.49,0c0,0-7.8-2.861-10.26-8.48s12.446.958,12.446.958,3.147,0,4.1-.684S959.574,309.864,957.114,312.873Z" transform="translate(-699.889 -242.218)"/>
    <path id="路径_3628" data-name="路径 3628" class="cls-14" d="M913.713,265.57s-4.377,2.735-11.49,0c0,0-7.8-2.861-10.26-8.48s-8.205-11.773-8.205-11.773-9.985-3.831-9.441-7.659,11.49,4.24,11.49,4.24l4.378,4.1,14.225,12.036s3.147,0,4.1-.684S916.173,262.561,913.713,265.57Z" transform="translate(-656.488 -195.462)"/>
    <path id="路径_3629" data-name="路径 3629" class="cls-15" d="M937.49,252.208l11.762-.958a26.989,26.989,0,0,0-1.227,5.57,7.516,7.516,0,0,1-10.529.286A13.364,13.364,0,0,0,937.49,252.208Z" transform="translate(-701.603 -205.901)"/>
    <circle id="椭圆_25" data-name="椭圆 25" class="cls-14" cx="7.522" cy="7.522" r="7.522" transform="translate(233.633 37.762)"/>
    <path id="路径_3630" data-name="路径 3630" class="cls-15" d="M937.84,223.462c-.44-.727.455-1.674.16-2.469-.272-.732-1.353-.858-1.717-1.542-.286-.552,0-1.23-.115-1.84a1.89,1.89,0,0,0-1.814-1.316,6.47,6.47,0,0,0-2.343.518,9,9,0,0,1-3.86.6,4.047,4.047,0,0,1-3.187-2.023,1.144,1.144,0,0,1-.146-.555c.023-.429.418-.724.672-1.067.446-.6.5-1.413.9-2.037.83-1.27,2.652-1.239,4.168-1.245,2.232,0,4.452-.418,6.683-.343a8.324,8.324,0,0,1,6.057,2.383c1.774,2.017,1.854,4.97,1.84,7.659a4.875,4.875,0,0,1-.752,3.167c-.206.249-.458.455-.655.709-.429.572-.544,1.3-.947,1.885-.715,1.033-2.111,1.285-3.356,1.451.366-.049.063-2.5,0-2.727C939.194,223.539,938.933,223.562,937.84,223.462Z" transform="translate(-692.557 -176.544)"/>
    <path id="路径_3631" data-name="路径 3631" class="cls-17" d="M937.84,222.512c-.44-.727.455-1.674.16-2.469-.272-.732-1.353-.858-1.717-1.542-.286-.552,0-1.23-.115-1.84a1.89,1.89,0,0,0-1.814-1.316,6.47,6.47,0,0,0-2.343.518,9,9,0,0,1-3.86.6,4.047,4.047,0,0,1-3.187-2.023,1.144,1.144,0,0,1-.146-.555c.023-.429.418-.724.672-1.067.446-.6.5-1.413.9-2.037.83-1.27,2.652-1.239,4.168-1.245,2.232,0,4.452-.418,6.683-.343a8.324,8.324,0,0,1,6.057,2.383c1.774,2.017,1.854,4.97,1.84,7.659a4.875,4.875,0,0,1-.752,3.167c-.206.249-.458.455-.655.71-.429.572-.544,1.3-.947,1.885-.715,1.033-2.111,1.285-3.356,1.451.366-.049.063-2.5,0-2.727C939.194,222.575,938.933,222.609,937.84,222.512Z" transform="translate(-692.557 -175.866)"/>
    <path id="路径_3632" data-name="路径 3632" class="cls-15" d="M993.944,316.026s-3.693-9.576-6.566-9.848,5.47,0,5.47,0l2.735,4.924Z" transform="translate(-736.788 -245.028)"/>
    <path id="路径_3633" data-name="路径 3633" class="cls-16" d="M994.9,316.026s-3.693-9.576-6.566-9.848,5.47,0,5.47,0l2.735,4.924Z" transform="translate(-737.474 -245.028)"/>
    <path id="路径_3634" data-name="路径 3634" class="cls-12" d="M976.65,716.05c.194,1.485.286,2.681.286,2.681.137-.821,8.618-4.515,8.618-4.515v-2.223a3.769,3.769,0,0,0-.647.032,12.2,12.2,0,0,0-4.577,1.871A41.748,41.748,0,0,1,976.65,716.05Z" transform="translate(-729.559 -534.823)"/>
    <path id="路径_3635" data-name="路径 3635" class="cls-4" d="M976.65,716.05c.194,1.485.286,2.681.286,2.681.137-.821,8.618-4.515,8.618-4.515v-2.223a3.769,3.769,0,0,0-.647.032,12.2,12.2,0,0,0-4.577,1.871A41.748,41.748,0,0,1,976.65,716.05Z" transform="translate(-729.559 -534.823)"/>
    <path id="路径_3636" data-name="路径 3636" class="cls-12" d="M904.5,714.654c1.777-.821,9.3,1.777,9.3,1.777l.761-2.589c-1.313-.266-2.618-.6-3.9-.993a12.942,12.942,0,0,1-1.751-.647,11.7,11.7,0,0,0-1.167-.544,6.054,6.054,0,0,0-3.01-.026C904.6,713.475,904.5,714.654,904.5,714.654Z" transform="translate(-678.051 -534.439)"/>
    <path id="路径_3637" data-name="路径 3637" class="cls-4" d="M904.5,714.654c1.777-.821,9.3,1.777,9.3,1.777l.761-2.589c-1.313-.266-2.618-.6-3.9-.993a12.942,12.942,0,0,1-1.751-.647,11.7,11.7,0,0,0-1.167-.544,6.054,6.054,0,0,0-3.01-.026C904.6,713.475,904.5,714.654,904.5,714.654Z" transform="translate(-678.051 -534.439)"/>
    <path id="路径_3638" data-name="路径 3638" class="cls-18" d="M995.036,744.429a.82.82,0,0,0,.469-.544.8.8,0,0,1-.469.953c-1.642.821-11.078,1.368-15.736-2.189v-.409C983.958,745.8,993.393,745.25,995.036,744.429Z" transform="translate(-731.451 -556.418)"/>
    <path id="路径_3639" data-name="路径 3639" class="cls-18" d="M882,745.653c2.861.684,13.132-.821,14.087-2.463v.409c-.958,1.642-11.215,3.147-14.087,2.463-1.173-.286-1.548-.858-1.431-1.485C880.66,745.041,881.09,745.425,882,745.653Z" transform="translate(-660.952 -557.096)"/>
    <path id="路径_3640" data-name="路径 3640" class="cls-15" d="M914.82,402.467s-3.01-.959-3.831,0-7.839,3.2-7.839,3.2" transform="translate(-677.087 -313.55)"/>
    <rect id="矩形_711" data-name="矩形 711" class="cls-3" width="14.634" height="0.309" transform="translate(218.312 51.335) rotate(180)"/>
    <rect id="矩形_712" data-name="矩形 712" class="cls-3" width="14.634" height="0.309" transform="translate(218.312 51.644) rotate(180)"/>
    <rect id="矩形_713" data-name="矩形 713" class="cls-15" width="14.634" height="0.309" transform="translate(218.312 51.644) rotate(180)"/>
    <rect id="矩形_714" data-name="矩形 714" class="cls-3" width="14.634" height="0.309" transform="translate(218.312 51.953) rotate(180)"/>
    <rect id="矩形_715" data-name="矩形 715" class="cls-3" width="14.634" height="0.309" transform="translate(218.312 52.259) rotate(180)"/>
    <rect id="矩形_716" data-name="矩形 716" class="cls-15" width="14.634" height="0.309" transform="translate(218.312 52.259) rotate(180)"/>
    <rect id="矩形_717" data-name="矩形 717" class="cls-3" width="14.634" height="0.309" transform="translate(218.312 52.568) rotate(180)"/>
    <rect id="矩形_718" data-name="矩形 718" class="cls-3" width="14.634" height="0.309" transform="translate(218.312 52.874) rotate(180)"/>
    <rect id="矩形_719" data-name="矩形 719" class="cls-15" width="14.634" height="0.309" transform="translate(218.312 52.874) rotate(180)"/>
    <rect id="矩形_720" data-name="矩形 720" class="cls-3" width="14.634" height="0.309" transform="translate(218.312 53.183) rotate(180)"/>
    <rect id="矩形_721" data-name="矩形 721" class="cls-3" width="14.634" height="0.309" transform="translate(218.312 53.489) rotate(180)"/>
    <rect id="矩形_722" data-name="矩形 722" class="cls-15" width="14.634" height="0.309" transform="translate(218.312 53.489) rotate(180)"/>
    <rect id="矩形_723" data-name="矩形 723" class="cls-3" width="14.634" height="0.309" transform="translate(218.312 48.874) rotate(180)"/>
    <rect id="矩形_724" data-name="矩形 724" class="cls-3" width="14.634" height="0.309" transform="matrix(-0.769, -0.639, 0.639, -0.769, 225.281, 50.916)"/>
    <rect id="矩形_725" data-name="矩形 725" class="cls-3" width="14.634" height="0.309" transform="matrix(-0.769, -0.639, 0.639, -0.769, 215.023, 45.993)"/>
    <rect id="矩形_726" data-name="矩形 726" class="cls-3" width="14.634" height="0.309" transform="translate(218.312 49.18) rotate(180)"/>
    <rect id="矩形_727" data-name="矩形 727" class="cls-15" width="14.634" height="0.309" transform="translate(218.312 49.18) rotate(180)"/>
    <rect id="矩形_728" data-name="矩形 728" class="cls-3" width="14.634" height="0.309" transform="translate(218.312 49.492) rotate(180)"/>
    <rect id="矩形_729" data-name="矩形 729" class="cls-3" width="14.634" height="0.309" transform="translate(218.312 49.798) rotate(180)"/>
    <rect id="矩形_730" data-name="矩形 730" class="cls-15" width="14.634" height="0.309" transform="translate(218.312 49.798) rotate(180)"/>
    <rect id="矩形_731" data-name="矩形 731" class="cls-3" width="14.634" height="0.309" transform="translate(218.312 50.104) rotate(180)"/>
    <rect id="矩形_732" data-name="矩形 732" class="cls-3" width="14.634" height="0.309" transform="translate(218.312 50.413) rotate(180)"/>
    <rect id="矩形_733" data-name="矩形 733" class="cls-15" width="14.634" height="0.309" transform="translate(218.312 50.413) rotate(180)"/>
    <rect id="矩形_734" data-name="矩形 734" class="cls-3" width="14.634" height="0.309" transform="translate(218.312 50.72) rotate(180)"/>
    <rect id="矩形_735" data-name="矩形 735" class="cls-3" width="14.634" height="0.309" transform="translate(218.312 51.029) rotate(180)"/>
    <rect id="矩形_736" data-name="矩形 736" class="cls-15" width="14.634" height="0.309" transform="translate(218.312 51.029) rotate(180)"/>
    <rect id="矩形_737" data-name="矩形 737" class="cls-3" width="5.333" height="10.394" transform="translate(207.067 63.999) rotate(-169.48)"/>
    <ellipse id="椭圆_26" data-name="椭圆 26" class="cls-3" cx="2.189" cy="1.093" rx="2.189" ry="1.093" transform="translate(203.993 60.388) rotate(-79.48)"/>
    <ellipse id="椭圆_27" data-name="椭圆 27" class="cls-15" cx="2.189" cy="1.093" rx="2.189" ry="1.093" transform="translate(203.993 60.388) rotate(-79.48)"/>
    <rect id="矩形_738" data-name="矩形 738" class="cls-3" width="5.333" height="10.394" transform="translate(207.964 85.569) rotate(-169.48)"/>
    <ellipse id="椭圆_28" data-name="椭圆 28" class="cls-3" cx="2.189" cy="1.093" rx="2.189" ry="1.093" transform="translate(204.887 81.956) rotate(-79.48)"/>
    <ellipse id="椭圆_29" data-name="椭圆 29" class="cls-15" cx="2.189" cy="1.093" rx="2.189" ry="1.093" transform="translate(204.887 81.956) rotate(-79.48)"/>
    <rect id="矩形_739" data-name="矩形 739" class="cls-3" width="5.333" height="10.394" transform="matrix(0.476, -0.879, 0.879, 0.476, 181.217, 36.267)"/>
    <ellipse id="椭圆_30" data-name="椭圆 30" class="cls-3" cx="1.096" cy="2.194" rx="1.096" ry="2.194" transform="translate(185.497 36.508) rotate(-61.39)"/>
    <ellipse id="椭圆_31" data-name="椭圆 31" class="cls-15" cx="1.096" cy="2.194" rx="1.096" ry="2.194" transform="translate(185.497 36.508) rotate(-61.39)"/>
    <rect id="矩形_740" data-name="矩形 740" class="cls-3" width="5.333" height="10.394" transform="matrix(0.476, -0.879, 0.879, 0.476, 161.145, 128.828)"/>
    <ellipse id="椭圆_32" data-name="椭圆 32" class="cls-3" cx="1.093" cy="2.189" rx="1.093" ry="2.189" transform="matrix(0.476, -0.879, 0.879, 0.476, 164.51, 128.938)"/>
    <ellipse id="椭圆_33" data-name="椭圆 33" class="cls-15" cx="1.093" cy="2.189" rx="1.093" ry="2.189" transform="matrix(0.476, -0.879, 0.879, 0.476, 164.51, 128.938)"/>
    <rect id="矩形_741" data-name="矩形 741" class="cls-3" width="5.333" height="10.394" transform="matrix(0.476, -0.879, 0.879, 0.476, 148.864, 52.444)"/>
    <ellipse id="椭圆_34" data-name="椭圆 34" class="cls-3" cx="1.093" cy="2.189" rx="1.093" ry="2.189" transform="matrix(0.476, -0.879, 0.879, 0.476, 152.227, 52.55)"/>
    <ellipse id="椭圆_35" data-name="椭圆 35" class="cls-15" cx="1.093" cy="2.189" rx="1.093" ry="2.189" transform="matrix(0.476, -0.879, 0.879, 0.476, 152.227, 52.55)"/>
    <rect id="矩形_742" data-name="矩形 742" class="cls-3" width="5.333" height="10.394" transform="matrix(0.476, -0.879, 0.879, 0.476, 164.256, 36.266)"/>
    <ellipse id="椭圆_36" data-name="椭圆 36" class="cls-3" cx="1.093" cy="2.189" rx="1.093" ry="2.189" transform="matrix(0.476, -0.879, 0.879, 0.476, 167.619, 36.372)"/>
    <ellipse id="椭圆_37" data-name="椭圆 37" class="cls-15" cx="1.093" cy="2.189" rx="1.093" ry="2.189" transform="matrix(0.476, -0.879, 0.879, 0.476, 167.619, 36.372)"/>
    <rect id="矩形_743" data-name="矩形 743" class="cls-3" width="5.333" height="10.394" transform="matrix(0.994, -0.109, 0.109, 0.994, 176.862, 51.245)"/>
    <ellipse id="椭圆_38" data-name="椭圆 38" class="cls-3" cx="1.093" cy="2.189" rx="1.093" ry="2.189" transform="matrix(0.994, -0.109, 0.109, 0.994, 178.683, 54.073)"/>
    <ellipse id="椭圆_39" data-name="椭圆 39" class="cls-15" cx="1.093" cy="2.189" rx="1.093" ry="2.189" transform="matrix(0.994, -0.109, 0.109, 0.994, 178.683, 54.073)"/>
    <rect id="矩形_744" data-name="矩形 744" class="cls-3" width="5.333" height="10.394" transform="matrix(0.994, -0.109, 0.109, 0.994, 213.208, 107.824)"/>
    <ellipse id="椭圆_40" data-name="椭圆 40" class="cls-3" cx="1.093" cy="2.189" rx="1.093" ry="2.189" transform="matrix(0.994, -0.109, 0.109, 0.994, 215.032, 110.652)"/>
    <ellipse id="椭圆_41" data-name="椭圆 41" class="cls-15" cx="1.093" cy="2.189" rx="1.093" ry="2.189" transform="matrix(0.994, -0.109, 0.109, 0.994, 215.032, 110.652)"/>
    <rect id="矩形_745" data-name="矩形 745" class="cls-3" width="5.333" height="10.394" transform="matrix(0.476, -0.879, 0.879, 0.476, 158.865, 77.304)"/>
    <ellipse id="椭圆_42" data-name="椭圆 42" class="cls-3" cx="1.093" cy="2.189" rx="1.093" ry="2.189" transform="matrix(0.476, -0.879, 0.879, 0.476, 162.226, 77.414)"/>
    <ellipse id="椭圆_43" data-name="椭圆 43" class="cls-15" cx="1.093" cy="2.189" rx="1.093" ry="2.189" transform="matrix(0.476, -0.879, 0.879, 0.476, 162.226, 77.414)"/>
    <rect id="矩形_746" data-name="矩形 746" class="cls-3" width="5.333" height="10.394" transform="matrix(0.476, -0.879, 0.879, 0.476, 135.797, 70.715)"/>
    <ellipse id="椭圆_44" data-name="椭圆 44" class="cls-3" cx="1.096" cy="2.194" rx="1.096" ry="2.194" transform="translate(139.913 71.119) rotate(-61.39)"/>
    <ellipse id="椭圆_45" data-name="椭圆 45" class="cls-15" cx="1.096" cy="2.194" rx="1.096" ry="2.194" transform="translate(139.913 71.119) rotate(-61.39)"/>
    <rect id="矩形_747" data-name="矩形 747" class="cls-3" width="5.333" height="10.394" transform="matrix(0.476, -0.879, 0.879, 0.476, 128.409, 181.638)"/>
    <ellipse id="椭圆_46" data-name="椭圆 46" class="cls-3" cx="1.093" cy="2.189" rx="1.093" ry="2.189" transform="matrix(0.476, -0.879, 0.879, 0.476, 131.771, 181.746)"/>
    <ellipse id="椭圆_47" data-name="椭圆 47" class="cls-15" cx="1.093" cy="2.189" rx="1.093" ry="2.189" transform="matrix(0.476, -0.879, 0.879, 0.476, 131.771, 181.746)"/>
    <rect id="矩形_748" data-name="矩形 748" class="cls-3" width="5.333" height="10.394" transform="translate(123.324 184) rotate(-79.49)"/>
    <rect id="矩形_749" data-name="矩形 749" class="cls-19" width="5.333" height="10.394" transform="translate(123.324 184) rotate(-79.49)"/>
    <ellipse id="椭圆_48" data-name="椭圆 48" class="cls-3" cx="1.093" cy="2.189" rx="1.093" ry="2.189" transform="translate(126.558 183.068) rotate(-79.49)"/>
    <ellipse id="椭圆_49" data-name="椭圆 49" class="cls-15" cx="1.093" cy="2.189" rx="1.093" ry="2.189" transform="translate(126.558 183.068) rotate(-79.49)"/>
    <rect id="矩形_750" data-name="矩形 750" class="cls-3" width="5.333" height="10.394" transform="translate(124.281 187.145) rotate(-79.49)"/>
    <ellipse id="椭圆_50" data-name="椭圆 50" class="cls-3" cx="1.093" cy="2.189" rx="1.093" ry="2.189" transform="translate(127.513 186.213) rotate(-79.49)"/>
    <ellipse id="椭圆_51" data-name="椭圆 51" class="cls-15" cx="1.093" cy="2.189" rx="1.093" ry="2.189" transform="translate(127.513 186.213) rotate(-79.49)"/>
    <rect id="矩形_751" data-name="矩形 751" class="cls-3" width="5.333" height="10.394" transform="matrix(0.476, -0.879, 0.879, 0.476, 139.192, 195.119)"/>
    <ellipse id="椭圆_52" data-name="椭圆 52" class="cls-3" cx="1.093" cy="2.189" rx="1.093" ry="2.189" transform="matrix(0.476, -0.879, 0.879, 0.476, 142.557, 195.226)"/>
    <ellipse id="椭圆_53" data-name="椭圆 53" class="cls-15" cx="1.093" cy="2.189" rx="1.093" ry="2.189" transform="matrix(0.476, -0.879, 0.879, 0.476, 142.557, 195.226)"/>
    <rect id="矩形_752" data-name="矩形 752" class="cls-3" width="5.333" height="10.394" transform="translate(134.109 197.477) rotate(-79.49)"/>
    <rect id="矩形_753" data-name="矩形 753" class="cls-19" width="5.333" height="10.394" transform="translate(134.109 197.477) rotate(-79.49)"/>
    <ellipse id="椭圆_54" data-name="椭圆 54" class="cls-3" cx="1.093" cy="2.189" rx="1.093" ry="2.189" transform="translate(137.34 196.545) rotate(-79.49)"/>
    <ellipse id="椭圆_55" data-name="椭圆 55" class="cls-15" cx="1.093" cy="2.189" rx="1.093" ry="2.189" transform="translate(137.34 196.545) rotate(-79.49)"/>
    <rect id="矩形_754" data-name="矩形 754" class="cls-3" width="5.333" height="10.394" transform="translate(135.066 200.625) rotate(-79.49)"/>
    <ellipse id="椭圆_56" data-name="椭圆 56" class="cls-3" cx="1.093" cy="2.189" rx="1.093" ry="2.189" transform="translate(138.3 199.693) rotate(-79.49)"/>
    <ellipse id="椭圆_57" data-name="椭圆 57" class="cls-15" cx="1.093" cy="2.189" rx="1.093" ry="2.189" transform="translate(138.3 199.693) rotate(-79.49)"/>
    <rect id="矩形_755" data-name="矩形 755" class="cls-3" width="5.333" height="10.394" transform="matrix(0.476, -0.879, 0.879, 0.476, 155.37, 186.431)"/>
    <ellipse id="椭圆_58" data-name="椭圆 58" class="cls-3" cx="1.093" cy="2.189" rx="1.093" ry="2.189" transform="matrix(0.476, -0.879, 0.879, 0.476, 158.73, 186.538)"/>
    <ellipse id="椭圆_59" data-name="椭圆 59" class="cls-15" cx="1.093" cy="2.189" rx="1.093" ry="2.189" transform="matrix(0.476, -0.879, 0.879, 0.476, 158.73, 186.538)"/>
    <rect id="矩形_756" data-name="矩形 756" class="cls-3" width="5.333" height="10.394" transform="translate(150.286 188.791) rotate(-79.49)"/>
    <rect id="矩形_757" data-name="矩形 757" class="cls-19" width="5.333" height="10.394" transform="translate(150.286 188.791) rotate(-79.49)"/>
    <ellipse id="椭圆_60" data-name="椭圆 60" class="cls-3" cx="1.093" cy="2.189" rx="1.093" ry="2.189" transform="translate(153.517 187.859) rotate(-79.49)"/>
    <ellipse id="椭圆_61" data-name="椭圆 61" class="cls-15" cx="1.093" cy="2.189" rx="1.093" ry="2.189" transform="translate(153.517 187.859) rotate(-79.49)"/>
    <rect id="矩形_758" data-name="矩形 758" class="cls-3" width="5.333" height="10.394" transform="translate(151.243 191.939) rotate(-79.49)"/>
    <ellipse id="椭圆_62" data-name="椭圆 62" class="cls-3" cx="1.093" cy="2.189" rx="1.093" ry="2.189" transform="translate(154.477 191.007) rotate(-79.49)"/>
    <ellipse id="椭圆_63" data-name="椭圆 63" class="cls-15" cx="1.093" cy="2.189" rx="1.093" ry="2.189" transform="translate(154.477 191.007) rotate(-79.49)"/>
  </g>
</svg>
